<?xml version="1.0" encoding="UTF-8" standalone="no"?>
<!DOCTYPE svg PUBLIC "-//W3C//DTD SVG 1.1//EN" "http://www.w3.org/Graphics/SVG/1.1/DTD/svg11.dtd">
<svg width="100%" height="100%" viewBox="0 0 600 600" version="1.1" xmlns="http://www.w3.org/2000/svg" xmlns:xlink="http://www.w3.org/1999/xlink" xml:space="preserve" xmlns:serif="http://www.serif.com/" style="fill-rule:evenodd;clip-rule:evenodd;stroke-linejoin:round;stroke-miterlimit:2;">
    <g transform="matrix(1.21088,0,0,1.29112,-86.5061,-51.3015)">
        <ellipse cx="319.195" cy="272.091" rx="206.462" ry="193.631" style="fill:white;"/>
    </g>
    <g transform="matrix(0.82801,0,0,1.37371,44.651,-97.8195)">
        <path d="M487.862,279.041C487.862,273.217 480.017,268.488 470.354,268.488L146.423,268.488C136.761,268.488 128.915,273.217 128.915,279.041L128.915,300.147C128.915,305.972 136.761,310.7 146.423,310.7L470.354,310.7C480.017,310.7 487.862,305.972 487.862,300.147L487.862,279.041Z" style="fill:rgb(113,189,163);"/>
    </g>
    <g transform="matrix(5.0701e-17,-0.88969,1.27848,8.41157e-17,-70.2396,574.37)">
        <path d="M487.862,279.041C487.862,273.217 481.067,268.488 472.697,268.488L144.08,268.488C135.71,268.488 128.915,273.217 128.915,279.041L128.915,300.147C128.915,305.972 135.71,310.7 144.08,310.7L472.697,310.7C481.067,310.7 487.862,305.972 487.862,300.147L487.862,279.041Z" style="fill:rgb(113,189,163);"/>
    </g>
</svg>
