<?xml version="1.0" encoding="UTF-8" standalone="no"?>
<!DOCTYPE svg PUBLIC "-//W3C//DTD SVG 1.1//EN" "http://www.w3.org/Graphics/SVG/1.1/DTD/svg11.dtd">
<svg width="100%" height="100%" viewBox="0 0 422 511" version="1.1" xmlns="http://www.w3.org/2000/svg" xmlns:xlink="http://www.w3.org/1999/xlink" xml:space="preserve" xmlns:serif="http://www.serif.com/" style="fill-rule:evenodd;clip-rule:evenodd;stroke-linejoin:round;stroke-miterlimit:2;">
    <g id="change1_1">
        <path d="M412.14,502.03C404.95,510.96 394.88,493.2 382.62,493.2C370.37,493.2 370.37,504.33 358.11,504.33C345.86,504.33 345.86,493.2 333.6,493.2C321.35,493.2 321.35,504.33 309.09,504.33C296.84,504.33 296.84,493.2 284.58,493.2C272.33,493.2 272.33,504.33 260.07,504.33C247.81,504.33 247.81,493.2 235.56,493.2C223.31,493.2 223.31,504.33 211.05,504.33C198.8,504.33 198.8,493.2 186.54,493.2C174.29,493.2 174.29,504.33 162.03,504.33C149.77,504.33 149.77,493.2 137.52,493.2C125.26,493.2 125.26,504.33 113.01,504.33C100.75,504.33 100.75,493.2 88.5,493.2C76.24,493.2 76.24,504.33 63.99,504.33C51.73,504.33 49.53,490.35 37.75,493.42C22.34,497.43 17.14,510.96 9.95,502.03C0.03,489.72 21.14,483.56 21.14,468.35C21.14,453.15 8.77,453.15 8.77,437.94C8.77,422.73 21.14,422.73 21.14,407.53C21.14,392.33 8.77,392.33 8.77,377.12C8.77,361.91 21.14,361.91 21.14,346.71C21.14,331.5 8.77,331.5 8.77,316.3C8.77,301.09 21.14,301.09 21.14,285.89C21.14,270.68 8.77,270.68 8.77,255.48C8.77,240.28 21.14,240.28 21.14,225.07C21.14,209.87 8.77,209.87 8.77,194.66C8.77,179.45 21.14,179.45 21.14,164.25C21.14,149.04 8.77,149.04 8.77,133.84C8.77,118.63 21.14,118.63 21.14,103.43C21.15,88.2 8.77,88.2 8.77,73C8.77,57.79 21.14,57.79 21.14,42.58C21.14,27.37 0.02,21.21 9.95,8.9C17.14,-0.03 27.21,17.73 39.47,17.73C51.72,17.73 51.72,6.6 63.98,6.6C76.23,6.6 76.23,17.73 88.49,17.73C100.74,17.73 100.74,6.6 113,6.6C125.25,6.6 125.25,17.73 137.51,17.73C149.76,17.73 149.76,6.6 162.02,6.6C174.28,6.6 174.28,17.73 186.53,17.73C198.78,17.73 198.78,6.6 211.04,6.6C223.29,6.6 223.29,17.73 235.55,17.73C247.8,17.73 247.8,6.6 260.06,6.6C272.32,6.6 272.32,17.73 284.57,17.73C296.83,17.73 296.83,6.6 309.08,6.6C321.34,6.6 321.34,17.73 333.59,17.73C345.85,17.73 345.85,6.6 358.1,6.6C370.36,6.6 370.36,17.73 382.62,17.73C394.88,17.73 404.95,-0.03 412.14,8.9C422.06,21.21 400.95,27.37 400.95,42.58C400.95,57.78 413.32,57.78 413.32,72.99C413.32,88.2 400.95,88.2 400.95,103.4C400.95,118.6 413.32,118.6 413.32,133.81C413.32,149.02 400.95,149.02 400.95,164.22C400.95,179.43 413.32,179.43 413.32,194.63C413.32,209.84 400.95,209.84 400.95,225.04C400.95,240.25 413.32,240.25 413.32,255.45C413.32,270.65 400.95,270.65 400.95,285.86C400.95,301.06 413.32,301.06 413.32,316.27C413.32,331.48 400.95,331.48 400.95,346.68C400.95,361.89 413.32,361.89 413.32,377.09C413.32,392.3 400.95,392.3 400.95,407.5C400.95,422.71 413.32,422.71 413.32,437.91C413.32,453.12 400.95,453.12 400.95,468.33C400.95,483.55 422.06,489.71 412.14,502.03Z" style="fill:rgb(113,189,163);fill-rule:nonzero;"/>
    </g>
    <g id="change2_1">
        <path d="M99.87,210.08C98.79,226.28 93.43,238.69 89.59,245.9C91.51,233.92 92.91,219.35 92.58,202.8C92.56,202 92.54,201.22 92.52,200.43L99.97,200.43C100.11,203.52 100.09,206.74 99.87,210.08ZM45.53,254.46L55.5,248.62L89.59,245.89L45.53,245.89L45.53,254.46ZM70.88,200.42L45.53,200.42L45.53,234.64C51.24,228.65 57.2,221.54 62.92,213.2C65.88,208.88 68.51,204.61 70.88,200.42ZM69.67,163.23L69.67,156.56L63,156.56L63,163.23L69.67,163.23ZM110.28,237.14C99.82,238.31 92.63,243.43 89.59,245.89L139.94,245.89C137.5,243.96 126.09,235.37 110.28,237.14ZM356.48,254.6C355.58,254.89 354.31,254.74 352.13,254.03C347.84,252.62 341.74,247.66 339.36,245.27C339.52,245.43 339.68,245.59 339.87,245.77C334.55,246.8 329.18,247.02 327.38,244.3C327.38,244.3 311.96,243.68 314.47,234.59C314.47,234.59 292.23,242.74 296.89,223.31C296.89,223.31 296.72,222.6 296.59,221.54C296.59,221.56 296.59,221.58 296.6,221.6L290.51,214.86C269.06,207.42 247.09,203.02 228.62,200.42L217.63,200.42L217.72,201.23L213.42,203.24C211.61,203.38 209.79,203.53 207.98,203.67C207.9,202.63 207.83,201.54 207.76,200.42L185.2,200.42L182.59,203.24L186.2,203.24C186.76,203.24 187.32,203.39 187.81,203.67L192.61,206.44L192.61,209.86L182.48,208.18L172.35,209.86L172.35,206.44L177.15,203.67C177.07,202.62 177.01,201.54 176.97,200.42L124.81,200.42C135.11,218.82 138.6,235.8 139.94,245.89L144.23,254.87L138.45,262.36C132.2,270.45 123.18,275.1 113.68,275.1L45.53,275.1L45.53,461.46L79.26,461.46L109.36,414.96L135.25,395.49L163.13,397.11L165.73,397.33L185.59,367.66L209.54,365.21L228.18,341.6L273.98,321.68L318.68,305.71L353.41,271.89L376.57,261.54L365.88,266.31C363.04,262.17 359.89,258.26 356.48,254.6ZM73.59,176.68L80.26,176.68L80.26,170.01L73.59,170.01L73.59,176.68ZM205.2,155.76C205.2,153.69 203.52,152.01 201.45,152.01L201.31,152.01C199.24,152.01 197.56,153.69 197.56,155.76L197.56,165L205.19,165L205.19,155.76L205.2,155.76ZM220.91,155.76C220.91,153.69 219.23,152.01 217.16,152.01L217.02,152.01C214.95,152.01 213.27,153.69 213.27,155.76L213.27,163.42C213.32,163.28 213.37,163.13 213.42,162.99L213.65,165L220.91,165L220.91,155.76ZM185.92,178.52L186.18,179.73L187.19,184.46L192.05,184.46L192.05,164.21C189.78,164.22 186.52,164.24 182.87,164.25L183.71,168.16C183.75,168.16 183.8,168.15 183.84,168.15L183.97,168.15C185.91,168.15 187.48,169.72 187.48,171.66L187.48,178.52L185.92,178.52ZM197.56,179.73L197.56,181.14L205.19,181.14L205.19,171.9C205.19,169.83 203.51,168.15 201.44,168.15L201.3,168.15C199.23,168.15 197.55,169.83 197.55,171.9L197.55,179.73L197.56,179.73ZM100.37,158.01L95.53,158.01L93.55,163.45C93.87,163.71 94.2,163.98 94.54,164.25C94.84,164.26 95.18,164.26 95.57,164.27C96.79,164.28 98.44,164.29 100.38,164.3C103.04,164.31 106.25,164.3 109.61,164.3C118.2,164.28 127.81,164.23 132.1,164.21C133.54,164.2 134.38,164.2 134.38,164.2L131.85,158.02L100.37,158.02L100.37,158.01ZM80.45,156.55L73.78,156.55L73.78,163.22L80.45,163.22L80.45,156.55ZM45.54,168.84L61.2,168.84L51.32,160.74L46.54,156.82L45.54,157.64L45.54,168.84ZM158.65,161.16L158.65,184.46L177.6,184.46C177.79,182.84 178.02,181.26 178.27,179.73C179.27,173.8 180.69,168.62 182.16,164.26C174.05,164.29 164.19,164.32 158.64,164.29L158.65,161.16ZM122.31,168.16C120.37,168.16 118.8,169.73 118.8,171.67L118.8,178.53L125.94,178.53L125.94,171.67C125.94,169.73 124.37,168.16 122.43,168.16L122.31,168.16ZM109.6,148.77L158.65,148.77L134.12,131.71L109.6,148.77ZM91.04,176.68L91.04,170.01L89.69,170.01C90.03,172.17 90.35,174.39 90.65,176.68L91.04,176.68ZM84.42,170L84.37,170L84.37,170.15C84.39,170.1 84.4,170.05 84.42,170ZM105.21,168.16C103.6,168.16 102.25,169.26 101.84,170.74C104.12,172.93 106.47,175.34 108.84,178L108.84,171.67C108.84,169.73 107.27,168.16 105.33,168.16L105.21,168.16ZM52.24,145.26L49.33,152.16C49.33,152.25 55.04,152.28 62.71,152.28C78.41,152.28 102.34,152.16 102.34,152.16L99.08,145.26L52.24,145.26ZM370.06,152.68L376.56,152.68L376.56,145.94L370.06,145.94L370.06,152.68ZM258.33,184.46L271.13,184.46L271.13,180.17L258.33,180.17L258.33,184.46ZM250.11,173.5L250.11,179.05L255.66,179.05L255.66,173.5L250.11,173.5ZM242.18,179.05L247.73,179.05L247.73,173.5L242.18,173.5L242.18,179.05ZM277.87,171.06L277.87,177.61L284.43,177.61L284.43,171.06L277.87,171.06ZM294.67,177.61L294.67,171.06L288.12,171.06L288.12,177.61L294.67,177.61ZM370.06,171.6L376.56,171.6L376.56,164.86L370.06,164.86L370.06,171.6ZM349.96,136.98L376.57,136.98L376.57,125.78L370.1,120.47L349.96,136.98ZM45.53,49.93L45.53,95.78C45.62,95.76 45.72,95.75 45.81,95.72C48.11,94.68 50.41,93.63 52.7,92.59C53.7,93.41 56.33,95.34 60.23,95.72C65.13,96.2 68.68,93.88 69.63,93.21C70.17,91.8 72.28,86.89 77.78,83.81C83.76,80.45 89.57,81.61 90.95,81.93C94.5,83.81 98.06,85.68 101.61,87.57C102.5,86.87 104.97,85.14 108.5,85.06L108.77,85.06C114.1,85.06 117.44,88.9 117.91,89.45C117.91,89.45 122.04,90.24 124.8,91.96C127.72,93.78 127.44,95.59 130.44,98.85C131.77,100.3 133.93,102.23 137.33,103.87C139.85,102.76 143.6,101.56 147.99,101.99C157.59,102.93 162.22,110.92 166.81,108.88C169.76,107.57 168.74,103.84 172.45,100.1C176.06,96.47 181.23,95.76 184.98,95.71C186.2,93.52 190.38,86.68 198.78,83.8C202.2,82.62 205.31,82.46 207.55,82.55C208.22,82.96 212.79,85.61 218.21,83.8C222.48,82.37 224.57,79.06 225.1,78.16C225.47,77.74 231.58,71 240.16,72.51C245.47,73.45 248.63,77.02 249.56,78.16C250.26,77.52 251.97,76.12 254.57,75.65C258.06,75.02 260.73,76.47 261.48,76.9C263.49,76.57 268.11,76.09 273.39,78.15C278.49,80.14 281.51,83.46 282.79,85.04C282.83,83.29 283.18,79.86 285.29,76.26C286.73,73.83 288.47,72.21 289.69,71.25C298.22,65.5 303.07,65.51 305.99,66.85C309.32,68.38 310.54,71.84 316.03,74.38C318.72,75.62 321.2,76.08 322.92,76.26C324.52,76.59 329.58,77.85 333.58,82.53C337,86.54 337.75,90.85 337.97,92.57C345.36,92.25 348.13,90.14 349.25,88.17C350.28,86.38 350.08,84.47 351.76,83.15C353.56,81.75 356.16,82.06 358.03,82.53C360.33,85.04 362.63,87.55 364.92,90.06C366.6,92.36 368.26,94.66 369.94,96.95C371.35,95.97 373.6,94.64 376.56,93.83L376.56,49.93L45.53,49.93ZM298.36,171.06L298.36,177.61L304.91,177.61L304.91,171.06L298.36,171.06ZM370.06,162.14L376.56,162.14L376.56,155.4L370.06,155.4L370.06,162.14ZM338.57,195.9C338.69,195.61 338.85,195.29 339.06,194.98C339.03,195.03 338.99,195.07 338.96,195.12C338.8,195.39 338.67,195.65 338.57,195.9ZM343.59,231.44C343.92,231.54 344.24,231.64 344.6,231.78C352.13,234.6 362.89,236.17 362.89,236.17L362.89,247.46C362.77,247.56 362.68,247.66 362.57,247.76C362.68,247.66 362.78,247.56 362.9,247.46L362.9,236.17C362.9,236.17 352.13,234.6 344.6,231.78C344.25,231.64 343.92,231.54 343.59,231.44ZM284.71,144.04L282.38,134.76L248.84,134.76L246.76,144.04C246.76,144.11 248.12,144.16 250.31,144.18L250.31,161.16L259.23,161.16L261.74,168.7C261.74,168.7 260.45,168.71 258.34,168.72L258.34,174.28C259.71,172.39 261.92,171.15 264.43,171.15L264.7,171.15C267.44,171.15 269.82,172.62 271.14,174.8L271.14,166.17L281.17,166.17C287.51,166.17 295.45,166.15 302.65,166.13L302.65,166.17L320.2,166.17L320.2,184.45L351.7,184.45L351.7,152.7C343.35,152.74 310.99,152.89 302.65,152.77L302.65,159.17L281.17,159.17L281.17,144.08C283.35,144.06 284.71,144.04 284.71,144.04ZM366.52,150.37C366.52,147.23 363.98,144.69 360.84,144.69L360.63,144.69C357.49,144.69 354.95,147.23 354.95,150.37L354.95,172.04L366.52,172.04L366.52,150.37ZM234.25,173.5L234.25,179.05L239.8,179.05L239.8,173.5L234.25,173.5ZM231.87,173.5L226.32,173.5L226.32,179.05L231.87,179.05L231.87,173.5ZM217.16,168.16L217.02,168.16C215.86,168.16 214.84,168.7 214.15,169.52L215.3,179.73L215.46,181.14L220.91,181.14L220.91,171.9C220.91,170.25 219.84,168.86 218.35,168.36C217.98,168.24 217.58,168.16 217.16,168.16ZM339.18,230.88C336.31,231.26 335.63,233.33 335.63,233.33L336.04,234.9L335.63,233.33C335.63,233.34 336.31,231.26 339.18,230.88ZM358.94,252.05C359.21,251.64 359.51,251.2 359.87,250.71C359.51,251.2 359.21,251.64 358.94,252.05ZM315.17,177.61L315.17,171.06L308.62,171.06L308.62,177.61L315.17,177.61ZM358.94,252.05C358.55,252.63 358.22,253.14 357.88,253.55C358.22,253.15 358.55,252.63 358.94,252.05Z" style="fill:rgb(169,222,249);fill-rule:nonzero;"/>
    </g>
    <g id="change3_1">
        <path d="M269.26,154.89L262.2,154.89L262.2,147.83L269.26,147.83L269.26,154.89ZM186.48,148.77L230.8,148.77L208.64,134.24L186.48,148.77ZM296.52,218.24C296.54,218.01 296.56,217.78 296.59,217.55C296.6,217.5 296.6,217.44 296.61,217.39C296.65,217.15 296.69,216.9 296.74,216.66C296.76,216.58 296.78,216.5 296.79,216.42C296.85,216.16 296.92,215.91 297,215.65C297.01,215.61 297.03,215.56 297.05,215.52C297.13,215.3 297.21,215.08 297.31,214.87C297.34,214.8 297.37,214.73 297.41,214.66C297.53,214.42 297.66,214.18 297.8,213.96C297.83,213.91 297.87,213.87 297.9,213.82C298.03,213.63 298.17,213.44 298.33,213.26C298.37,213.21 298.42,213.15 298.46,213.1C298.65,212.9 298.85,212.7 299.07,212.52C299.12,212.48 299.18,212.44 299.23,212.4C299.43,212.25 299.65,212.1 299.88,211.97C299.93,211.94 299.98,211.91 300.04,211.88C300.31,211.74 300.61,211.61 300.92,211.5C300.99,211.47 301.07,211.45 301.15,211.43C301.45,211.33 301.76,211.25 302.1,211.19C302.14,211.18 302.19,211.17 302.23,211.16C302.6,211.1 303.01,211.06 303.43,211.04C303.53,211.04 303.63,211.03 303.74,211.03C304.18,211.02 304.64,211.02 305.14,211.07C305.14,211.07 308,197.59 317.33,202.61C317.33,202.61 329.53,192.26 338.15,197.59L338.15,197.52C338.15,197.5 338.16,197.46 338.16,197.43C338.16,197.41 338.16,197.39 338.17,197.37C338.18,197.32 338.19,197.25 338.2,197.19C338.21,197.15 338.21,197.11 338.22,197.07C338.23,197.03 338.24,196.99 338.25,196.94C338.26,196.89 338.27,196.84 338.29,196.78C338.3,196.75 338.31,196.71 338.32,196.67C338.35,196.55 338.39,196.42 338.43,196.29C338.44,196.26 338.45,196.22 338.47,196.19C338.5,196.1 338.53,196.02 338.57,195.93C338.57,195.92 338.58,195.91 338.58,195.9C338.68,195.65 338.81,195.39 338.97,195.12L318.86,188.19L283.12,206.66L290.52,214.85L296.61,221.59C296.61,221.57 296.61,221.55 296.6,221.53C296.58,221.36 296.56,221.18 296.55,220.99C296.55,220.94 296.54,220.9 296.54,220.85C296.52,220.64 296.51,220.42 296.5,220.19C296.5,220.12 296.5,220.05 296.49,219.99C296.48,219.79 296.48,219.6 296.48,219.39L296.48,219.22C296.48,218.98 296.49,218.73 296.51,218.49C296.51,218.4 296.52,218.32 296.52,218.24ZM264.42,171.16C261.91,171.16 259.69,172.4 258.33,174.29L258.33,180.18L271.13,180.18L271.13,174.82C269.82,172.63 267.43,171.17 264.69,171.17L264.42,171.17L264.42,171.16ZM225.24,161.17L225.24,168.82C231.14,168.87 241.97,168.82 250.3,168.78C253.48,168.76 256.29,168.74 258.33,168.73C260.44,168.72 261.73,168.71 261.73,168.71L259.22,161.17L225.24,161.17ZM259.25,147.82L252.19,147.82L252.19,154.88L259.25,154.88L259.25,147.82ZM338.5,244.31C338.66,244.54 338.97,244.87 339.36,245.27C341.74,247.66 347.83,252.62 352.13,254.03C354.31,254.74 355.58,254.89 356.48,254.6C356.51,254.59 356.54,254.58 356.56,254.57C356.69,254.52 356.82,254.46 356.93,254.4C356.97,254.38 357.01,254.35 357.05,254.33C357.18,254.24 357.31,254.15 357.43,254.04L357.44,254.03C357.57,253.91 357.7,253.77 357.82,253.62C357.84,253.6 357.85,253.58 357.87,253.56C358.44,252.87 358.99,251.89 359.85,250.72C359.9,250.66 359.94,250.59 359.99,250.53C360.11,250.38 360.23,250.22 360.35,250.06C360.43,249.96 360.51,249.86 360.6,249.76C360.79,249.53 361,249.29 361.23,249.04C361.35,248.91 361.47,248.78 361.6,248.65C361.74,248.51 361.87,248.37 362.02,248.23C362.19,248.07 362.36,247.91 362.55,247.74C362.66,247.64 362.76,247.54 362.87,247.44L362.87,236.15C362.87,236.15 352.11,234.58 344.58,231.76C344.23,231.63 343.9,231.53 343.57,231.42C341.72,230.84 340.27,230.72 339.16,230.87C336.29,231.25 335.61,233.32 335.61,233.32L336.02,234.89L338.5,244.31ZM329.54,155.99L329.35,155.99C326.47,155.99 324.14,158.32 324.14,161.2L324.14,179.69L334.74,179.69L334.74,161.2C334.74,158.32 332.41,155.99 329.54,155.99ZM281.15,166.18C287.49,166.18 295.43,166.16 302.63,166.14C313.19,166.1 322.15,166.06 322.15,166.06L318.89,159.16L272.04,159.16L269.14,166.06C269.15,166.15 274.19,166.18 281.15,166.18ZM348.62,161.19C348.62,158.31 346.29,155.98 343.41,155.98L343.22,155.98C340.34,155.98 338.01,158.31 338.01,161.19L338.01,179.68L348.61,179.68L348.61,161.19L348.62,161.19ZM351.69,152.7L351.74,152.7C352.97,152.69 353.67,152.69 353.67,152.69L351.74,148.6L350.41,145.79L303.56,145.79L300.66,152.69C300.66,152.72 301.38,152.75 302.64,152.77C310.98,152.89 343.34,152.74 351.69,152.7ZM279.27,147.82L272.21,147.82L272.21,154.88L279.27,154.88L279.27,147.82ZM155.34,159.14C155.34,156.83 153.47,154.96 151.16,154.96L151.01,154.96C148.7,154.96 146.83,156.83 146.83,159.14L146.83,178.52L155.34,178.52L155.34,159.14ZM138.46,262.36L144.24,254.87L45.53,254.87L45.53,275.1L113.69,275.1C123.18,275.09 132.21,270.45 138.46,262.36ZM58.06,184.46L58.06,168.83L45.53,168.83L45.53,172.8L53.71,172.8L53.71,179.49L45.53,179.49L45.53,184.46L58.06,184.46ZM102.35,152.16L99.09,145.26L52.24,145.26L49.33,152.16C49.33,152.25 55.04,152.28 62.71,152.28C78.42,152.29 102.35,152.16 102.35,152.16ZM353.4,271.9L318.67,305.72L273.97,321.69L228.17,341.61L209.53,365.22L223.42,363.8L243.33,384.03L283.16,386.55L309.05,411.84L338.93,452.29L336.52,461.46L376.57,461.46L376.57,261.56L353.4,271.9ZM200.97,400.34L183.02,398.8L165.73,397.32L163.13,397.1L135.25,395.48L109.36,414.95L79.26,461.45L241.96,461.45L222.87,427.94L200.97,400.34ZM129.8,155.48C129.8,153.22 127.97,151.39 125.71,151.39L116.48,151.39C114.22,151.39 112.39,153.22 112.39,155.48L112.39,155.55L129.8,155.55L129.8,155.48ZM95.56,176.52L95.56,184.46L97.78,184.46C97.4,182.83 96.99,181.25 96.55,179.73C96.23,178.63 95.9,177.56 95.56,176.52ZM166.73,168.16C164.79,168.16 163.22,169.73 163.22,171.67L163.22,178.53L170.36,178.53L170.36,171.67C170.36,169.73 168.79,168.16 166.85,168.16L166.73,168.16ZM144.37,159.14C144.37,156.83 142.5,154.96 140.19,154.96L140.04,154.96C137.73,154.96 135.86,156.83 135.86,159.14L135.86,178.52L144.37,178.52L144.37,159.14ZM182.17,164.27C180.7,168.63 179.27,173.81 178.28,179.74C178.02,181.27 177.8,182.84 177.61,184.47C177.51,185.34 177.4,186.21 177.32,187.1C176.87,191.94 176.82,196.41 176.99,200.42C177.04,201.54 177.1,202.63 177.17,203.67C178.98,203.53 180.8,203.38 182.61,203.24L185.22,200.42L189.61,195.67L187.21,184.46L186.2,179.73L185.94,178.52L187.49,178.52L187.49,171.66C187.49,169.72 185.92,168.15 183.98,168.15L183.85,168.15C183.81,168.15 183.76,168.16 183.72,168.16L182.88,164.25C186.53,164.23 189.78,164.22 192.06,164.21L192.06,158L158.66,158L158.66,164.28C164.2,164.33 174.06,164.3 182.17,164.27ZM100.37,164.31C103.03,164.32 106.24,164.31 109.6,164.31C118.19,164.29 127.8,164.24 132.09,164.22L132.09,184.47L114.21,184.47C112.93,182.82 111.64,181.25 110.35,179.74C110.1,179.45 109.85,179.16 109.59,178.87C109.34,178.58 109.08,178.28 108.83,178L108.83,171.67C108.83,169.73 107.26,168.16 105.32,168.16L105.19,168.16C103.58,168.16 102.23,169.26 101.82,170.74C101.32,170.27 100.84,169.81 100.35,169.36C98.7,167.83 97.08,166.41 95.54,165.11L95.54,164.28C96.78,164.29 98.43,164.3 100.37,164.31ZM118.8,178.52L125.95,178.52L125.95,171.66C125.95,169.72 124.38,168.15 122.44,168.15L122.31,168.15C120.37,168.15 118.8,169.72 118.8,171.66L118.8,178.52Z" style="fill:rgb(249,192,181);fill-rule:nonzero;"/>
    </g>
    <g id="change4_1">
        <path d="M53.71,179.5L45.53,179.5L45.53,172.81L53.71,172.81L53.71,179.5ZM281.15,144.07C283.35,144.05 284.7,144.04 284.7,144.04L282.37,134.76L248.83,134.76L246.75,144.04C246.75,144.11 248.11,144.16 250.3,144.18C257.54,144.26 273.92,144.14 281.15,144.07ZM124.82,200.42C135.12,218.82 138.61,235.8 139.95,245.89C137.51,243.96 126.1,235.37 110.28,237.14C99.82,238.31 92.63,243.43 89.59,245.89C93.43,238.68 98.79,226.28 99.87,210.07C100.09,206.73 100.11,203.51 99.97,200.41L92.52,200.41C92.54,201.2 92.57,201.98 92.58,202.78C92.91,219.33 91.5,233.9 89.59,245.88L45.53,245.88L45.53,234.63C51.24,228.64 57.2,221.53 62.92,213.19C65.88,208.88 68.51,204.6 70.88,200.41L45.53,200.41L45.53,184.45L58.06,184.45L58.06,168.82L61.2,168.82L51.32,160.72L51.32,152.27L100.37,152.27L100.37,158L95.53,158L93.55,163.44C93.87,163.7 94.2,163.97 94.54,164.24C94.84,164.25 95.18,164.25 95.57,164.26L95.57,165.09C97.12,166.39 98.73,167.81 100.38,169.34C100.87,169.79 101.36,170.24 101.85,170.72C104.13,172.91 106.48,175.32 108.85,177.98C109.1,178.26 109.36,178.56 109.61,178.85C109.86,179.14 110.11,179.42 110.37,179.72C111.66,181.22 112.95,182.8 114.23,184.45L132.11,184.45L132.11,164.2C133.55,164.19 134.39,164.19 134.39,164.19L131.86,158.01L109.6,158.01L109.6,148.77L158.65,148.77L158.65,184.46L177.6,184.46C177.5,185.33 177.39,186.2 177.31,187.09C176.86,191.93 176.81,196.4 176.98,200.41L124.82,200.41L124.82,200.42ZM129.8,155.48C129.8,153.22 127.97,151.39 125.71,151.39L116.48,151.39C114.22,151.39 112.39,153.22 112.39,155.48L112.39,155.55L129.8,155.55L129.8,155.48ZM146.83,178.52L155.34,178.52L155.34,159.14C155.34,156.83 153.47,154.96 151.16,154.96L151.01,154.96C148.7,154.96 146.83,156.83 146.83,159.14L146.83,178.52ZM135.86,178.52L144.37,178.52L144.37,159.14C144.37,156.83 142.5,154.96 140.19,154.96L140.04,154.96C137.73,154.96 135.86,156.83 135.86,159.14L135.86,178.52ZM84.37,170.15C84.39,170.1 84.4,170.05 84.42,170L84.37,170L84.37,170.15ZM73.77,163.23L80.44,163.23L80.44,156.56L73.77,156.56L73.77,163.23ZM73.59,176.68L80.26,176.68L80.26,170.01L73.59,170.01L73.59,176.68ZM63,163.23L69.67,163.23L69.67,156.56L63,156.56L63,163.23ZM169.43,210.35L169.43,214.42C169.43,216.07 171.14,217.6 173.95,218.46L176.16,219.14C180.29,220.41 184.7,220.41 188.82,219.14L191.03,218.46C193.84,217.6 195.55,216.07 195.55,214.42L195.55,210.35L192.62,209.86L182.49,208.18L172.36,209.86L169.43,210.35ZM370.06,145.94L370.06,152.68L376.56,152.68L376.56,155.4L370.06,155.4L370.06,162.14L376.56,162.14L376.56,164.86L370.06,164.86L370.06,171.6L376.56,171.6L376.56,191.98C374.51,192.83 372.94,193.86 372.94,193.86C366.11,187.28 353.92,194.48 353.92,194.48C353.35,194.25 352.81,194.04 352.28,193.85C352.14,193.8 352.01,193.76 351.87,193.71C351.47,193.57 351.09,193.45 350.71,193.33C350.58,193.29 350.45,193.25 350.32,193.21C349.9,193.09 349.5,192.98 349.11,192.88C349.05,192.87 348.99,192.85 348.94,192.84C348.48,192.73 348.04,192.64 347.62,192.57C347.58,192.56 347.54,192.56 347.5,192.55C347.14,192.49 346.79,192.44 346.45,192.41C346.36,192.4 346.27,192.39 346.18,192.38C345.89,192.35 345.61,192.34 345.34,192.33C345.26,192.33 345.18,192.32 345.11,192.32C344.45,192.31 343.85,192.35 343.31,192.44C343.23,192.45 343.15,192.47 343.07,192.48C342.89,192.51 342.71,192.55 342.55,192.59C342.46,192.61 342.37,192.64 342.29,192.66C342.14,192.7 342,192.75 341.86,192.8C341.78,192.83 341.7,192.86 341.62,192.89C341.43,192.97 341.25,193.05 341.09,193.14C341,193.19 340.91,193.24 340.82,193.3C340.74,193.35 340.66,193.39 340.59,193.44C340.49,193.5 340.4,193.57 340.31,193.64C340.26,193.68 340.21,193.72 340.16,193.76C340.07,193.84 339.97,193.91 339.89,193.99C339.88,194 339.86,194.02 339.85,194.03C339.47,194.38 339.17,194.76 338.94,195.14L318.83,188.21L283.09,206.68L290.49,214.87C269.04,207.43 247.07,203.03 228.6,200.43L217.61,200.43L215.81,184.47L215.44,181.16L220.89,181.16L220.89,171.92C220.89,170.27 219.82,168.88 218.33,168.38C217.95,168.25 217.56,168.17 217.14,168.17L217,168.17C215.84,168.17 214.82,168.71 214.13,169.53L213.62,165.01L220.88,165.01L220.88,155.77C220.88,153.7 219.2,152.02 217.13,152.02L216.99,152.02C214.92,152.02 213.24,153.7 213.24,155.77L213.24,163.43C211.71,167.87 210.34,173.71 209.26,179.74C208.98,181.31 208.72,182.89 208.48,184.47C208.35,185.35 208.22,186.23 208.1,187.1C207.44,191.92 207.51,196.4 207.73,200.42L185.17,200.42L189.56,195.67L187.16,184.46L192.02,184.46L192.02,148.76L225.21,148.76L225.21,168.81C231.11,168.86 241.94,168.81 250.27,168.77C253.45,168.75 256.26,168.73 258.3,168.72L258.3,184.46L271.1,184.46L271.1,166.18L320.16,166.18L320.16,184.46L351.66,184.46L351.66,179.73L351.71,179.73L351.71,152.7C352.94,152.69 353.64,152.69 353.64,152.69L351.71,148.6L351.71,136.98L376.54,136.98L376.54,145.94L370.06,145.94ZM197.55,165L205.19,165L205.19,155.76C205.19,153.69 203.51,152.01 201.44,152.01L201.3,152.01C199.23,152.01 197.55,153.69 197.55,155.76L197.55,165ZM205.2,179.73L205.2,171.9C205.2,169.83 203.52,168.15 201.45,168.15L201.31,168.15C199.24,168.15 197.56,169.83 197.56,171.9L197.56,181.14L205.19,181.14L205.19,179.73L205.2,179.73ZM250.11,179.05L255.66,179.05L255.66,173.5L250.11,173.5L250.11,179.05ZM242.18,179.05L247.73,179.05L247.73,173.5L242.18,173.5L242.18,179.05ZM234.25,179.05L239.8,179.05L239.8,173.5L234.25,173.5L234.25,179.05ZM226.32,179.05L231.87,179.05L231.87,173.5L226.32,173.5L226.32,179.05ZM308.61,177.61L315.16,177.61L315.16,171.06L308.61,171.06L308.61,177.61ZM298.36,177.61L304.91,177.61L304.91,171.06L298.36,171.06L298.36,177.61ZM288.12,177.61L294.67,177.61L294.67,171.06L288.12,171.06L288.12,177.61ZM277.87,177.61L284.43,177.61L284.43,171.06L277.87,171.06L277.87,177.61ZM354.95,172.04L366.52,172.04L366.52,150.37C366.52,147.23 363.98,144.69 360.84,144.69L360.63,144.69C357.49,144.69 354.95,147.23 354.95,150.37L354.95,172.04ZM370.42,243.05C370.42,243.05 366.92,244.37 362.89,244.85L362.89,247.45C362.77,247.55 362.67,247.65 362.56,247.75C362.38,247.91 362.2,248.08 362.03,248.24C361.88,248.38 361.74,248.52 361.61,248.66C361.48,248.79 361.36,248.92 361.24,249.05C361.01,249.29 360.8,249.53 360.61,249.77C360.53,249.87 360.44,249.97 360.36,250.07C360.23,250.23 360.11,250.38 360,250.54C359.95,250.6 359.9,250.67 359.86,250.73C358.99,251.9 358.45,252.87 357.88,253.57C357.86,253.59 357.85,253.61 357.83,253.63C357.71,253.78 357.58,253.92 357.45,254.04L357.44,254.05C357.32,254.16 357.19,254.25 357.06,254.34C357.02,254.37 356.98,254.39 356.94,254.41C356.82,254.48 356.7,254.54 356.57,254.58C356.54,254.59 356.51,254.6 356.49,254.61L356.48,254.61C359.89,258.27 363.04,262.18 365.87,266.33L376.56,261.56L376.56,244C374.78,244.85 372.7,244.85 370.42,243.05ZM283.16,386.54L243.33,384.02L223.42,363.79L209.53,365.21L185.58,367.66L165.72,397.33L183.01,398.81L200.96,400.35L222.87,427.95L241.96,461.46L336.52,461.46L338.93,452.29L309.05,411.84L283.16,386.54ZM206.98,219.14C211.11,220.41 215.52,220.41 219.64,219.14L221.85,218.46C224.66,217.6 226.37,216.07 226.37,214.42L226.37,210.35L223.44,209.86L213.31,208.18L203.18,209.86L200.25,210.35L200.25,214.42C200.25,216.07 201.96,217.6 204.77,218.46L206.98,219.14Z" style="fill:rgb(245,245,220);fill-rule:nonzero;"/>
    </g>
    <g id="change5_1">
        <path d="M139.94,245.89L144.23,254.87L45.53,254.87L45.53,254.46L55.5,248.62L89.59,245.89L139.94,245.89ZM218.64,203.67C218.15,203.39 217.6,203.24 217.03,203.24L213.42,203.24C211.61,203.38 209.79,203.53 207.98,203.67L203.18,206.44L203.18,209.86L213.31,208.18L223.44,209.86L223.44,206.44L218.64,203.67Z" style="fill:rgb(42,26,31);fill-rule:nonzero;"/>
        <path d="M409.59,483.88C405.83,479.37 401.95,474.7 401.95,468.34C401.95,461.09 404.85,457.53 407.91,453.76C411.06,449.89 414.32,445.88 414.32,437.92C414.32,429.96 411.06,425.96 407.91,422.08C404.84,418.31 401.95,414.75 401.95,407.5C401.95,400.25 404.85,396.69 407.91,392.92C411.06,389.05 414.32,385.04 414.32,377.08C414.32,369.12 411.06,365.12 407.91,361.24C404.84,357.47 401.95,353.91 401.95,346.66C401.95,339.41 404.85,335.85 407.91,332.08C411.06,328.21 414.32,324.2 414.32,316.24C414.32,308.28 411.06,304.28 407.91,300.41C404.84,296.64 401.95,293.08 401.95,285.84C401.95,278.59 404.85,275.03 407.91,271.27C411.06,267.4 414.32,263.39 414.32,255.43C414.32,247.47 411.06,243.47 407.91,239.59C404.84,235.82 401.95,232.26 401.95,225.01C401.95,217.76 404.85,214.2 407.91,210.43C411.06,206.56 414.32,202.55 414.32,194.59C414.32,186.63 411.06,182.63 407.91,178.75C404.84,174.98 401.95,171.42 401.95,164.18C401.95,156.94 404.85,153.37 407.91,149.61C411.06,145.74 414.32,141.73 414.32,133.77C414.32,125.81 411.06,121.81 407.91,117.93C404.84,114.16 401.95,110.6 401.95,103.36C401.95,96.12 404.85,92.55 407.91,88.79C411.06,84.92 414.32,80.91 414.32,72.95C414.32,64.99 411.06,60.99 407.91,57.11C404.84,53.34 401.95,49.78 401.95,42.54C401.95,36.18 405.83,31.51 409.59,27C414.41,21.21 418.97,15.74 412.92,8.23C408.29,2.49 402.47,6.5 396.84,10.38C392.54,13.34 387.67,16.69 382.61,16.69C376.87,16.69 374.03,14.11 371.02,11.38C367.87,8.52 364.6,5.56 358.09,5.56C351.58,5.56 348.32,8.52 345.16,11.38C342.16,14.11 339.32,16.69 333.58,16.69C327.84,16.69 325,14.11 322,11.38C318.85,8.52 315.59,5.56 309.07,5.56C302.55,5.56 299.3,8.56 296.15,11.42C293.15,14.15 290.31,16.73 284.57,16.73C278.83,16.73 275.99,14.15 272.99,11.42C269.84,8.56 266.58,5.6 260.06,5.6C253.55,5.6 250.29,8.56 247.13,11.42C244.13,14.15 241.29,16.73 235.55,16.73C229.81,16.73 226.97,14.15 223.97,11.42C220.82,8.56 217.56,5.6 211.04,5.6C204.53,5.6 201.27,8.56 198.11,11.42C195.11,14.15 192.27,16.73 186.53,16.73C180.79,16.73 177.95,14.15 174.95,11.42C171.8,8.56 168.54,5.6 162.02,5.6C155.5,5.6 152.25,8.56 149.09,11.42C146.09,14.15 143.25,16.73 137.51,16.73C131.77,16.73 128.93,14.15 125.93,11.42C122.78,8.56 119.52,5.6 113,5.6C106.48,5.6 103.23,8.56 100.07,11.42C97.07,14.15 94.23,16.73 88.49,16.73C82.75,16.73 79.91,14.15 76.91,11.42C73.75,8.56 70.49,5.6 63.98,5.6C57.47,5.6 54.21,8.56 51.05,11.42C48.05,14.15 45.21,16.73 39.47,16.73C34.41,16.73 29.54,13.38 25.25,10.42C19.62,6.54 13.8,2.53 9.17,8.27C3.12,15.78 7.68,21.25 12.5,27.04C16.26,31.55 20.14,36.22 20.14,42.58C20.14,49.83 17.24,53.39 14.18,57.16C11.03,61.03 7.77,65.04 7.77,73C7.77,80.96 11.03,84.96 14.18,88.84C17.25,92.61 20.14,96.17 20.14,103.42C20.14,110.67 17.24,114.23 14.18,118C11.03,121.87 7.77,125.88 7.77,133.84C7.77,141.8 11.03,145.8 14.18,149.68C17.25,153.45 20.14,157.01 20.14,164.26C20.14,171.51 17.24,175.07 14.18,178.84C11.03,182.71 7.77,186.72 7.77,194.68C7.77,202.64 11.03,206.64 14.18,210.52C17.25,214.29 20.14,217.85 20.14,225.09C20.14,232.33 17.24,235.9 14.18,239.66C11.03,243.53 7.77,247.54 7.77,255.5C7.77,263.46 11.03,267.46 14.18,271.34C17.25,275.11 20.14,278.67 20.14,285.92C20.14,293.17 17.24,296.73 14.18,300.5C11.03,304.37 7.77,308.38 7.77,316.34C7.77,324.3 11.03,328.3 14.18,332.18C17.25,335.95 20.14,339.51 20.14,346.76C20.14,354.01 17.24,357.57 14.18,361.33C11.03,365.2 7.77,369.21 7.77,377.17C7.77,385.13 11.03,389.13 14.18,393.01C17.25,396.78 20.14,400.34 20.14,407.58C20.14,414.82 17.24,418.39 14.18,422.15C11.03,426.02 7.77,430.03 7.77,437.99C7.77,445.95 11.03,449.95 14.18,453.82C17.25,457.59 20.14,461.15 20.14,468.39C20.14,474.75 16.26,479.42 12.5,483.93C7.68,489.72 3.12,495.19 9.17,502.7C11.14,505.14 13.01,506.08 14.91,506.08C17.65,506.08 20.44,504.1 23.62,501.85C27.28,499.26 31.83,496.03 38.01,494.43C43.7,492.94 46.91,495.77 50.62,499.03C54,502 57.82,505.37 64,505.37C70.51,505.37 73.78,502.41 76.93,499.55C79.93,496.82 82.77,494.24 88.51,494.24C94.25,494.24 97.09,496.82 100.09,499.55C103.24,502.41 106.5,505.37 113.02,505.37C119.53,505.37 122.8,502.41 125.95,499.55C128.95,496.82 131.79,494.24 137.53,494.24C143.27,494.24 146.11,496.82 149.11,499.55C152.26,502.41 155.52,505.37 162.04,505.37C168.55,505.37 171.81,502.41 174.97,499.54C177.97,496.81 180.81,494.24 186.55,494.24C192.29,494.24 195.13,496.82 198.13,499.55C201.28,502.41 204.54,505.37 211.06,505.37C217.57,505.37 220.83,502.41 223.98,499.55C226.98,496.82 229.82,494.24 235.56,494.24C241.3,494.24 244.14,496.82 247.14,499.55C250.29,502.41 253.55,505.37 260.07,505.37C266.58,505.37 269.84,502.41 273,499.55C276,496.82 278.84,494.24 284.58,494.24C290.32,494.24 293.16,496.82 296.16,499.55C299.31,502.41 302.57,505.37 309.09,505.37C315.6,505.37 318.86,502.41 322.02,499.54C325.02,496.81 327.86,494.24 333.6,494.24C339.34,494.24 342.18,496.82 345.18,499.55C348.33,502.41 351.59,505.37 358.11,505.37C364.62,505.37 367.88,502.41 371.04,499.55C374.04,496.82 376.88,494.24 382.62,494.24C387.68,494.24 392.55,497.59 396.84,500.55C402.47,504.43 408.29,508.43 412.91,502.7C418.97,495.15 414.41,489.67 409.59,483.88ZM411.36,501.4C408.06,505.5 404.31,503.23 397.98,498.86C393.44,495.74 388.3,492.19 382.62,492.19C376.11,492.19 372.85,495.15 369.69,498.02C366.69,500.75 363.85,503.32 358.11,503.32C352.37,503.32 349.53,500.74 346.53,498.01C343.38,495.15 340.12,492.19 333.6,492.19C327.09,492.19 323.83,495.15 320.67,498.01C317.67,500.74 314.83,503.32 309.09,503.32C303.35,503.32 300.51,500.74 297.51,498.02C294.36,495.16 291.1,492.19 284.58,492.19C278.06,492.19 274.81,495.15 271.65,498.01C268.65,500.74 265.81,503.32 260.07,503.32C254.33,503.32 251.49,500.74 248.49,498.01C245.34,495.15 242.08,492.19 235.56,492.19C229.05,492.19 225.79,495.15 222.63,498.02C219.63,500.75 216.79,503.32 211.05,503.32C205.31,503.32 202.47,500.74 199.47,498.02C196.32,495.16 193.06,492.19 186.54,492.19C180.02,492.19 176.77,495.15 173.61,498.01C170.61,500.74 167.77,503.32 162.03,503.32C156.29,503.32 153.45,500.74 150.45,498.01C147.3,495.15 144.04,492.19 137.52,492.19C131.01,492.19 127.74,495.15 124.59,498.01C121.59,500.74 118.75,503.32 113.01,503.32C107.27,503.32 104.43,500.74 101.43,498.02C98.28,495.16 95.02,492.19 88.5,492.19C81.98,492.19 78.72,495.15 75.57,498.01C72.57,500.74 69.73,503.32 63.99,503.32C58.57,503.32 55.2,500.35 51.94,497.48C48.15,494.14 44.23,490.69 37.51,492.44C30.98,494.14 26.26,497.48 22.47,500.17C16.71,504.25 14.23,505.74 10.73,501.39C5.71,495.16 9.38,490.74 14.04,485.15C17.84,480.59 22.14,475.42 22.14,468.33C22.14,460.37 18.88,456.37 15.73,452.49C12.66,448.72 9.77,445.16 9.77,437.92C9.77,430.67 12.67,427.11 15.73,423.34C18.88,419.47 22.14,415.46 22.14,407.5C22.14,399.54 18.88,395.54 15.73,391.66C12.66,387.89 9.77,384.33 9.77,377.09C9.77,369.85 12.67,366.28 15.73,362.52C18.88,358.65 22.14,354.64 22.14,346.68C22.14,338.72 18.88,334.72 15.73,330.84C12.66,327.07 9.77,323.51 9.77,316.27C9.77,309.03 12.67,305.46 15.73,301.69C18.88,297.82 22.14,293.81 22.14,285.85C22.14,277.89 18.88,273.89 15.73,270.01C12.66,266.24 9.77,262.68 9.77,255.43C9.77,248.18 12.67,244.62 15.73,240.86C18.88,236.99 22.14,232.98 22.14,225.02C22.14,217.06 18.88,213.06 15.73,209.18C12.66,205.41 9.77,201.85 9.77,194.61C9.77,187.36 12.67,183.8 15.73,180.03C18.88,176.16 22.14,172.15 22.14,164.19C22.14,156.23 18.88,152.23 15.73,148.35C12.66,144.58 9.77,141.02 9.77,133.77C9.77,126.52 12.67,122.96 15.73,119.19C18.88,115.32 22.14,111.31 22.14,103.35C22.14,95.39 18.88,91.39 15.73,87.51C12.67,83.8 9.77,80.24 9.77,73C9.77,65.75 12.67,62.19 15.73,58.42C18.88,54.55 22.14,50.54 22.14,42.58C22.14,35.5 17.83,30.32 14.04,25.76C9.39,20.17 5.71,15.75 10.73,9.52C11.94,8.02 13.21,7.37 14.65,7.37C17.13,7.37 20.1,9.29 24.11,12.06C28.65,15.18 33.79,18.73 39.47,18.73C45.98,18.73 49.24,15.77 52.4,12.91C55.4,10.18 58.24,7.6 63.98,7.6C69.72,7.6 72.56,10.18 75.56,12.91C78.71,15.77 81.97,18.73 88.49,18.73C95.01,18.73 98.26,15.77 101.42,12.91C104.42,10.18 107.26,7.6 113,7.6C118.74,7.6 121.58,10.18 124.58,12.91C127.73,15.77 130.99,18.73 137.51,18.73C144.02,18.73 147.28,15.77 150.44,12.91C153.44,10.18 156.28,7.6 162.02,7.6C167.76,7.6 170.6,10.18 173.6,12.91C176.75,15.77 180.01,18.73 186.53,18.73C193.04,18.73 196.3,15.77 199.46,12.91C202.46,10.18 205.3,7.6 211.04,7.6C216.78,7.6 219.62,10.18 222.62,12.91C225.77,15.77 229.03,18.73 235.55,18.73C242.06,18.73 245.32,15.77 248.48,12.91C251.48,10.18 254.32,7.6 260.06,7.6C265.8,7.6 268.64,10.18 271.64,12.91C274.79,15.77 278.05,18.73 284.57,18.73C291.09,18.73 294.34,15.77 297.5,12.91C300.5,10.18 303.34,7.6 309.08,7.6C314.82,7.6 317.66,10.18 320.66,12.91C323.81,15.77 327.07,18.73 333.59,18.73C340.1,18.73 343.37,15.77 346.52,12.91C349.52,10.18 352.36,7.6 358.1,7.6C363.84,7.6 366.68,10.18 369.69,12.91C372.84,15.77 376.11,18.73 382.62,18.73C388.3,18.73 393.44,15.19 397.98,12.06C404.32,7.7 408.06,5.43 411.36,9.52C416.38,15.75 412.71,20.17 408.05,25.76C404.25,30.32 399.95,35.49 399.95,42.58C399.95,50.54 403.21,54.54 406.36,58.42C409.43,62.19 412.32,65.75 412.32,72.99C412.32,80.24 409.42,83.8 406.36,87.56C403.21,91.43 399.95,95.44 399.95,103.4C399.95,111.36 403.21,115.36 406.36,119.24C409.43,123.01 412.32,126.57 412.32,133.81C412.32,141.05 409.42,144.62 406.36,148.38C403.21,152.25 399.95,156.26 399.95,164.22C399.95,172.18 403.21,176.18 406.36,180.06C409.43,183.83 412.32,187.39 412.32,194.63C412.32,201.88 409.42,205.44 406.36,209.21C403.21,213.08 399.95,217.09 399.95,225.05C399.95,233.01 403.21,237.01 406.36,240.89C409.43,244.66 412.32,248.22 412.32,255.47C412.32,262.72 409.42,266.28 406.36,270.04C403.21,273.91 399.95,277.92 399.95,285.87C399.95,293.83 403.21,297.83 406.36,301.71C409.43,305.48 412.32,309.04 412.32,316.28C412.32,323.53 409.42,327.09 406.36,330.86C403.21,334.73 399.95,338.74 399.95,346.7C399.95,354.66 403.21,358.66 406.36,362.54C409.43,366.31 412.32,369.87 412.32,377.12C412.32,384.37 409.42,387.93 406.36,391.7C403.21,395.57 399.95,399.58 399.95,407.54C399.95,415.5 403.21,419.5 406.36,423.38C409.43,427.15 412.32,430.71 412.32,437.96C412.32,445.21 409.42,448.77 406.36,452.54C403.21,456.41 399.95,460.42 399.95,468.38C399.95,475.46 404.26,480.64 408.05,485.2C412.71,490.75 416.38,495.17 411.36,501.4ZM343.42,154.99L343.23,154.99C339.81,154.99 337.02,157.77 337.02,161.2L337.02,179.69C337.02,180.24 337.47,180.69 338.02,180.69L348.62,180.69C349.17,180.69 349.62,180.24 349.62,179.69L349.62,161.2C349.62,157.77 346.84,154.99 343.42,154.99ZM347.63,178.69L339.02,178.69L339.02,161.2C339.02,158.88 340.91,156.99 343.23,156.99L343.42,156.99C345.74,156.99 347.63,158.88 347.63,161.2L347.63,178.69ZM270.26,154.89L270.26,147.83C270.26,147.28 269.81,146.83 269.26,146.83L262.2,146.83C261.65,146.83 261.2,147.28 261.2,147.83L261.2,154.89C261.2,155.44 261.65,155.89 262.2,155.89L269.26,155.89C269.81,155.89 270.26,155.44 270.26,154.89ZM268.26,153.89L263.2,153.89L263.2,148.83L268.26,148.83L268.26,153.89ZM166.86,167.16L166.73,167.16C164.25,167.16 162.22,169.18 162.22,171.67L162.22,178.53C162.22,179.08 162.67,179.53 163.22,179.53L170.36,179.53C170.91,179.53 171.36,179.08 171.36,178.53L171.36,171.67C171.36,169.18 169.34,167.16 166.86,167.16ZM169.37,177.52L164.22,177.52L164.22,171.66C164.22,170.28 165.34,169.15 166.73,169.15L166.86,169.15C168.24,169.15 169.37,170.27 169.37,171.66L169.37,177.52ZM122.44,167.16L122.31,167.16C119.83,167.16 117.8,169.18 117.8,171.67L117.8,178.53C117.8,179.08 118.25,179.53 118.8,179.53L125.94,179.53C126.49,179.53 126.94,179.08 126.94,178.53L126.94,171.67C126.95,169.18 124.92,167.16 122.44,167.16ZM124.96,177.52L119.81,177.52L119.81,171.66C119.81,170.28 120.93,169.15 122.32,169.15L122.45,169.15C123.83,169.15 124.96,170.27 124.96,171.66L124.96,177.52ZM377.56,261.53L377.56,49.95C377.56,49.4 377.11,48.95 376.56,48.95L45.53,48.95C44.98,48.95 44.53,49.4 44.53,49.95L44.53,461.46C44.53,462.01 44.98,462.46 45.53,462.46L376.57,462.46C377.12,462.46 377.57,462.01 377.57,461.46L377.57,261.53L377.56,261.53ZM366.22,265.07C363.77,261.55 361.02,258.12 358.03,254.83C358.05,254.81 358.07,254.8 358.09,254.79C358.1,254.78 358.11,254.77 358.12,254.76C358.28,254.61 358.44,254.44 358.63,254.21C358.64,254.2 358.65,254.2 358.65,254.19C358.67,254.17 358.68,254.15 358.7,254.13C358.86,253.93 359.01,253.72 359.17,253.49L359.17,253.48C359.17,253.48 359.17,253.47 359.18,253.47L359.18,253.46C359.2,253.44 359.22,253.4 359.24,253.38C359.34,253.24 359.44,253.09 359.54,252.94C359.54,252.93 359.55,252.92 359.55,252.92L359.64,252.78L359.75,252.62C359.81,252.53 359.87,252.44 359.93,252.35L360.12,252.07C360.28,251.83 360.45,251.59 360.65,251.33C360.66,251.32 360.66,251.31 360.67,251.3L360.67,251.29L360.68,251.3L360.79,251.16C360.9,251.01 361.01,250.87 361.13,250.72L361.37,250.44C361.55,250.22 361.75,249.99 361.97,249.76C362.08,249.64 362.2,249.52 362.32,249.39C362.45,249.26 362.58,249.13 362.72,248.99C362.88,248.84 363.05,248.68 363.22,248.52L363.23,248.51L363.53,248.23C363.75,248.04 363.87,247.77 363.87,247.48L363.87,245.75C366.73,245.32 369.19,244.56 370.23,244.2C371.96,245.41 373.76,245.82 375.54,245.42L375.54,260.93L374.78,261.27L366.22,265.07ZM315.14,233.86C314.87,233.61 314.47,233.53 314.12,233.66C314.01,233.7 303.63,237.44 299.22,233.52C297.17,231.69 296.71,228.34 297.86,223.56C297.9,223.41 297.9,223.24 297.86,223.09C297.86,223.08 297.7,222.42 297.59,221.44L297.59,221.43C297.57,221.27 297.55,221.1 297.54,220.92L297.37,220.94C297.34,220.91 297.32,220.87 297.29,220.84L297.53,220.79C297.51,220.59 297.5,220.38 297.49,220.17L297.48,219.98C297.47,219.8 297.47,219.61 297.47,219.41L297.47,219.25C297.47,219.03 297.48,218.8 297.5,218.56L297.52,218.33C297.54,218.12 297.56,217.91 297.59,217.7L296.6,217.57L297.61,217.56C297.64,217.34 297.69,217.11 297.73,216.9L297.78,216.68C297.84,216.45 297.9,216.22 297.98,215.99L298.02,215.88C298.09,215.69 298.16,215.5 298.25,215.31L298.33,215.13C298.43,214.92 298.54,214.72 298.66,214.53L297.82,213.99L298.75,214.41C298.86,214.25 298.98,214.09 299.1,213.95L299.21,213.82C299.37,213.65 299.54,213.49 299.72,213.34L299.09,212.57L299.85,213.25C300.02,213.12 300.2,213 300.39,212.89C300.4,212.89 300.51,212.82 300.51,212.82C300.73,212.7 300.98,212.59 301.26,212.5L301.46,212.44C301.72,212.36 302,212.29 302.29,212.23L302.41,212.2C302.72,212.15 303.07,212.11 303.49,212.09L303.77,212.08C304.24,212.07 304.65,212.08 305.06,212.11C305.54,212.16 306.01,211.81 306.12,211.32C306.13,211.25 307.57,204.74 311.41,202.97C313,202.23 314.79,202.42 316.86,203.53C317.22,203.73 317.67,203.68 317.98,203.41C318.1,203.31 329.72,193.59 337.62,198.48C337.92,198.66 338.3,198.64 338.61,198.48C338.92,198.32 339.13,197.97 339.15,197.62L338.19,197.56L339.16,197.52L339.27,196.96C339.3,196.86 339.33,196.76 339.39,196.56L339.47,196.35C339.47,196.34 339.48,196.33 339.48,196.32C339.59,196.06 339.72,195.8 339.88,195.56C340.08,195.26 340.29,195 340.57,194.74C340.64,194.68 340.72,194.61 340.79,194.55L340.91,194.45C340.98,194.4 341.05,194.34 341.14,194.29L341.29,194.2C341.29,194.2 341.4,194.13 341.41,194.13L341.55,194.05C341.69,193.98 341.84,193.91 342,193.84L342.1,193.8C342.1,193.8 342.2,193.77 342.2,193.76C342.32,193.72 342.44,193.67 342.57,193.64L342.8,193.58C342.95,193.54 343.1,193.51 343.25,193.48L343.35,193.46L343.46,193.44C343.96,193.36 344.51,193.32 345.09,193.33L345.31,193.34C345.56,193.35 345.82,193.36 346.09,193.39L346.34,193.41C346.66,193.44 346.98,193.49 347.33,193.55L347.5,192.56L347.45,193.56C347.85,193.63 348.27,193.72 348.71,193.82L348.94,192.85L348.87,193.87C349.24,193.96 349.63,194.07 350.04,194.18L350.41,194.29C350.77,194.4 351.15,194.52 351.54,194.66L351.93,194.8C352.45,194.99 352.98,195.19 353.53,195.41C353.82,195.53 354.15,195.5 354.41,195.35C354.53,195.28 366.03,188.61 372.23,194.59C372.57,194.92 373.08,194.96 373.47,194.71C373.48,194.7 374.32,194.16 375.54,193.55L375.54,243.34C374.04,243.85 372.56,243.51 371.02,242.29C370.74,242.07 370.38,242.01 370.05,242.14C370.02,242.15 367.25,243.19 363.88,243.72L363.88,236.18C363.88,235.68 363.52,235.26 363.02,235.19C362.91,235.17 352.27,233.61 344.93,230.86C344.56,230.72 344.21,230.61 343.87,230.51C342.04,229.94 340.41,229.74 339.03,229.92C335.57,230.38 334.7,232.94 334.66,233.05C334.6,233.23 334.59,233.43 334.64,233.61L334.85,234.39L335.05,235.17L337.51,244.58C337.54,244.7 337.59,244.81 337.67,244.91C337.71,244.97 337.79,245.05 337.84,245.12C332.7,245.91 329.3,245.44 328.19,243.77C328.01,243.5 327.72,243.34 327.4,243.32C327.31,243.32 318.79,242.92 316.01,239.11C315.15,237.93 314.95,236.54 315.41,234.87C315.53,234.5 315.42,234.11 315.14,233.86ZM203.35,210.85L213.31,209.2L223.27,210.85L225.36,211.2L225.36,214.42C225.36,215.58 223.86,216.79 221.55,217.5L219.34,218.18C215.39,219.39 211.22,219.39 207.26,218.18L205.05,217.5C202.74,216.79 201.24,215.58 201.24,214.42L201.24,211.2L203.35,210.85ZM222.44,208.68L213.48,207.19C213.37,207.17 213.26,207.17 213.15,207.19L204.19,208.67L204.19,207.01L208.29,204.64L213.47,204.23L217.04,204.23C217.43,204.23 217.81,204.33 218.15,204.53L222.45,207.01L222.45,208.68L222.44,208.68ZM172.52,210.85L182.48,209.2L192.44,210.85L194.53,211.2L194.53,214.42C194.53,215.58 193.03,216.79 190.72,217.5L188.51,218.18C184.56,219.39 180.38,219.39 176.43,218.18L174.22,217.5C171.91,216.79 170.41,215.58 170.41,214.42L170.41,211.2L172.52,210.85ZM191.62,208.68L182.66,207.2C182.55,207.18 182.44,207.18 182.33,207.2L173.37,208.68L173.37,207.02L177.47,204.65L182.65,204.24L186.22,204.24C186.61,204.24 186.99,204.34 187.33,204.54L191.63,207.02L191.63,208.68L191.62,208.68ZM272.13,183.46L272.13,167.18L319.18,167.18L319.18,183.45L272.13,183.45L272.13,183.46ZM216.73,183.46L216.58,182.15L220.91,182.15C221.46,182.15 221.91,181.7 221.91,181.15L221.91,171.91C221.91,169.88 220.61,168.08 218.67,167.42C218.14,167.24 217.65,167.16 217.16,167.16L217.02,167.16C216.29,167.16 215.59,167.33 214.95,167.65L214.76,166L220.9,166C221.45,166 221.9,165.55 221.9,165L221.9,155.76C221.9,153.14 219.77,151.01 217.15,151.01L217.01,151.01C214.39,151.01 212.26,153.14 212.26,155.76L212.26,163.26C210.81,167.51 209.44,173.13 208.29,179.55C208.06,180.85 207.85,182.15 207.64,183.45L193.02,183.45L193.02,149.76L224.21,149.76L224.21,168.81C224.21,169.36 224.65,169.81 225.2,169.81C226.98,169.82 229.22,169.83 231.7,169.83C237.47,169.83 244.57,169.8 250.28,169.77C252.96,169.76 255.38,169.74 257.3,169.73L257.3,183.46L216.73,183.46ZM208.91,202.59C208.86,201.86 208.81,201.12 208.77,200.36C208.57,196.9 208.44,192.28 209.13,187.23C209.25,186.36 209.38,185.49 209.51,184.61C209.75,183.04 210.01,181.47 210.29,179.91C211.09,175.42 212.01,171.34 212.97,167.86L213.17,169.64L214.48,181.27L216.65,200.54L216.66,200.64L213.17,202.27L208.91,202.59ZM216.36,180.15L215.21,169.89C215.71,169.43 216.35,169.16 217.03,169.16L217.17,169.16C217.44,169.16 217.73,169.21 218.04,169.32C219.16,169.7 219.92,170.74 219.92,171.91L219.92,180.15L216.36,180.15ZM214.54,164L214.41,162.88C214.39,162.74 214.34,162.61 214.27,162.49L214.27,155.76C214.27,154.24 215.5,153.01 217.02,153.01L217.16,153.01C218.68,153.01 219.91,154.24 219.91,155.76L219.91,164L214.54,164ZM184.47,199.74L182.13,202.27L178.09,202.59C178.04,201.87 178,201.13 177.97,200.37C177.79,195.97 177.9,191.53 178.3,187.18C178.38,186.31 178.48,185.47 178.58,184.63L178.59,184.57C178.79,182.92 179.01,181.34 179.26,179.89C180,175.49 181.07,171.12 182.4,166.84L182.73,168.38C182.83,168.86 183.26,169.17 183.75,169.17C183.8,169.17 183.86,169.16 183.84,169.16L183.97,169.16C185.35,169.16 186.48,170.28 186.48,171.67L186.48,177.53L185.93,177.53C185.63,177.53 185.34,177.67 185.15,177.9C184.96,178.13 184.89,178.44 184.95,178.74L186.22,184.67L188.51,195.37L184.47,199.74ZM133.09,183.48L133.09,165.21L134.38,165.2C134.55,165.2 134.72,165.15 134.86,165.07L134.86,178.53C134.86,179.08 135.31,179.53 135.86,179.53L144.37,179.53C144.92,179.53 145.37,179.08 145.37,178.53L145.37,159.15C145.37,156.29 143.05,153.97 140.19,153.97L140.04,153.97C137.18,153.97 134.86,156.29 134.86,159.15L134.86,162.76L132.77,157.65C132.62,157.27 132.25,157.03 131.84,157.03L110.6,157.03L110.6,149.79L157.65,149.79L157.65,183.48L133.09,183.48ZM114.7,183.46C113.5,181.93 112.29,180.46 111.11,179.08L110.08,177.9C110,177.81 109.92,177.72 109.84,177.62L109.84,171.66C109.84,169.18 107.82,167.15 105.33,167.15L105.2,167.15C103.71,167.15 102.36,167.9 101.53,169.07C101.37,168.92 101.21,168.77 101.04,168.62C99.79,167.46 98.54,166.35 97.3,165.29C98.21,165.3 99.23,165.3 100.36,165.3L103.96,165.3C105.73,165.3 107.64,165.3 109.59,165.29C117.57,165.27 126.42,165.23 131.08,165.2L131.08,183.44L114.7,183.44L114.7,183.46ZM107.84,175.45C106.26,173.75 104.66,172.09 103.01,170.5C103.44,169.69 104.27,169.16 105.2,169.16L105.33,169.16C106.71,169.16 107.84,170.28 107.84,171.67L107.84,175.45ZM46.53,235.03C52.81,228.4 58.61,221.25 63.75,213.76C66.54,209.7 69.22,205.39 71.73,200.95L94.32,167.87L91.53,200.33C91.53,200.35 91.54,200.37 91.54,200.39C91.54,200.41 91.53,200.43 91.53,200.45C91.55,201.23 91.58,202.02 91.59,202.81C91.87,216.86 90.91,231.01 88.74,244.89L46.54,244.89L46.54,235.03L46.53,235.03ZM52.7,173.81L52.7,178.5L46.53,178.5L46.53,173.81L52.7,173.81ZM53.7,180.5C54.25,180.5 54.7,180.05 54.7,179.5L54.7,172.81C54.7,172.26 54.25,171.81 53.7,171.81L46.53,171.81L46.53,169.84L57.06,169.84L57.06,183.46L46.53,183.46L46.53,180.5L53.7,180.5ZM46.53,158.11L50.68,161.51L58.4,167.84L46.53,167.84L46.53,158.11ZM375.56,135.98L352.75,135.98L370.09,121.76L375.56,126.25L375.56,135.98ZM350.83,149.03L352.09,151.7L351.69,151.7C345,151.73 311.17,151.89 302.66,151.77C302.47,151.77 302.3,151.76 302.15,151.76L304.24,146.79L349.79,146.79L350.83,149.03ZM272.72,160.16L318.26,160.16L320.58,165.07C317.56,165.09 310.54,165.12 302.63,165.15C295.43,165.17 287.5,165.2 281.16,165.19C275.1,165.19 272.1,165.16 270.63,165.13L272.72,160.16ZM259.33,174.64C260.56,173.09 262.44,172.16 264.42,172.16L264.69,172.16C266.91,172.16 268.92,173.27 270.13,175.12L270.13,179.17L259.33,179.17L259.33,174.64ZM270.13,172.14C268.63,170.88 266.73,170.16 264.69,170.16L264.42,170.16C262.57,170.16 260.79,170.79 259.33,171.88L259.33,169.72L261.74,169.7C262.06,169.7 262.36,169.54 262.55,169.28C262.74,169.02 262.79,168.69 262.69,168.38L260.18,160.84C260.04,160.43 259.66,160.16 259.23,160.16L251.3,160.16L251.3,155.33C251.47,155.65 251.79,155.88 252.18,155.88L259.24,155.88C259.79,155.88 260.24,155.43 260.24,154.88L260.24,147.82C260.24,147.27 259.79,146.82 259.24,146.82L252.18,146.82C251.79,146.82 251.46,147.05 251.3,147.37L251.3,145.19C252.81,145.2 254.6,145.21 256.59,145.21C264.28,145.21 274.57,145.13 280.16,145.08L280.16,147.37C279.99,147.05 279.67,146.82 279.28,146.82L272.22,146.82C271.67,146.82 271.22,147.27 271.22,147.82L271.22,154.88C271.22,155.43 271.67,155.88 272.22,155.88L279.28,155.88C279.67,155.88 280,155.65 280.16,155.33L280.16,158.16L272.06,158.16C271.66,158.16 271.29,158.4 271.14,158.77L268.24,165.67C268.19,165.79 268.16,165.92 268.16,166.06C268.16,167.07 269.07,167.09 270.03,167.11L270.14,167.11L270.14,172.14L270.13,172.14ZM253.18,153.89L253.18,148.83L258.24,148.83L258.24,153.89L253.18,153.89ZM278.27,148.82L278.27,153.88L273.21,153.88L273.21,148.82L278.27,148.82ZM281.15,143.07C274.31,143.13 257.61,143.26 250.32,143.18C249.22,143.17 248.48,143.15 247.98,143.14L249.63,135.77L281.59,135.77L283.42,143.06L281.15,143.07ZM226.23,162.16L258.5,162.16L260.35,167.71L258.32,167.72C256.28,167.73 253.47,167.75 250.29,167.77C242.56,167.81 232.32,167.85 226.23,167.82L226.23,162.16ZM227.46,147.77L189.84,147.77L208.65,135.43L227.46,147.77ZM191.05,163.22C188.87,163.23 186.02,163.25 182.87,163.26C182.75,163.26 182.64,163.3 182.53,163.34C182.42,163.3 182.29,163.26 182.17,163.26C175.01,163.29 165.49,163.32 159.65,163.29L159.65,159L191.05,159L191.05,163.22ZM109.6,159.01L131.18,159.01L132.89,163.2L132.09,163.2C127.8,163.22 118.19,163.27 109.6,163.29C106.24,163.3 103.04,163.3 100.37,163.29C98.44,163.29 96.79,163.28 95.57,163.26L94.9,163.25C94.84,163.2 94.79,163.16 94.73,163.11L96.23,158.99L109.6,158.99L109.6,159.01ZM99.37,153.28L99.37,157.01L95.53,157.01C95.11,157.01 94.73,157.27 94.59,157.67L92.61,163.11C92.46,163.51 92.59,163.96 92.92,164.23C93.23,164.48 93.54,164.73 93.86,164.99L81.03,183.79L59.07,183.47L59.07,169.83L61.21,169.83C61.63,169.83 62.01,169.56 62.15,169.17C62.29,168.77 62.17,168.33 61.84,168.06L52.33,160.26L52.33,153.28L99.37,153.28ZM62.71,151.28C55.73,151.28 52.38,151.25 50.81,151.22L52.9,146.25L98.45,146.25L100.77,151.16C95.19,151.19 75.9,151.27 62.71,151.28ZM58.05,185.46L79.67,185.78L70.36,199.42L46.53,199.42L46.53,185.46L58.05,185.46ZM64.6,246.89L55.42,247.63C55.27,247.64 55.12,247.69 54.99,247.76L46.52,252.72L46.52,246.89L64.6,246.89ZM93.58,202.77C93.57,202.32 93.56,201.87 93.55,201.42L99.01,201.42C99.11,204.3 99.06,207.19 98.87,210.01C98.19,220.28 95.72,230.24 91.51,239.69C93.13,227.46 93.83,215.07 93.58,202.77ZM93.61,199.42L94.78,185.81L97.13,185.81L98.83,199.42L93.61,199.42ZM94.95,183.8L95.74,174.64L96.88,183.8L94.95,183.8ZM136.86,177.52L136.86,159.14C136.86,157.39 138.29,155.96 140.04,155.96L140.19,155.96C141.94,155.96 143.37,157.39 143.37,159.14L143.37,177.52L136.86,177.52ZM112.79,147.77L134.13,132.93L155.47,147.77L112.79,147.77ZM159.65,165.3C165.13,165.32 173.83,165.3 180.79,165.27C179.28,169.95 178.11,174.75 177.29,179.57C177.09,180.78 176.9,182.1 176.73,183.46L159.65,183.46L159.65,165.3ZM188,183.46L187.16,179.53L187.47,179.53C188.02,179.53 188.47,179.08 188.47,178.53L188.47,171.67C188.47,169.37 186.74,167.47 184.52,167.2L184.11,165.26C186.77,165.25 189.16,165.24 191.05,165.23L191.05,183.46L188,183.46ZM259.33,181.17L270.13,181.17L270.13,183.46L259.33,183.46L259.33,181.17ZM321.18,167.06C321.81,167.06 322.16,167.05 322.16,167.05C322.5,167.05 322.82,166.87 323,166.58C323.08,166.46 323.12,166.33 323.14,166.19L323.14,179.67C323.14,180.22 323.59,180.67 324.14,180.67L334.74,180.67C335.29,180.67 335.74,180.22 335.74,179.67L335.74,161.18C335.74,157.76 332.96,154.97 329.53,154.97L329.34,154.97C325.92,154.97 323.13,157.75 323.13,161.18L323.13,165.86C323.11,165.78 323.09,165.7 323.05,165.62L319.79,158.72C319.62,158.37 319.27,158.15 318.89,158.15L303.62,158.15L303.62,153.76C306.09,153.79 309.91,153.8 314.36,153.8C326.97,153.8 344.6,153.72 350.67,153.69L350.67,183.45L321.17,183.45L321.17,167.06L321.18,167.06ZM325.14,178.69L325.14,161.2C325.14,158.88 327.03,156.99 329.35,156.99L329.54,156.99C331.86,156.99 333.75,158.88 333.75,161.2L333.75,178.69L325.14,178.69ZM352.69,179.97C352.71,179.89 352.74,179.81 352.74,179.73L352.74,153.69L353.67,153.69C353.77,153.69 353.86,153.67 353.95,153.65L353.95,172.05C353.95,172.6 354.4,173.05 354.95,173.05L366.52,173.05C367.07,173.05 367.52,172.6 367.52,172.05L367.52,150.38C367.52,146.69 364.52,143.7 360.84,143.7L360.63,143.7C356.94,143.7 353.95,146.7 353.95,150.38L353.95,150.95L352.74,148.38L352.74,137.99L375.57,137.99L375.57,144.95L370.07,144.95C369.52,144.95 369.07,145.4 369.07,145.95L369.07,152.69C369.07,153.24 369.52,153.69 370.07,153.69L375.57,153.69L375.57,154.41L370.07,154.41C369.52,154.41 369.07,154.86 369.07,155.41L369.07,162.15C369.07,162.7 369.52,163.15 370.07,163.15L375.57,163.15L375.57,163.87L370.07,163.87C369.52,163.87 369.07,164.32 369.07,164.87L369.07,171.61C369.07,172.16 369.52,172.61 370.07,172.61L375.57,172.61L375.57,183.47L352.69,183.47L352.69,179.97ZM355.95,171.04L355.95,150.37C355.95,147.79 358.05,145.69 360.63,145.69L360.84,145.69C363.42,145.69 365.52,147.79 365.52,150.37L365.52,171.04L355.95,171.04ZM371.06,151.68L371.06,146.94L375.56,146.94L375.56,151.68L371.06,151.68ZM371.06,161.14L371.06,156.4L375.56,156.4L375.56,161.14L371.06,161.14ZM371.06,170.6L371.06,165.86L375.56,165.86L375.56,170.6L371.06,170.6ZM375.56,123.66L370.72,119.69C370.35,119.39 369.82,119.39 369.45,119.69L349.32,136.2C348.99,136.47 348.87,136.91 349.01,137.31C349.15,137.71 349.53,137.97 349.95,137.97L350.73,137.97L350.73,144.84C350.63,144.8 350.52,144.78 350.4,144.78L303.55,144.78C303.15,144.78 302.78,145.02 302.63,145.39L299.73,152.29C299.68,152.41 299.65,152.54 299.65,152.68C299.65,153.55 300.07,153.69 301.63,153.74L301.63,158.16L282.15,158.16L282.15,145.07L284.71,145.05C285.02,145.05 285.3,144.9 285.49,144.66C285.68,144.42 285.74,144.1 285.67,143.81L283.34,134.53C283.23,134.09 282.83,133.77 282.37,133.77L248.83,133.77C248.36,133.77 247.96,134.09 247.85,134.55L245.77,143.83C245.75,143.9 245.75,143.98 245.75,144.05C245.75,145.04 246.12,145.13 249.3,145.18L249.3,160.17L226.24,160.17L226.24,149.78L230.8,149.78C231.24,149.78 231.63,149.49 231.76,149.07C231.89,148.65 231.72,148.19 231.35,147.95L209.19,133.42C208.86,133.2 208.43,133.2 208.09,133.42L185.93,147.95C185.56,148.19 185.39,148.65 185.52,149.07C185.65,149.49 186.04,149.78 186.48,149.78L191.04,149.78L191.04,157.02L159.64,157.02L159.64,148.78C159.64,148.75 159.63,148.72 159.62,148.7C159.61,148.63 159.6,148.57 159.58,148.5C159.56,148.44 159.54,148.38 159.51,148.33C159.48,148.27 159.45,148.23 159.41,148.18C159.37,148.13 159.32,148.08 159.27,148.03C159.25,148.01 159.24,147.99 159.21,147.97L134.68,130.91C134.34,130.67 133.88,130.67 133.54,130.91L109.01,147.97C108.99,147.99 108.97,148.01 108.95,148.03C108.9,148.07 108.85,148.12 108.81,148.18C108.77,148.23 108.74,148.28 108.71,148.33C108.68,148.39 108.66,148.44 108.64,148.5C108.62,148.57 108.61,148.63 108.6,148.7C108.6,148.73 108.58,148.75 108.58,148.78L108.58,157.02L101.35,157.02L101.35,153.17C101.95,153.17 102.31,153.17 102.33,153.16C102.67,153.16 102.99,152.98 103.17,152.69C103.35,152.4 103.37,152.04 103.23,151.73L99.97,144.83C99.8,144.48 99.45,144.26 99.07,144.26L52.24,144.26C51.84,144.26 51.47,144.5 51.32,144.87L48.41,151.77C48.36,151.89 48.33,152.02 48.33,152.16C48.33,153.17 49.2,153.19 50.31,153.22L50.31,158.62L47.16,156.04C46.97,155.89 46.75,155.81 46.52,155.81L46.52,96.49L52.55,93.75C54.02,94.85 56.62,96.38 60.12,96.71C64.87,97.17 68.47,95.23 70.19,94.03C70.35,93.92 70.48,93.76 70.55,93.57C71.23,91.82 73.33,87.45 78.26,84.68C83.47,81.75 88.53,82.42 90.59,82.88C94.1,84.74 97.62,86.59 101.13,88.46C101.48,88.65 101.91,88.61 102.22,88.36C103.27,87.53 105.49,86.13 108.5,86.07L108.77,86.07C113.33,86.07 116.34,89.16 117.15,90.11C117.3,90.28 117.5,90.4 117.72,90.44C117.76,90.45 121.7,91.22 124.27,92.82C125.73,93.73 126.25,94.58 127.02,95.87C127.61,96.85 128.35,98.07 129.7,99.54C131.63,101.65 134.05,103.41 136.9,104.78C137.16,104.91 137.47,104.91 137.74,104.79C141.18,103.27 144.6,102.67 147.9,102.99C152.51,103.44 155.88,105.58 158.84,107.46C161.14,108.92 163.19,110.22 165.26,110.22C165.91,110.22 166.56,110.09 167.21,109.8C169.1,108.96 169.68,107.37 170.31,105.68C170.86,104.19 171.49,102.49 173.16,100.81C175.8,98.16 179.78,96.78 185,96.72C185.36,96.72 185.69,96.52 185.86,96.21C187.64,93.02 191.73,87.29 199.11,84.76C201.69,83.87 204.43,83.47 207.26,83.55C208.59,84.31 213.16,86.55 218.53,84.76C222.62,83.39 224.9,80.45 225.92,78.77C226.53,78.11 232.26,72.15 239.99,73.51C244.55,74.32 247.46,77.18 248.79,78.81C248.96,79.02 249.22,79.16 249.49,79.18C249.77,79.2 250.04,79.1 250.24,78.92C251.13,78.1 252.64,77.04 254.75,76.66C257.58,76.14 259.87,77.15 260.97,77.8C261.17,77.92 261.41,77.96 261.64,77.92C264.3,77.48 268.44,77.33 273.03,79.12C276.51,80.48 279.62,82.76 282.02,85.71C282.28,86.04 282.72,86.16 283.12,86.03C283.52,85.89 283.79,85.53 283.8,85.11C283.85,83.07 284.3,79.98 286.16,76.81C287.52,74.52 289.17,72.98 290.26,72.12C296.91,67.64 302.06,66.18 305.58,67.8C306.88,68.4 307.86,69.37 309,70.49C310.58,72.05 312.38,73.83 315.61,75.33C317.85,76.36 320.25,77.02 322.77,77.29C325.07,77.78 329.38,79.19 332.82,83.22C335.7,86.6 336.67,90.26 336.97,92.73C337.03,93.25 337.44,93.62 338.01,93.61C344.43,93.33 348.39,91.73 350.11,88.71C350.56,87.93 350.8,87.14 351.02,86.44C351.34,85.41 351.58,84.6 352.37,83.98C353.48,83.12 355.2,82.94 357.5,83.47L364.15,90.73L369.14,97.58C369.46,98.02 370.07,98.12 370.52,97.81C372.11,96.71 373.81,95.85 375.57,95.24L375.57,123.66L375.56,123.66ZM46.53,201.42L69.16,201.42C66.92,205.3 64.55,209.07 62.1,212.63C57.42,219.45 52.19,225.99 46.53,232.1L46.53,201.42ZM46.53,255.87L142.2,255.87L137.66,261.75C131.6,269.6 122.87,274.1 113.69,274.1L46.53,274.1L46.53,255.87ZM48.52,253.87L55.81,249.6L89.63,246.89L139.31,246.89L142.65,253.87L48.52,253.87ZM92.59,244.89C96.75,241.99 102.74,238.99 110.39,238.13C122.39,236.79 131.8,241.5 136.86,244.89L92.59,244.89ZM110.17,236.14C102.65,236.98 96.67,239.8 92.34,242.64C97.25,232.34 100.12,221.43 100.87,210.13C101.08,206.92 101.12,203.64 100.97,200.36C100.97,200.35 100.96,200.33 100.96,200.32L100.96,200.28L96.87,167.55C97.81,168.38 98.77,169.23 99.74,170.13C100.21,170.56 100.67,171 101.15,171.45C103.53,173.73 105.87,176.15 108.09,178.65L109.59,180.37C110.84,181.83 112.13,183.4 113.4,185.03L123.95,200.91C131.4,214.23 136.33,228.59 138.6,243.64C133.48,240.09 123.29,234.68 110.17,236.14ZM125.35,199.42L116.08,185.46L176.49,185.46C176.43,185.97 176.37,186.48 176.32,187C175.94,191.1 175.83,195.27 175.96,199.42L125.35,199.42ZM190.33,196.35C190.55,196.11 190.64,195.78 190.57,195.46L188.43,185.46L207.36,185.46C207.29,185.96 207.21,186.46 207.14,186.96C206.49,191.68 206.55,196.01 206.71,199.42L187.49,199.42L190.33,196.35ZM218.53,199.42L216.96,185.46L375.56,185.46L375.56,191.31C374.5,191.79 373.62,192.27 373.06,192.6C366.41,187.04 356.12,192.12 353.85,193.36C353.43,193.19 353.02,193.04 352.62,192.9L352.2,192.76C351.79,192.62 351.39,192.49 351,192.37L350.6,192.25C350.17,192.12 349.75,192.01 349.29,191.9C349.28,191.9 349.18,191.87 349.17,191.87C348.69,191.76 348.23,191.66 347.79,191.59L347.62,192.58L347.66,191.58C347.28,191.52 346.91,191.47 346.56,191.43L346.27,191.4C345.96,191.37 345.66,191.35 345.29,191.34L345.12,191.33C344.41,191.32 343.76,191.36 343.15,191.46L342.88,191.51C342.68,191.55 342.48,191.59 342.3,191.64C342.2,191.67 342.1,191.69 342,191.72C341.83,191.77 341.67,191.82 341.43,191.91C341.36,191.93 341.3,191.96 341.23,191.98C341.01,192.07 340.8,192.17 340.61,192.27C340.52,192.32 340.44,192.36 340.36,192.41L340.88,193.27L340.26,192.48C340.18,192.53 340.1,192.58 340.03,192.62C339.91,192.7 339.81,192.77 339.7,192.85L339.52,192.99C339.41,193.08 339.3,193.17 339.15,193.31C338.94,193.51 338.74,193.73 338.56,193.96L319.15,187.27C318.89,187.18 318.61,187.2 318.36,187.33L282.62,205.8C282.34,205.94 282.15,206.2 282.09,206.51C282.04,206.82 282.12,207.13 282.33,207.36L287.19,212.74C269.56,206.91 249.93,202.43 228.72,199.45C228.67,199.44 228.63,199.44 228.58,199.44L218.53,199.44L218.53,199.42ZM291.26,214.19L284.73,206.96L318.94,189.28L337.58,195.7C337.56,195.75 337.54,195.8 337.52,195.85L337.48,195.98C337.47,196.02 337.46,196.05 337.44,196.09C329.45,192.45 319.59,199.56 317.21,201.44C314.81,200.3 312.58,200.2 310.57,201.13C306.72,202.92 304.95,208.02 304.38,210.05L303.73,210.05L303.4,210.06C302.9,210.08 302.47,210.13 302.07,210.2L301.93,210.23C301.57,210.3 301.22,210.39 300.8,210.52L300.6,210.59C300.23,210.72 299.89,210.87 299.59,211.03C299.54,211.06 299.49,211.09 299.41,211.14C299.14,211.29 298.89,211.46 298.61,211.67L298.47,211.78C298.22,211.99 297.98,212.21 297.76,212.45L297.6,212.63C297.42,212.84 297.25,213.05 297.08,213.31L296.99,213.44C296.82,213.7 296.68,213.97 296.54,214.25L296.44,214.48C296.33,214.72 296.23,214.97 296.14,215.24C296.13,215.25 296.1,215.34 296.1,215.36C296.01,215.64 295.93,215.92 295.86,216.22L295.8,216.48C295.74,216.74 295.69,217.01 295.65,217.27L295.63,217.44C295.6,217.69 295.57,217.93 295.55,218.18L295.53,218.44C295.52,218.59 295.52,218.74 295.51,218.89L291.26,214.19ZM340.1,244.59C340.09,244.58 340.08,244.57 340.08,244.57C339.74,244.22 339.54,244 339.42,243.86L337.01,234.65L336.69,233.43C336.94,233 337.65,232.09 339.31,231.87C340.39,231.73 341.74,231.9 343.29,232.38C343.44,232.43 343.61,232.49 343.77,232.54C343.93,232.59 344.08,232.64 344.25,232.7C350.65,235.1 359.18,236.58 361.9,237.01L361.9,247C361.71,247.17 361.53,247.34 361.35,247.51C361.2,247.66 361.05,247.8 360.91,247.95C360.77,248.09 360.64,248.23 360.52,248.36C360.28,248.62 360.06,248.87 359.86,249.11L359.6,249.42C359.47,249.59 359.34,249.75 359.22,249.91L359.07,250.11C358.88,250.37 358.7,250.62 358.54,250.86C358.53,250.88 358.51,250.89 358.5,250.91L358.12,251.48L357.94,251.74L357.91,251.79C357.9,251.8 357.89,251.81 357.89,251.82C357.89,251.83 357.88,251.83 357.88,251.84C357.83,251.91 357.79,251.97 357.75,252.04C357.69,252.13 357.62,252.23 357.56,252.32C357.47,252.45 357.38,252.56 357.29,252.68C357.27,252.71 357.25,252.74 357.23,252.76C357.2,252.8 357.16,252.86 357.13,252.9C357.11,252.92 357.11,252.94 357.1,252.96L357.09,252.95C357,253.05 356.91,253.15 356.82,253.24C356.81,253.25 356.8,253.26 356.79,253.27C356.71,253.34 356.63,253.4 356.47,253.5C356.4,253.54 356.32,253.57 356.2,253.62C355.51,253.84 354.32,253.66 352.46,253.05C348.36,251.74 342.41,246.91 340.1,244.59ZM46.51,50.95L375.57,50.95L375.57,93.11C373.7,93.69 371.9,94.53 370.2,95.62L365.74,89.5C365.72,89.47 365.7,89.44 365.67,89.41L358.78,81.88C358.65,81.73 358.47,81.63 358.28,81.58C355.22,80.82 352.82,81.09 351.15,82.39C349.87,83.4 349.47,84.7 349.12,85.84C348.92,86.49 348.73,87.11 348.39,87.7C347.13,89.91 343.92,91.2 338.84,91.54C338.38,88.85 337.22,85.26 334.36,81.9C330.51,77.39 325.68,75.83 323.15,75.3C323.12,75.29 323.08,75.29 323.05,75.28C320.74,75.04 318.52,74.44 316.47,73.49C313.55,72.14 311.89,70.49 310.42,69.05C309.2,67.85 308.05,66.71 306.43,65.97C302.18,64.01 296.52,65.48 289.1,70.49C287.82,71.49 285.98,73.22 284.46,75.78C283.01,78.25 282.33,80.67 282.03,82.69C279.68,80.31 276.87,78.45 273.78,77.25C268.97,75.37 264.61,75.45 261.69,75.89C260.25,75.12 257.63,74.11 254.42,74.69C252.38,75.06 250.81,75.94 249.7,76.79C247.99,74.92 244.89,72.36 240.36,71.55C231.09,69.92 224.65,77.22 224.38,77.53C224.34,77.58 224.3,77.62 224.27,77.68C223.42,79.11 221.47,81.69 217.92,82.88C213.01,84.52 208.88,82.2 208.1,81.72C207.95,81.63 207.79,81.58 207.61,81.57C204.43,81.44 201.36,81.88 198.47,82.88C190.83,85.5 186.46,91.24 184.41,94.75C178.93,94.91 174.67,96.48 171.75,99.42C169.77,101.42 169.04,103.41 168.45,105.01C167.85,106.64 167.48,107.52 166.42,107.99C164.73,108.74 162.94,107.7 159.92,105.79C156.92,103.89 153.19,101.52 148.1,101.02C147.46,100.96 146.81,100.92 146.16,100.92C143.27,100.92 140.33,101.54 137.37,102.79C134.93,101.56 132.85,100.02 131.18,98.2C129.96,96.87 129.31,95.8 128.74,94.85C127.92,93.48 127.2,92.3 125.33,91.14C122.88,89.62 119.51,88.8 118.43,88.57C117.22,87.24 113.81,84.1 108.76,84.1L108.47,84.1C105.31,84.17 102.9,85.45 101.51,86.43C98.14,84.64 94.78,82.86 91.41,81.09C91.33,81.05 91.25,81.02 91.17,81C88.97,80.48 83.21,79.65 77.28,82.98C72.05,85.92 69.67,90.49 68.8,92.6C67.22,93.65 64.22,95.14 60.31,94.77C56.91,94.44 54.47,92.81 53.32,91.86C53.03,91.62 52.62,91.56 52.27,91.72L46.51,94.34L46.51,50.95ZM46.53,276.1L113.69,276.1C123.49,276.1 132.81,271.31 139.25,262.97L145.03,255.48C145.06,255.45 145.06,255.41 145.08,255.37C145.11,255.32 145.14,255.28 145.16,255.23C145.17,255.21 145.17,255.18 145.18,255.16C145.2,255.1 145.2,255.05 145.21,254.99C145.22,254.95 145.23,254.91 145.23,254.87L145.23,254.85C145.23,254.83 145.23,254.81 145.22,254.78C145.21,254.72 145.19,254.66 145.18,254.6C145.17,254.55 145.16,254.5 145.14,254.45C145.14,254.44 145.14,254.43 145.13,254.43L140.9,245.59C138.82,230.05 133.98,215.19 126.5,201.41L176.01,201.41C176.04,201.99 176.07,202.55 176.11,203.11L171.85,205.57C171.54,205.75 171.35,206.08 171.35,206.44L171.35,209.01L169.26,209.36C168.78,209.44 168.42,209.86 168.42,210.35L168.42,214.42C168.42,216.54 170.37,218.41 173.64,219.42L175.85,220.1C178.02,220.77 180.25,221.1 182.48,221.1C184.71,221.1 186.94,220.77 189.11,220.1L191.32,219.42C194.59,218.41 196.54,216.55 196.54,214.42L196.54,210.35C196.54,209.86 196.19,209.44 195.7,209.36L193.61,209.01L193.61,206.44C193.61,206.08 193.42,205.75 193.11,205.57L188.31,202.8C187.67,202.43 186.94,202.24 186.2,202.24L184.88,202.24L185.64,201.42L206.82,201.42C206.86,202 206.89,202.56 206.93,203.12L202.67,205.58C202.36,205.76 202.17,206.09 202.17,206.45L202.17,209.02L200.08,209.37C199.6,209.45 199.24,209.87 199.24,210.36L199.24,214.43C199.24,216.55 201.19,218.42 204.46,219.43L206.67,220.11C208.84,220.78 211.07,221.11 213.3,221.11C215.53,221.11 217.76,220.78 219.93,220.11L222.14,219.43C225.41,218.42 227.36,216.56 227.36,214.43L227.36,210.36C227.36,209.87 227.01,209.45 226.52,209.37L224.43,209.02L224.43,206.45C224.43,206.09 224.24,205.76 223.93,205.58L219.13,202.81C218.71,202.57 218.24,202.41 217.76,202.32L218.14,202.14C218.44,202 218.64,201.73 218.7,201.42L228.54,201.42C250.95,204.58 271.6,209.39 289.94,215.73L295.65,222.05C295.73,222.61 295.81,223.06 295.86,223.31C294.6,228.75 295.28,232.68 297.89,235.01C302.05,238.71 309.83,237.03 313.2,236.05C313.1,237.62 313.5,239.03 314.41,240.28C317.37,244.33 324.86,245.14 326.85,245.28C328.09,246.76 330.28,247.5 333.48,247.5C335.2,247.5 337.24,247.28 339.56,246.85C342.26,249.33 347.68,253.63 351.82,254.99C353.39,255.5 354.55,255.75 355.49,255.75C355.71,255.75 355.92,255.73 356.12,255.71C359.13,258.98 361.89,262.41 364.35,265.92L352.99,270.99C352.88,271.04 352.78,271.1 352.7,271.19L318.13,304.86L273.57,320.78L227.77,340.7C227.62,340.77 227.49,340.87 227.38,341L209,364.28L185.47,366.68C185.17,366.71 184.91,366.87 184.74,367.12L165.21,396.3L163.17,396.13L135.29,394.51C135.05,394.5 134.82,394.57 134.63,394.71L108.74,414.18C108.65,414.25 108.57,414.34 108.5,414.44L78.7,460.48L46.53,460.48L46.53,276.1ZM335.75,460.45L242.54,460.45L223.74,427.45C223.71,427.41 223.69,427.36 223.65,427.32L201.74,399.72C201.57,399.51 201.32,399.37 201.04,399.35L167.49,396.48L186.15,368.61L209.61,366.21L209.63,366.21L223.04,364.84L242.61,384.73C242.78,384.91 243.01,385.01 243.26,385.03L282.72,387.53L308.29,412.51L337.83,452.51L335.75,460.45ZM165.64,398.32L200.45,401.3L222.04,428.5L240.24,460.45L81.1,460.45L110.1,415.64L135.56,396.49L163.05,398.09L165.64,398.32ZM337.81,460.45L339.89,452.53C339.97,452.24 339.91,451.93 339.73,451.68L309.85,411.23C309.82,411.19 309.78,411.15 309.74,411.11L283.85,385.82C283.68,385.65 283.45,385.55 283.21,385.54L243.77,383.04L224.13,363.08C223.92,362.86 223.62,362.76 223.32,362.79L211.78,363.97L228.8,342.41L274.31,322.62L319.01,306.65C319.15,306.6 319.27,306.53 319.37,306.43L353.97,272.74L375.56,263.09L375.56,460.45L337.81,460.45ZM284.42,170.06L277.87,170.06C277.32,170.06 276.87,170.51 276.87,171.06L276.87,177.61C276.87,178.16 277.32,178.61 277.87,178.61L284.42,178.61C284.97,178.61 285.42,178.16 285.42,177.61L285.42,171.06C285.42,170.51 284.98,170.06 284.42,170.06ZM283.42,176.61L278.87,176.61L278.87,172.06L283.42,172.06L283.42,176.61ZM294.67,170.06L288.12,170.06C287.57,170.06 287.12,170.51 287.12,171.06L287.12,177.61C287.12,178.16 287.57,178.61 288.12,178.61L294.67,178.61C295.22,178.61 295.67,178.16 295.67,177.61L295.67,171.06C295.67,170.51 295.22,170.06 294.67,170.06ZM293.67,176.61L289.12,176.61L289.12,172.06L293.67,172.06L293.67,176.61ZM304.92,170.06L298.37,170.06C297.82,170.06 297.37,170.51 297.37,171.06L297.37,177.61C297.37,178.16 297.82,178.61 298.37,178.61L304.92,178.61C305.47,178.61 305.92,178.16 305.92,177.61L305.92,171.06C305.92,170.51 305.47,170.06 304.92,170.06ZM303.92,176.61L299.37,176.61L299.37,172.06L303.92,172.06L303.92,176.61ZM315.17,170.06L308.62,170.06C308.07,170.06 307.62,170.51 307.62,171.06L307.62,177.61C307.62,178.16 308.07,178.61 308.62,178.61L315.17,178.61C315.72,178.61 316.17,178.16 316.17,177.61L316.17,171.06C316.17,170.51 315.72,170.06 315.17,170.06ZM314.17,176.61L309.62,176.61L309.62,172.06L314.17,172.06L314.17,176.61ZM73.77,164.23L80.44,164.23C80.99,164.23 81.44,163.78 81.44,163.23L81.44,156.56C81.44,156.01 80.99,155.56 80.44,155.56L73.77,155.56C73.22,155.56 72.77,156.01 72.77,156.56L72.77,163.23C72.77,163.78 73.22,164.23 73.77,164.23ZM74.77,157.55L79.44,157.55L79.44,162.22L74.77,162.22L74.77,157.55ZM62,156.55L62,163.22C62,163.77 62.45,164.22 63,164.22L69.67,164.22C70.22,164.22 70.67,163.77 70.67,163.22L70.67,156.55C70.67,156 70.22,155.55 69.67,155.55L63,155.55C62.44,155.55 62,156 62,156.55ZM64,157.55L68.67,157.55L68.67,162.22L64,162.22L64,157.55ZM73.59,177.68L80.26,177.68C80.81,177.68 81.26,177.23 81.26,176.68L81.26,170.01C81.26,169.46 80.81,169.01 80.26,169.01L73.59,169.01C73.04,169.01 72.59,169.46 72.59,170.01L72.59,176.68C72.59,177.23 73.04,177.68 73.59,177.68ZM74.59,171L79.26,171L79.26,175.67L74.59,175.67L74.59,171ZM201.45,151.01L201.31,151.01C198.69,151.01 196.56,153.14 196.56,155.76L196.56,165C196.56,165.55 197.01,166 197.56,166L205.19,166C205.74,166 206.19,165.55 206.19,165L206.19,155.76C206.2,153.14 204.07,151.01 201.45,151.01ZM204.21,164L198.57,164L198.57,155.76C198.57,154.24 199.8,153.01 201.32,153.01L201.46,153.01C202.98,153.01 204.21,154.24 204.21,155.76L204.21,164ZM201.45,167.16L201.31,167.16C198.69,167.16 196.56,169.29 196.56,171.91L196.56,181.15C196.56,181.7 197.01,182.15 197.56,182.15L205.19,182.15C205.74,182.15 206.19,181.7 206.19,181.15L206.19,171.91C206.2,169.29 204.07,167.16 201.45,167.16ZM204.21,180.15L198.57,180.15L198.57,171.91C198.57,170.39 199.8,169.16 201.32,169.16L201.46,169.16C202.98,169.16 204.21,170.39 204.21,171.91L204.21,180.15ZM239.8,172.5L234.25,172.5C233.7,172.5 233.25,172.95 233.25,173.5L233.25,179.05C233.25,179.6 233.7,180.05 234.25,180.05L239.8,180.05C240.35,180.05 240.8,179.6 240.8,179.05L240.8,173.5C240.8,172.95 240.35,172.5 239.8,172.5ZM238.8,178.05L235.25,178.05L235.25,174.5L238.8,174.5L238.8,178.05ZM255.66,172.5L250.11,172.5C249.56,172.5 249.11,172.95 249.11,173.5L249.11,179.05C249.11,179.6 249.56,180.05 250.11,180.05L255.66,180.05C256.21,180.05 256.66,179.6 256.66,179.05L256.66,173.5C256.66,172.95 256.22,172.5 255.66,172.5ZM254.66,178.05L251.11,178.05L251.11,174.5L254.66,174.5L254.66,178.05ZM247.73,172.5L242.18,172.5C241.63,172.5 241.18,172.95 241.18,173.5L241.18,179.05C241.18,179.6 241.63,180.05 242.18,180.05L247.73,180.05C248.28,180.05 248.73,179.6 248.73,179.05L248.73,173.5C248.73,172.95 248.29,172.5 247.73,172.5ZM246.73,178.05L243.18,178.05L243.18,174.5L246.73,174.5L246.73,178.05ZM231.87,172.5L226.32,172.5C225.77,172.5 225.32,172.95 225.32,173.5L225.32,179.05C225.32,179.6 225.77,180.05 226.32,180.05L231.87,180.05C232.42,180.05 232.87,179.6 232.87,179.05L232.87,173.5C232.87,172.95 232.42,172.5 231.87,172.5ZM230.87,178.05L227.32,178.05L227.32,174.5L230.87,174.5L230.87,178.05ZM151.16,153.96L151.01,153.96C148.15,153.96 145.83,156.28 145.83,159.14L145.83,178.52C145.83,179.07 146.28,179.52 146.83,179.52L155.34,179.52C155.89,179.52 156.34,179.07 156.34,178.52L156.34,159.14C156.34,156.29 154.02,153.96 151.16,153.96ZM154.34,177.52L147.83,177.52L147.83,159.14C147.83,157.39 149.26,155.96 151.01,155.96L151.16,155.96C152.91,155.96 154.34,157.39 154.34,159.14L154.34,177.52ZM125.71,150.39L116.48,150.39C113.67,150.39 111.39,152.67 111.39,155.48L111.39,155.55C111.39,156.1 111.84,156.55 112.39,156.55L129.8,156.55C130.35,156.55 130.8,156.03 130.8,155.48C130.8,152.67 128.51,150.39 125.71,150.39ZM113.53,154.56C113.92,153.31 115.1,152.4 116.48,152.4L125.71,152.4C127.08,152.4 128.24,153.29 128.65,154.56L113.53,154.56Z" style="fill:rgb(42,26,31);fill-rule:nonzero;"/>
    </g>
</svg>
