<?xml version="1.0" encoding="UTF-8"?><svg xmlns="http://www.w3.org/2000/svg" xmlns:xlink="http://www.w3.org/1999/xlink" height="511.0" preserveAspectRatio="xMidYMid meet" version="1.0" viewBox="-6.3 -5.7 422.0 511.0" width="422.0" zoomAndPan="magnify"><g id="change1_1"><path d="M405.84,496.33c-7.19,8.93-17.26-8.83-29.52-8.83c-12.25,0-12.25,11.13-24.51,11.13 c-12.25,0-12.25-11.13-24.51-11.13c-12.25,0-12.25,11.13-24.51,11.13c-12.25,0-12.25-11.13-24.51-11.13 c-12.25,0-12.25,11.13-24.51,11.13c-12.26,0-12.26-11.13-24.51-11.13c-12.25,0-12.25,11.13-24.51,11.13 c-12.25,0-12.25-11.13-24.51-11.13c-12.25,0-12.25,11.13-24.51,11.13c-12.26,0-12.26-11.13-24.51-11.13 c-12.26,0-12.26,11.13-24.51,11.13c-12.26,0-12.26-11.13-24.51-11.13c-12.26,0-12.26,11.13-24.51,11.13 c-12.26,0-14.46-13.98-26.24-10.91c-15.41,4.01-20.61,17.54-27.8,8.61c-9.92-12.31,11.19-18.47,11.19-33.68 c0-15.2-12.37-15.2-12.37-30.41c0-15.21,12.37-15.21,12.37-30.41c0-15.2-12.37-15.2-12.37-30.41c0-15.21,12.37-15.21,12.37-30.41 c0-15.21-12.37-15.21-12.37-30.41c0-15.21,12.37-15.21,12.37-30.41c0-15.21-12.37-15.21-12.37-30.41c0-15.2,12.37-15.2,12.37-30.41 c0-15.2-12.37-15.2-12.37-30.41c0-15.21,12.37-15.21,12.37-30.41c0-15.21-12.37-15.21-12.37-30.41c0-15.21,12.37-15.21,12.37-30.41 C14.85,82.5,2.47,82.5,2.47,67.3c0-15.21,12.37-15.21,12.37-30.42c0-15.21-21.12-21.37-11.19-33.68c7.19-8.93,17.26,8.83,29.52,8.83 c12.25,0,12.25-11.13,24.51-11.13c12.25,0,12.25,11.13,24.51,11.13c12.25,0,12.25-11.13,24.51-11.13 c12.25,0,12.25,11.13,24.51,11.13c12.25,0,12.25-11.13,24.51-11.13c12.26,0,12.26,11.13,24.51,11.13 c12.25,0,12.25-11.13,24.51-11.13c12.25,0,12.25,11.13,24.51,11.13c12.25,0,12.25-11.13,24.51-11.13 c12.26,0,12.26,11.13,24.51,11.13c12.26,0,12.26-11.13,24.51-11.13c12.26,0,12.26,11.13,24.51,11.13 c12.26,0,12.26-11.13,24.51-11.13c12.26,0,12.26,11.13,24.52,11.13s22.33-17.76,29.52-8.83c9.92,12.31-11.19,18.47-11.19,33.68 c0,15.2,12.37,15.2,12.37,30.41c0,15.21-12.37,15.21-12.37,30.41c0,15.2,12.37,15.2,12.37,30.41c0,15.21-12.37,15.21-12.37,30.41 c0,15.21,12.37,15.21,12.37,30.41c0,15.21-12.37,15.21-12.37,30.41c0,15.21,12.37,15.21,12.37,30.41c0,15.2-12.37,15.2-12.37,30.41 c0,15.2,12.37,15.2,12.37,30.41c0,15.21-12.37,15.21-12.37,30.41c0,15.21,12.37,15.21,12.37,30.41c0,15.21-12.37,15.21-12.37,30.41 c0,15.21,12.37,15.21,12.37,30.41c0,15.21-12.37,15.21-12.37,30.42C394.65,477.85,415.76,484.01,405.84,496.33z" fill="#58963E"/></g><g id="change2_1"><path d="M93.57,204.38c-1.08,16.2-6.44,28.61-10.28,35.82c1.92-11.98,3.32-26.55,2.99-43.1 c-0.02-0.8-0.04-1.58-0.06-2.37h7.45C93.81,197.82,93.79,201.04,93.57,204.38z M39.23,248.76l9.97-5.84l34.09-2.73H39.23V248.76z M64.58,194.72H39.23v34.22c5.71-5.99,11.67-13.1,17.39-21.44C59.58,203.18,62.21,198.91,64.58,194.72z M63.37,157.53v-6.67H56.7 v6.67H63.37z M103.98,231.44c-10.46,1.17-17.65,6.29-20.69,8.75h50.35C131.2,238.26,119.79,229.67,103.98,231.44z M350.18,248.9 C350.18,248.9,350.18,248.9,350.18,248.9c-0.9,0.29-2.17,0.14-4.35-0.57c-4.29-1.41-10.39-6.37-12.77-8.76 c0.16,0.16,0.32,0.32,0.51,0.5c-5.32,1.03-10.69,1.25-12.49-1.47c0,0-15.42-0.62-12.91-9.71c0,0-22.24,8.15-17.58-11.28 c0,0-0.17-0.71-0.3-1.77c0,0.02,0,0.04,0.01,0.06l-6.09-6.74c-21.45-7.44-43.42-11.84-61.89-14.44h-10.99l0.09,0.81l-4.3,2.01 c-1.81,0.14-3.63,0.29-5.44,0.43c-0.08-1.04-0.15-2.13-0.22-3.25h-22.56l-2.61,2.82h3.61c0.56,0,1.12,0.15,1.61,0.43l4.8,2.77v3.42 l-10.13-1.68l-10.13,1.68v-3.42l4.8-2.77c-0.08-1.05-0.14-2.13-0.18-3.25h-52.16c10.3,18.4,13.79,35.38,15.13,45.47l4.29,8.98 l-5.78,7.49c-6.25,8.09-15.27,12.74-24.77,12.74H39.23v186.36h33.73l30.1-46.5l25.89-19.47l27.88,1.62l2.6,0.22l19.86-29.67 l23.95-2.45l18.64-23.61l45.8-19.92l44.7-15.97l34.73-33.82l23.16-10.35l-10.69,4.77C356.74,256.47,353.59,252.56,350.18,248.9z M67.29,170.98h6.67v-6.67h-6.67V170.98z M198.9,150.06c0-2.07-1.68-3.75-3.75-3.75h-0.14c-2.07,0-3.75,1.68-3.75,3.75v9.24h7.63 V150.06z M214.61,150.06c0-2.07-1.68-3.75-3.75-3.75h-0.14c-2.07,0-3.75,1.68-3.75,3.75v7.66c0.05-0.14,0.1-0.29,0.15-0.43 l0.23,2.01h7.26V150.06z M179.62,172.82l0.26,1.21l1.01,4.73h4.86v-4.73v-15.52c-2.27,0.01-5.53,0.03-9.18,0.04l0.84,3.91 c0.04,0,0.09-0.01,0.13-0.01h0.13c1.94,0,3.51,1.57,3.51,3.51v6.86H179.62z M191.26,174.03v1.41h7.63v-1.41v-7.83 c0-2.07-1.68-3.75-3.75-3.75h-0.14c-2.07,0-3.75,1.68-3.75,3.75V174.03z M94.07,152.31h-4.84l-1.98,5.44 c0.32,0.26,0.65,0.53,0.99,0.8c0.3,0.01,0.64,0.01,1.03,0.02c1.22,0.01,2.87,0.02,4.81,0.03c2.66,0.01,5.87,0,9.23,0 c8.59-0.02,18.2-0.07,22.49-0.09c1.44-0.01,2.28-0.01,2.28-0.01l-2.53-6.18H103.3H94.07z M74.15,150.85h-6.67v6.67h6.67V150.85z M51.76,163.14h3.14l-9.88-8.1l-4.78-3.92l-1,0.82v11.2h5.79H51.76z M152.35,155.46v18.57v4.73h18.95c0.19-1.62,0.42-3.2,0.67-4.73 c1-5.93,2.42-11.11,3.89-15.47c-8.11,0.03-17.97,0.06-23.52,0.03L152.35,155.46L152.35,155.46z M116.01,162.46 c-1.94,0-3.51,1.57-3.51,3.51v6.86h7.14v-6.86c0-1.94-1.57-3.51-3.51-3.51H116.01z M103.3,143.07h49.05l-24.53-17.06L103.3,143.07z M84.74,170.98v-6.67h-1.35c0.34,2.16,0.66,4.38,0.96,6.67H84.74z M78.12,164.3h-0.05v0.15C78.09,164.4,78.1,164.35,78.12,164.3z M98.91,162.46c-1.61,0-2.96,1.1-3.37,2.58c2.28,2.19,4.63,4.6,7,7.26v-6.33c0-1.94-1.57-3.51-3.51-3.51H98.91z M45.94,139.56 l-2.91,6.9c0,0.09,5.71,0.12,13.38,0.12c15.7,0,39.63-0.12,39.63-0.12l-3.26-6.9H45.94z M363.76,146.98h6.5v-6.74h-6.5V146.98z M252.03,178.76h12.8v-4.29h-12.8V178.76z M243.81,167.8v5.55H244h5.36v-5.55H244H243.81z M235.88,173.35h5.55v-5.55h-5.55V173.35z M271.57,165.36v6.55h3.29h3.27v-6.55h-3.27H271.57z M288.37,171.91v-6.55h-6.55v6.55H288.37z M363.76,165.9h6.5v-6.74h-6.5V165.9z M343.66,131.28h1.78h24.83v-11.2l-6.47-5.31L343.66,131.28z M39.23,44.25v45.83c0.09-0.02,0.19-0.03,0.28-0.06 c2.3-1.04,4.6-2.09,6.89-3.13c1,0.82,3.63,2.75,7.53,3.13c4.9,0.48,8.45-1.84,9.4-2.51c0.54-1.41,2.65-6.32,8.15-9.4 c5.98-3.36,11.79-2.2,13.17-1.88c3.55,1.88,7.11,3.75,10.66,5.64c0.89-0.7,3.36-2.43,6.89-2.51h0.27c5.33,0,8.67,3.84,9.14,4.39 c0,0,4.13,0.79,6.89,2.51c2.92,1.82,2.64,3.63,5.64,6.89c1.33,1.45,3.49,3.38,6.89,5.02c2.52-1.11,6.27-2.31,10.66-1.88 c9.6,0.94,14.23,8.93,18.82,6.89c2.95-1.31,1.93-5.04,5.64-8.78c3.61-3.63,8.78-4.34,12.53-4.39c1.22-2.19,5.4-9.03,13.8-11.91 c3.42-1.18,6.53-1.34,8.77-1.25c0.67,0.41,5.24,3.06,10.66,1.25c4.27-1.43,6.36-4.74,6.89-5.64c0.37-0.42,6.48-7.16,15.06-5.65 c5.31,0.94,8.47,4.51,9.4,5.65c0.7-0.64,2.41-2.04,5.01-2.51c3.49-0.63,6.16,0.82,6.91,1.25c2.01-0.33,6.63-0.81,11.91,1.25 c5.1,1.99,8.12,5.31,9.4,6.89c0.04-1.75,0.39-5.18,2.5-8.78c1.44-2.43,3.18-4.05,4.4-5.01c8.53-5.75,13.38-5.74,16.3-4.4 c3.33,1.53,4.55,4.99,10.04,7.53c2.69,1.24,5.17,1.7,6.89,1.88c1.6,0.33,6.66,1.59,10.66,6.27c3.42,4.01,4.17,8.32,4.39,10.04 c7.39-0.32,10.16-2.43,11.28-4.4c1.03-1.79,0.83-3.7,2.51-5.02c1.8-1.4,4.4-1.09,6.27-0.62c2.3,2.51,4.6,5.02,6.89,7.53 c1.68,2.3,3.34,4.6,5.02,6.89c1.41-0.98,3.66-2.31,6.62-3.12v-43.9H39.23z M292.06,165.36v6.55h4.27h2.28v-6.55h-2.28H292.06z M363.76,156.44h6.5v-6.74h-6.5V156.44z M332.27,190.2c0.12-0.29,0.28-0.61,0.49-0.92c-0.03,0.05-0.07,0.09-0.1,0.14 C332.5,189.69,332.37,189.95,332.27,190.2z M337.29,225.74c0.33,0.1,0.65,0.2,1.01,0.34c7.53,2.82,18.29,4.39,18.29,4.39v11.29 c-0.12,0.1-0.21,0.2-0.32,0.3c0.11-0.1,0.21-0.2,0.33-0.3v-2.59v-0.01v-8.69c0,0-10.77-1.57-18.3-4.39 C337.95,225.94,337.62,225.84,337.29,225.74z M278.41,138.34l-2.33-9.28h-33.54l-2.08,9.28c0,0.07,1.36,0.12,3.55,0.14v16.98h8.92 l2.51,7.54c0,0-1.29,0.01-3.4,0.02v5.56c1.37-1.89,3.58-3.13,6.09-3.13h0.27c2.74,0,5.12,1.47,6.44,3.65v-8.63h10.03v0 c6.34,0,14.28-0.02,21.48-0.04v0.04h17.55v13.55v4.73h31.5v-4.73V147c-8.35,0.04-40.71,0.19-49.05,0.07v6.4h-21.48v-15.09 C277.05,138.36,278.41,138.34,278.41,138.34z M360.22,144.67c0-3.14-2.54-5.68-5.68-5.68h-0.21c-3.14,0-5.68,2.54-5.68,5.68v21.67 h11.57V144.67z M227.95,167.8v5.55h5.55v-5.55H227.95z M225.57,167.8h-5.55v5.55h5.55V167.8z M210.86,162.46h-0.14 c-1.16,0-2.18,0.54-2.87,1.36l1.15,10.21l0.16,1.41h1.63h3.82v-1.41v-7.83c0-1.65-1.07-3.04-2.56-3.54 C211.68,162.54,211.28,162.46,210.86,162.46z M332.88,225.18c-2.87,0.38-3.55,2.45-3.55,2.45l0.41,1.57l-0.41-1.57 C329.33,227.64,330.01,225.56,332.88,225.18z M352.64,246.35c0.27-0.41,0.57-0.85,0.93-1.34 C353.21,245.5,352.91,245.94,352.64,246.35z M308.87,171.91v-6.55h-6.55v6.55H308.87z M352.64,246.35c-0.39,0.58-0.72,1.09-1.06,1.5 C351.92,247.45,352.25,246.93,352.64,246.35z" fill="#8CC9CE"/></g><g id="change3_1"><path d="M262.96,149.19h-7.06v-7.06h7.06V149.19z M218.94,143.07h5.56l-22.16-14.53l-22.16,14.53h5.56 H218.94z M290.22,212.54c0.02-0.23,0.04-0.46,0.07-0.69c0.01-0.05,0.01-0.11,0.02-0.16c0.04-0.24,0.08-0.49,0.13-0.73 c0.02-0.08,0.04-0.16,0.05-0.24c0.06-0.26,0.13-0.51,0.21-0.77c0.01-0.04,0.03-0.09,0.05-0.13c0.08-0.22,0.16-0.44,0.26-0.65 c0.03-0.07,0.06-0.14,0.1-0.21c0.12-0.24,0.25-0.48,0.39-0.7c0.03-0.05,0.07-0.09,0.1-0.14c0.13-0.19,0.27-0.38,0.43-0.56 c0.04-0.05,0.09-0.11,0.13-0.16c0.19-0.2,0.39-0.4,0.61-0.58c0.05-0.04,0.11-0.08,0.16-0.12c0.2-0.15,0.42-0.3,0.65-0.43 c0.05-0.03,0.1-0.06,0.16-0.09c0.27-0.14,0.57-0.27,0.88-0.38c0.07-0.03,0.15-0.05,0.23-0.07c0.3-0.1,0.61-0.18,0.95-0.24 c0.04-0.01,0.09-0.02,0.13-0.03c0.37-0.06,0.78-0.1,1.2-0.12c0.1,0,0.2-0.01,0.31-0.01c0.44-0.01,0.9-0.01,1.4,0.04 c0,0,2.86-13.48,12.19-8.46c0,0,12.2-10.35,20.82-5.02c0,0,0-0.02,0-0.04c0-0.01,0-0.02,0-0.03c0-0.02,0.01-0.06,0.01-0.09 c0-0.02,0-0.04,0.01-0.06c0.01-0.05,0.02-0.12,0.03-0.18c0.01-0.04,0.01-0.08,0.02-0.12c0.01-0.04,0.02-0.08,0.03-0.13 c0.01-0.05,0.02-0.1,0.04-0.16c0.01-0.03,0.02-0.07,0.03-0.11c0.03-0.12,0.07-0.25,0.11-0.38c0.01-0.03,0.02-0.07,0.04-0.1 c0.03-0.09,0.06-0.17,0.1-0.26c0-0.01,0.01-0.02,0.01-0.03c0.1-0.25,0.23-0.51,0.39-0.78l-20.11-6.93l-35.74,18.47l7.4,8.19 l6.09,6.74c0-0.02,0-0.04-0.01-0.06c-0.02-0.17-0.04-0.35-0.05-0.54c0-0.05-0.01-0.09-0.01-0.14c-0.02-0.21-0.03-0.43-0.04-0.66 c0-0.07,0-0.14-0.01-0.2c-0.01-0.2-0.01-0.39-0.01-0.6c0-0.06,0-0.11,0-0.17c0-0.24,0.01-0.49,0.03-0.73 C290.21,212.7,290.22,212.62,290.22,212.54z M258.12,165.46c-2.51,0-4.73,1.24-6.09,3.13v5.45v0.44h12.8v-0.44v-4.92 c-1.31-2.19-3.7-3.65-6.44-3.65H258.12z M218.94,162.67v0.45c5.9,0.05,16.73,0,25.06-0.04c3.18-0.02,5.99-0.04,8.03-0.05 c2.11-0.01,3.4-0.02,3.4-0.02l-2.51-7.54H244h-25.06V162.67z M252.95,142.12h-7.06v7.06h7.06V142.12z M332.2,238.61 c0.16,0.23,0.47,0.56,0.86,0.96c2.38,2.39,8.47,7.35,12.77,8.76c2.18,0.71,3.45,0.86,4.35,0.57c0.03-0.01,0.06-0.02,0.08-0.03 c0.13-0.05,0.26-0.11,0.37-0.17c0.04-0.02,0.08-0.05,0.12-0.07c0.13-0.09,0.26-0.18,0.38-0.29c0,0,0,0,0.01-0.01 c0.13-0.12,0.26-0.26,0.38-0.41c0.02-0.02,0.03-0.04,0.05-0.06c0.57-0.69,1.12-1.67,1.98-2.84c0.05-0.06,0.09-0.13,0.14-0.19 c0.12-0.15,0.24-0.31,0.36-0.47c0.08-0.1,0.16-0.2,0.25-0.3c0.19-0.23,0.4-0.47,0.63-0.72c0.12-0.13,0.24-0.26,0.37-0.39 c0.14-0.14,0.27-0.28,0.42-0.42c0.17-0.16,0.34-0.32,0.53-0.49c0.11-0.1,0.21-0.2,0.32-0.3v-11.29c0,0-10.76-1.57-18.29-4.39 c-0.35-0.13-0.68-0.23-1.01-0.34c-1.85-0.58-3.3-0.7-4.41-0.55c-2.87,0.38-3.55,2.45-3.55,2.45l0.41,1.57L332.2,238.61z M323.24,150.29h-0.19c-2.88,0-5.21,2.33-5.21,5.21v18.49h10.6v-18.49C328.44,152.62,326.11,150.29,323.24,150.29z M274.85,160.48 c6.34,0,14.28-0.02,21.48-0.04c10.56-0.04,19.52-0.08,19.52-0.08l-3.26-6.9h-16.27h-21.48h-9.1l-2.9,6.9 C262.85,160.45,267.89,160.48,274.85,160.48z M342.32,155.49c0-2.88-2.33-5.21-5.21-5.21h-0.19c-2.88,0-5.21,2.33-5.21,5.21v18.49 h10.6V155.49z M345.39,147c0.02,0,0.03,0,0.05,0c1.23-0.01,1.93-0.01,1.93-0.01l-1.93-4.09l-1.33-2.81h-46.85l-2.9,6.9 c0,0.03,0.72,0.06,1.98,0.08C304.68,147.19,337.04,147.04,345.39,147z M272.97,142.12h-7.06v7.06h7.06V142.12z M149.04,153.44 c0-2.31-1.87-4.18-4.18-4.18h-0.15c-2.31,0-4.18,1.87-4.18,4.18v19.38h8.51V153.44z M132.16,256.66l5.78-7.49H83.29H39.23v20.23 h68.16C116.88,269.39,125.91,264.75,132.16,256.66z M51.76,178.76v-4.73v-10.9h-6.74h-5.79v3.97h5.79h2.39v6.69h-2.39h-5.79v0.24 v4.73h5.79H51.76z M96.05,146.46l-3.26-6.9H45.94l-2.91,6.9c0,0.09,5.71,0.12,13.38,0.12C72.12,146.59,96.05,146.46,96.05,146.46z M347.1,266.2l-34.73,33.82l-44.7,15.97l-45.8,19.92l-18.64,23.61l0,0l13.89-1.42l19.91,20.23l39.83,2.52l25.89,25.29l29.88,40.45 l-2.41,9.17h40.05v-199.9L347.1,266.2z M194.67,394.64l-17.95-1.54l-17.29-1.48l-2.6-0.22l-27.88-1.62l-25.89,19.47l-30.1,46.5 h162.7l-19.09-33.51L194.67,394.64z M123.5,149.78c0-2.26-1.83-4.09-4.09-4.09h-9.23c-2.26,0-4.09,1.83-4.09,4.09v0.07h17.41V149.78 z M89.26,174.03v4.73h2.22c-0.38-1.63-0.79-3.21-1.23-4.73c-0.32-1.1-0.65-2.17-0.99-3.21V174.03z M160.43,162.46 c-1.94,0-3.51,1.57-3.51,3.51v6.86h7.14v-6.86c0-1.94-1.57-3.51-3.51-3.51H160.43z M138.07,153.44c0-2.31-1.87-4.18-4.18-4.18h-0.15 c-2.31,0-4.18,1.87-4.18,4.18v19.38h8.51V153.44z M175.87,158.57c-1.47,4.36-2.9,9.54-3.89,15.47c-0.26,1.53-0.48,3.1-0.67,4.73 c-0.1,0.87-0.21,1.74-0.29,2.63c-0.45,4.84-0.5,9.31-0.33,13.32c0.05,1.12,0.11,2.21,0.18,3.25c1.81-0.14,3.63-0.29,5.44-0.43 l2.61-2.82l4.39-4.75l-2.4-11.21l-1.01-4.73l-0.26-1.21h1.55v-6.86c0-1.94-1.57-3.51-3.51-3.51h-0.13c-0.04,0-0.09,0.01-0.13,0.01 l-0.84-3.91c3.65-0.02,6.9-0.03,9.18-0.04v-3.06v-3.15h-33.4v3.15v3.13C157.9,158.63,167.76,158.6,175.87,158.57z M94.07,158.61 c2.66,0.01,5.87,0,9.23,0c8.59-0.02,18.2-0.07,22.49-0.09v15.52v4.73h-17.88c-1.28-1.65-2.57-3.22-3.86-4.73 c-0.25-0.29-0.5-0.58-0.76-0.87c-0.25-0.29-0.51-0.59-0.76-0.87v-6.33c0-1.94-1.57-3.51-3.51-3.51h-0.13c-1.61,0-2.96,1.1-3.37,2.58 c-0.5-0.47-0.98-0.93-1.47-1.38c-1.65-1.53-3.27-2.95-4.81-4.25v-0.83C90.48,158.59,92.13,158.6,94.07,158.61z M112.51,172.82h7.14 v-6.86c0-1.94-1.57-3.51-3.51-3.51h-0.13c-1.94,0-3.51,1.57-3.51,3.51V172.82z" fill="#E48975"/></g><g id="change4_1"><path d="M45.02,173.8h-5.79v-6.69h5.79h2.39v6.69H45.02z M274.85,138.37c2.2-0.02,3.55-0.03,3.55-0.03l-2.33-9.28 h-33.54l-2.08,9.28c0,0.07,1.36,0.12,3.55,0.14C251.24,138.56,267.62,138.44,274.85,138.37z M118.52,194.72 c10.3,18.4,13.79,35.38,15.13,45.47c-2.44-1.93-13.85-10.52-29.67-8.75c-10.46,1.17-17.65,6.29-20.69,8.75 c3.84-7.21,9.2-19.61,10.28-35.82c0.22-3.34,0.24-6.56,0.1-9.66h-7.45c0.02,0.79,0.05,1.57,0.06,2.37 c0.33,16.55-1.08,31.12-2.99,43.1H39.23v-11.25c5.71-5.99,11.67-13.1,17.39-21.44c2.96-4.31,5.59-8.59,7.96-12.78H39.23v-15.96 h5.79h6.74v-4.73v-10.9h3.14l-9.88-8.1v-8.45h11.4h37.65v5.73h-4.84l-1.98,5.44c0.32,0.26,0.65,0.53,0.99,0.8 c0.3,0.01,0.64,0.01,1.03,0.02v0.83c1.55,1.3,3.16,2.72,4.81,4.25c0.49,0.45,0.98,0.9,1.47,1.38c2.28,2.19,4.63,4.6,7,7.26 c0.25,0.28,0.51,0.58,0.76,0.87c0.25,0.29,0.5,0.57,0.76,0.87c1.29,1.5,2.58,3.08,3.86,4.73h17.88v-4.73v-15.52 c1.44-0.01,2.28-0.01,2.28-0.01l-2.53-6.18H103.3v-9.24h49.05v12.39v18.57v4.73h18.95c-0.1,0.87-0.21,1.74-0.29,2.63 c-0.45,4.84-0.5,9.31-0.33,13.32H118.52z M123.5,149.78c0-2.26-1.83-4.09-4.09-4.09h-9.23c-2.26,0-4.09,1.83-4.09,4.09v0.07h17.41 V149.78z M140.53,172.82h8.51v-19.38c0-2.31-1.87-4.18-4.18-4.18h-0.15c-2.31,0-4.18,1.87-4.18,4.18V172.82z M129.56,172.82h8.51 v-19.38c0-2.31-1.87-4.18-4.18-4.18h-0.15c-2.31,0-4.18,1.87-4.18,4.18V172.82z M78.07,164.45c0.02-0.05,0.03-0.1,0.05-0.15h-0.05 V164.45z M67.47,157.53h6.67v-6.67h-6.67V157.53z M67.29,170.98h6.67v-6.67h-6.67V170.98z M56.7,157.53h6.67v-6.67H56.7V157.53z M89.26,174.03 M163.13,204.65v4.07c0,1.65,1.71,3.18,4.52,4.04l2.21,0.68c4.13,1.27,8.54,1.27,12.66,0l2.21-0.68 c2.81-0.86,4.52-2.39,4.52-4.04v-4.07l-2.93-0.49l-10.13-1.68l-10.13,1.68L163.13,204.65z M363.76,140.24v6.74h6.5v2.72h-6.5v6.74 h6.5v2.72h-6.5v6.74h6.5v8.14v4.73v7.51c-2.05,0.85-3.62,1.88-3.62,1.88c-6.83-6.58-19.02,0.62-19.02,0.62 c-0.57-0.23-1.11-0.44-1.64-0.63c-0.14-0.05-0.27-0.09-0.41-0.14c-0.4-0.14-0.78-0.26-1.16-0.38c-0.13-0.04-0.26-0.08-0.39-0.12 c-0.42-0.12-0.82-0.23-1.21-0.33c-0.06-0.01-0.12-0.03-0.17-0.04c-0.46-0.11-0.9-0.2-1.32-0.27c-0.04-0.01-0.08-0.01-0.12-0.02 c-0.36-0.06-0.71-0.11-1.05-0.14c-0.09-0.01-0.18-0.02-0.27-0.03c-0.29-0.03-0.57-0.04-0.84-0.05c-0.08,0-0.16-0.01-0.23-0.01 c-0.66-0.01-1.26,0.03-1.8,0.12c-0.08,0.01-0.16,0.03-0.24,0.04c-0.18,0.03-0.36,0.07-0.52,0.11c-0.09,0.02-0.18,0.05-0.26,0.07 c-0.15,0.04-0.29,0.09-0.43,0.14c-0.08,0.03-0.16,0.06-0.24,0.09c-0.19,0.08-0.37,0.16-0.53,0.25c-0.09,0.05-0.18,0.1-0.27,0.16 c-0.08,0.05-0.16,0.09-0.23,0.14c-0.1,0.06-0.19,0.13-0.28,0.2c-0.05,0.04-0.1,0.08-0.15,0.12c-0.09,0.08-0.19,0.15-0.27,0.23 c-0.01,0.01-0.03,0.03-0.04,0.04c-0.38,0.35-0.68,0.73-0.91,1.11l-20.11-6.93l-35.74,18.47l7.4,8.19 c-21.45-7.44-43.42-11.84-61.89-14.44h-10.99l-1.8-15.96l-0.37-3.31h1.63h3.82v-1.41v-7.83c0-1.65-1.07-3.04-2.56-3.54 c-0.38-0.13-0.77-0.21-1.19-0.21h-0.14c-1.16,0-2.18,0.54-2.87,1.36l-0.51-4.52h7.26v-9.24c0-2.07-1.68-3.75-3.75-3.75h-0.14 c-2.07,0-3.75,1.68-3.75,3.75v7.66c-1.53,4.44-2.9,10.28-3.98,16.31c-0.28,1.57-0.54,3.15-0.78,4.73 c-0.13,0.88-0.26,1.76-0.38,2.63c-0.66,4.82-0.59,9.3-0.37,13.32h-22.56l4.39-4.75l-2.4-11.21h4.86v-4.73v-15.52v-3.06v-3.15v-9.24 h33.19v12.39v7.21v0.45c5.9,0.05,16.73,0,25.06-0.04c3.18-0.02,5.99-0.04,8.03-0.05v5.56v5.45v0.44v4.29h12.8v-4.29v-0.44v-4.92 v-8.63h10.03h21.48h17.55v13.55v4.73h31.5v-4.73h0.05V147c1.23-0.01,1.93-0.01,1.93-0.01l-1.93-4.09v-11.62h24.83v8.96H363.76z M191.26,159.3h7.63v-9.24c0-2.07-1.68-3.75-3.75-3.75h-0.14c-2.07,0-3.75,1.68-3.75,3.75V159.3z M198.9,174.03v-7.83 c0-2.07-1.68-3.75-3.75-3.75h-0.14c-2.07,0-3.75,1.68-3.75,3.75v7.83v1.41h7.63V174.03z M243.81,173.35H244h5.36v-5.55H244h-0.19 V173.35z M235.88,173.35h5.55v-5.55h-5.55V173.35z M227.95,173.35h5.55v-5.55h-5.55V173.35z M220.02,173.35h5.55v-5.55h-5.55 V173.35z M302.31,171.91h6.55v-6.55h-6.55V171.91z M292.06,171.91h4.27h2.28v-6.55h-2.28h-4.27V171.91z M281.82,171.91h6.55v-6.55 h-6.55V171.91z M271.57,171.91h3.29h3.27v-6.55h-3.27h-3.29V171.91z M348.65,166.34h11.57v-21.67c0-3.14-2.54-5.68-5.68-5.68h-0.21 c-3.14,0-5.68,2.54-5.68,5.68V166.34z M364.12,237.35c0,0-3.5,1.32-7.53,1.8v0.01v2.59c-0.12,0.1-0.22,0.2-0.33,0.3 c-0.18,0.16-0.36,0.33-0.53,0.49c-0.15,0.14-0.29,0.28-0.42,0.42c-0.13,0.13-0.25,0.26-0.37,0.39c-0.23,0.24-0.44,0.48-0.63,0.72 c-0.08,0.1-0.17,0.2-0.25,0.3c-0.13,0.16-0.25,0.31-0.36,0.47c-0.05,0.06-0.1,0.13-0.14,0.19c-0.87,1.17-1.41,2.14-1.98,2.84 c-0.02,0.02-0.03,0.04-0.05,0.06c-0.12,0.15-0.25,0.29-0.38,0.41c0,0,0,0-0.01,0.01c-0.12,0.11-0.25,0.2-0.38,0.29 c-0.04,0.03-0.08,0.05-0.12,0.07c-0.12,0.07-0.24,0.13-0.37,0.17c-0.03,0.01-0.06,0.02-0.08,0.03c0,0,0,0-0.01,0 c3.41,3.66,6.56,7.57,9.39,11.72l10.69-4.77v-17.56C368.48,239.15,366.4,239.15,364.12,237.35z M276.86,380.84l-39.83-2.52 l-19.91-20.23l-13.89,1.42l0,0l-23.95,2.45l-19.86,29.67l17.29,1.48l17.95,1.54l21.91,27.6l19.09,33.51h94.56l2.41-9.17 l-29.88-40.45L276.86,380.84z M200.68,213.44c4.13,1.27,8.54,1.27,12.66,0l2.21-0.68c2.81-0.86,4.52-2.39,4.52-4.04v-4.07 l-2.93-0.49l-10.13-1.68l-10.13,1.68l-2.93,0.49v4.07c0,1.65,1.71,3.18,4.52,4.04L200.68,213.44z" fill="#F2EED0"/></g><g id="change5_1"><path d="M133.64,240.19l4.29,8.98H83.29H39.23v-0.41l9.97-5.84l34.09-2.73H133.64z M212.34,197.97c-0.49-0.28-1.04-0.43-1.61-0.43 h-3.61c-1.81,0.14-3.63,0.29-5.44,0.43l-4.8,2.77v3.42l10.13-1.68l10.13,1.68v-3.42L212.34,197.97z"/><path d="M403.29,478.18c-3.76-4.51-7.64-9.18-7.64-15.54c0-7.25,2.9-10.81,5.96-14.58c3.15-3.87,6.41-7.88,6.41-15.84 c0-7.96-3.26-11.96-6.41-15.84c-3.07-3.77-5.96-7.33-5.96-14.58c0-7.25,2.9-10.81,5.96-14.58c3.15-3.87,6.41-7.88,6.41-15.84 s-3.26-11.96-6.41-15.84c-3.07-3.77-5.96-7.33-5.96-14.58c0-7.25,2.9-10.81,5.96-14.58c3.15-3.87,6.41-7.88,6.41-15.84 c0-7.96-3.26-11.96-6.41-15.83c-3.07-3.77-5.96-7.33-5.96-14.57c0-7.25,2.9-10.81,5.96-14.57c3.15-3.87,6.41-7.88,6.41-15.84 c0-7.96-3.26-11.96-6.41-15.84c-3.07-3.77-5.96-7.33-5.96-14.58s2.9-10.81,5.96-14.58c3.15-3.87,6.41-7.88,6.41-15.84 c0-7.96-3.26-11.96-6.41-15.84c-3.07-3.77-5.96-7.33-5.96-14.57s2.9-10.81,5.96-14.57c3.15-3.87,6.41-7.88,6.41-15.84 s-3.26-11.96-6.41-15.84c-3.07-3.77-5.96-7.33-5.96-14.57s2.9-10.81,5.96-14.57c3.15-3.87,6.41-7.88,6.41-15.84 s-3.26-11.96-6.41-15.84c-3.07-3.77-5.96-7.33-5.96-14.57c0-6.36,3.88-11.03,7.64-15.54c4.82-5.79,9.38-11.26,3.33-18.77 c-4.63-5.74-10.45-1.73-16.08,2.15c-4.3,2.96-9.17,6.31-14.23,6.31c-5.74,0-8.58-2.58-11.59-5.31c-3.15-2.86-6.42-5.82-12.93-5.82 c-6.51,0-9.77,2.96-12.93,5.82c-3,2.73-5.84,5.31-11.58,5.31c-5.74,0-8.58-2.58-11.58-5.31c-3.15-2.86-6.41-5.82-12.93-5.82 S293,2.86,289.85,5.72c-3,2.73-5.84,5.31-11.58,5.31c-5.74,0-8.58-2.58-11.58-5.31c-3.15-2.86-6.41-5.82-12.93-5.82 c-6.51,0-9.77,2.96-12.93,5.82c-3,2.73-5.84,5.31-11.58,5.31c-5.74,0-8.58-2.58-11.58-5.31c-3.15-2.86-6.41-5.82-12.93-5.82 c-6.51,0-9.77,2.96-12.93,5.82c-3,2.73-5.84,5.31-11.58,5.31c-5.74,0-8.58-2.58-11.58-5.31c-3.15-2.86-6.41-5.82-12.93-5.82 s-9.77,2.96-12.93,5.82c-3,2.73-5.84,5.31-11.58,5.31c-5.74,0-8.58-2.58-11.58-5.31c-3.15-2.86-6.41-5.82-12.93-5.82 s-9.77,2.96-12.93,5.82c-3,2.73-5.84,5.31-11.58,5.31c-5.74,0-8.58-2.58-11.58-5.31C67.45,2.86,64.19-0.1,57.68-0.1 c-6.51,0-9.77,2.96-12.93,5.82c-3,2.73-5.84,5.31-11.58,5.31c-5.06,0-9.93-3.35-14.22-6.31C13.32,0.84,7.5-3.17,2.87,2.57 c-6.05,7.51-1.49,12.98,3.33,18.77c3.76,4.51,7.64,9.18,7.64,15.54c0,7.25-2.9,10.81-5.96,14.58c-3.15,3.87-6.41,7.88-6.41,15.84 c0,7.96,3.26,11.96,6.41,15.84c3.07,3.77,5.96,7.33,5.96,14.58c0,7.25-2.9,10.81-5.96,14.58c-3.15,3.87-6.41,7.88-6.41,15.84 c0,7.96,3.26,11.96,6.41,15.84c3.07,3.77,5.96,7.33,5.96,14.58s-2.9,10.81-5.96,14.58c-3.15,3.87-6.41,7.88-6.41,15.84 c0,7.96,3.26,11.96,6.41,15.84c3.07,3.77,5.96,7.33,5.96,14.57s-2.9,10.81-5.96,14.57c-3.15,3.87-6.41,7.88-6.41,15.84 c0,7.96,3.26,11.96,6.41,15.84c3.07,3.77,5.96,7.33,5.96,14.58c0,7.25-2.9,10.81-5.96,14.58c-3.15,3.87-6.41,7.88-6.41,15.84 s3.26,11.96,6.41,15.84c3.07,3.77,5.96,7.33,5.96,14.58c0,7.25-2.9,10.81-5.96,14.57c-3.15,3.87-6.41,7.88-6.41,15.84 s3.26,11.96,6.41,15.84c3.07,3.77,5.96,7.33,5.96,14.57s-2.9,10.81-5.96,14.57c-3.15,3.87-6.41,7.88-6.41,15.84 c0,7.96,3.26,11.96,6.41,15.83c3.07,3.77,5.96,7.33,5.96,14.57c0,6.36-3.88,11.03-7.64,15.54c-4.82,5.79-9.38,11.26-3.33,18.77 c1.97,2.44,3.84,3.38,5.74,3.38c2.74,0,5.53-1.98,8.71-4.23c3.66-2.59,8.21-5.82,14.39-7.42c5.69-1.49,8.9,1.34,12.61,4.6 c3.38,2.97,7.2,6.34,13.38,6.34c6.51,0,9.78-2.96,12.93-5.82c3-2.73,5.84-5.31,11.58-5.31s8.58,2.58,11.58,5.31 c3.15,2.86,6.41,5.82,12.93,5.82c6.51,0,9.78-2.96,12.93-5.82c3-2.73,5.84-5.31,11.58-5.31c5.74,0,8.58,2.58,11.58,5.31 c3.15,2.86,6.41,5.82,12.93,5.82c6.51,0,9.77-2.96,12.93-5.83c3-2.73,5.84-5.3,11.58-5.3s8.58,2.58,11.58,5.31 c3.15,2.86,6.41,5.82,12.93,5.82c6.51,0,9.77-2.96,12.92-5.82c3-2.73,5.84-5.31,11.58-5.31c5.74,0,8.58,2.58,11.58,5.31 c3.15,2.86,6.41,5.82,12.93,5.82c6.51,0,9.77-2.96,12.93-5.82c3-2.73,5.84-5.31,11.58-5.31s8.58,2.58,11.58,5.31 c3.15,2.86,6.41,5.82,12.93,5.82c6.51,0,9.77-2.96,12.93-5.83c3-2.73,5.84-5.3,11.58-5.3c5.74,0,8.58,2.58,11.58,5.31 c3.15,2.86,6.41,5.82,12.93,5.82c6.51,0,9.77-2.96,12.93-5.82c3-2.73,5.84-5.31,11.58-5.31c5.06,0,9.93,3.35,14.22,6.31 c5.63,3.88,11.45,7.88,16.07,2.15C412.67,489.45,408.11,483.97,403.29,478.18z M405.06,495.7c-3.3,4.1-7.05,1.83-13.38-2.54 c-4.54-3.12-9.68-6.67-15.36-6.67c-6.51,0-9.77,2.96-12.93,5.83c-3,2.73-5.84,5.3-11.58,5.3c-5.74,0-8.58-2.58-11.58-5.31 c-3.15-2.86-6.41-5.82-12.93-5.82c-6.51,0-9.77,2.96-12.93,5.82c-3,2.73-5.84,5.31-11.58,5.31c-5.74,0-8.58-2.58-11.58-5.3 c-3.15-2.86-6.41-5.83-12.93-5.83s-9.77,2.96-12.93,5.82c-3,2.73-5.84,5.31-11.58,5.31c-5.74,0-8.58-2.58-11.58-5.31 c-3.15-2.86-6.41-5.82-12.93-5.82c-6.51,0-9.77,2.96-12.93,5.83c-3,2.73-5.84,5.3-11.58,5.3c-5.74,0-8.58-2.58-11.58-5.3 c-3.15-2.86-6.41-5.83-12.93-5.83s-9.77,2.96-12.93,5.82c-3,2.73-5.84,5.31-11.58,5.31c-5.74,0-8.58-2.58-11.58-5.31 c-3.15-2.86-6.41-5.82-12.93-5.82c-6.51,0-9.78,2.96-12.93,5.82c-3,2.73-5.84,5.31-11.58,5.31s-8.58-2.58-11.58-5.3 c-3.15-2.86-6.41-5.83-12.93-5.83s-9.78,2.96-12.93,5.82c-3,2.73-5.84,5.31-11.58,5.31c-5.42,0-8.79-2.97-12.05-5.84 c-3.79-3.34-7.71-6.79-14.43-5.04c-6.53,1.7-11.25,5.04-15.04,7.73c-5.76,4.08-8.24,5.57-11.74,1.22 c-5.02-6.23-1.35-10.65,3.31-16.24c3.8-4.56,8.1-9.73,8.1-16.82c0-7.96-3.26-11.96-6.41-15.84c-3.07-3.77-5.96-7.33-5.96-14.57 c0-7.25,2.9-10.81,5.96-14.58c3.15-3.87,6.41-7.88,6.41-15.84s-3.26-11.96-6.41-15.84c-3.07-3.77-5.96-7.33-5.96-14.57 s2.9-10.81,5.96-14.57c3.15-3.87,6.41-7.88,6.41-15.84c0-7.96-3.26-11.96-6.41-15.84c-3.07-3.77-5.96-7.33-5.96-14.57 s2.9-10.81,5.96-14.58c3.15-3.87,6.41-7.88,6.41-15.84c0-7.96-3.26-11.96-6.41-15.84c-3.07-3.77-5.96-7.33-5.96-14.58 c0-7.25,2.9-10.81,5.96-14.57c3.15-3.87,6.41-7.88,6.41-15.84c0-7.96-3.26-11.96-6.41-15.84c-3.07-3.77-5.96-7.33-5.96-14.57 c0-7.25,2.9-10.81,5.96-14.58c3.15-3.87,6.41-7.88,6.41-15.84c0-7.96-3.26-11.96-6.41-15.84c-3.07-3.77-5.96-7.33-5.96-14.58 c0-7.25,2.9-10.81,5.96-14.58c3.15-3.87,6.41-7.88,6.41-15.84s-3.26-11.96-6.41-15.84C6.37,78.1,3.47,74.54,3.47,67.3 c0-7.25,2.9-10.81,5.96-14.58c3.15-3.87,6.41-7.88,6.41-15.84c0-7.08-4.31-12.26-8.1-16.82C3.09,14.47-0.59,10.05,4.43,3.82 c1.21-1.5,2.48-2.15,3.92-2.15c2.48,0,5.45,1.92,9.46,4.69c4.54,3.12,9.68,6.67,15.36,6.67c6.51,0,9.77-2.96,12.93-5.82 c3-2.73,5.84-5.31,11.58-5.31c5.74,0,8.58,2.58,11.58,5.31c3.15,2.86,6.41,5.82,12.93,5.82s9.77-2.96,12.93-5.82 c3-2.73,5.84-5.31,11.58-5.31s8.58,2.58,11.58,5.31c3.15,2.86,6.41,5.82,12.93,5.82c6.51,0,9.77-2.96,12.93-5.82 c3-2.73,5.84-5.31,11.58-5.31s8.58,2.58,11.58,5.31c3.15,2.86,6.41,5.82,12.93,5.82c6.51,0,9.77-2.96,12.93-5.82 c3-2.73,5.84-5.31,11.58-5.31c5.74,0,8.58,2.58,11.58,5.31c3.15,2.86,6.41,5.82,12.93,5.82c6.51,0,9.77-2.96,12.93-5.82 c3-2.73,5.84-5.31,11.58-5.31c5.74,0,8.58,2.58,11.58,5.31c3.15,2.86,6.41,5.82,12.93,5.82s9.77-2.96,12.93-5.82 c3-2.73,5.84-5.31,11.58-5.31c5.74,0,8.58,2.58,11.58,5.31c3.15,2.86,6.41,5.82,12.93,5.82c6.51,0,9.78-2.96,12.93-5.82 c3-2.73,5.84-5.31,11.58-5.31c5.74,0,8.58,2.58,11.59,5.31c3.15,2.86,6.42,5.82,12.93,5.82c5.68,0,10.82-3.54,15.36-6.67 c6.34-4.36,10.08-6.63,13.38-2.54c5.02,6.23,1.35,10.65-3.31,16.24c-3.8,4.56-8.1,9.73-8.1,16.82c0,7.96,3.26,11.96,6.41,15.84 c3.07,3.77,5.96,7.33,5.96,14.57c0,7.25-2.9,10.81-5.96,14.57c-3.15,3.87-6.41,7.88-6.41,15.84s3.26,11.96,6.41,15.84 c3.07,3.77,5.96,7.33,5.96,14.57s-2.9,10.81-5.96,14.57c-3.15,3.87-6.41,7.88-6.41,15.84c0,7.96,3.26,11.96,6.41,15.84 c3.07,3.77,5.96,7.33,5.96,14.57c0,7.25-2.9,10.81-5.96,14.58c-3.15,3.87-6.41,7.88-6.41,15.84s3.26,11.96,6.41,15.84 c3.07,3.77,5.96,7.33,5.96,14.58c0,7.25-2.9,10.81-5.96,14.57c-3.15,3.87-6.41,7.88-6.41,15.83c0,7.96,3.26,11.96,6.41,15.84 c3.07,3.77,5.96,7.33,5.96,14.57c0,7.25-2.9,10.81-5.96,14.58c-3.15,3.87-6.41,7.88-6.41,15.84c0,7.96,3.26,11.96,6.41,15.84 c3.07,3.77,5.96,7.33,5.96,14.58s-2.9,10.81-5.96,14.58c-3.15,3.87-6.41,7.88-6.41,15.84s3.26,11.96,6.41,15.84 c3.07,3.77,5.96,7.33,5.96,14.58c0,7.25-2.9,10.81-5.96,14.58c-3.15,3.87-6.41,7.88-6.41,15.84c0,7.08,4.31,12.26,8.1,16.82 C406.41,485.05,410.08,489.47,405.06,495.7z M337.12,149.29h-0.19c-3.42,0-6.21,2.78-6.21,6.21v18.49c0,0.55,0.45,1,1,1h10.6 c0.55,0,1-0.45,1-1v-18.49C343.32,152.07,340.54,149.29,337.12,149.29z M341.32,172.99h-8.6v-17.49c0-2.32,1.89-4.21,4.21-4.21 h0.19c2.32,0,4.21,1.89,4.21,4.21V172.99z M263.96,149.19v-7.06c0-0.55-0.45-1-1-1h-7.06c-0.55,0-1,0.45-1,1v7.06 c0,0.55,0.45,1,1,1h7.06C263.51,150.19,263.96,149.74,263.96,149.19z M261.96,148.19h-5.06v-5.06h5.06V148.19z M160.56,161.46 h-0.13c-2.48,0-4.51,2.02-4.51,4.51v6.86c0,0.55,0.45,1,1,1h7.14c0.55,0,1-0.45,1-1v-6.86 C165.06,163.48,163.04,161.46,160.56,161.46z M163.06,171.82h-5.14v-5.86c0-1.38,1.12-2.51,2.51-2.51h0.13 c1.38,0,2.51,1.12,2.51,2.51V171.82z M116.14,161.46h-0.13c-2.48,0-4.51,2.02-4.51,4.51v6.86c0,0.55,0.45,1,1,1h7.14 c0.55,0,1-0.45,1-1v-6.86C120.65,163.48,118.62,161.46,116.14,161.46z M118.65,171.82h-5.14v-5.86c0-1.38,1.12-2.51,2.51-2.51h0.13 c1.38,0,2.51,1.12,2.51,2.51V171.82z M371.26,255.83v-17.54v-52.02V165.9v-6.74v-2.72v-6.74v-2.72v-6.74v-8.96v-11.2V88.15v-43.9 c0-0.55-0.45-1-1-1H39.23c-0.55,0-1,0.45-1,1v45.83v61.86v11.2v3.97v6.69v4.96v15.96v34.22v11.25v8.57v0.41v20.23v186.36 c0,0.55,0.45,1,1,1h33.73h162.7h94.56h40.05c0.55,0,1-0.45,1-1v-199.9V255.83C371.26,255.83,371.26,255.83,371.26,255.83 C371.26,255.83,371.26,255.83,371.26,255.83z M359.92,259.37c-2.45-3.52-5.2-6.95-8.19-10.24c0.02-0.02,0.04-0.03,0.06-0.04 c0.01-0.01,0.02-0.02,0.03-0.03c0.16-0.15,0.32-0.32,0.51-0.55l0,0c0.01-0.01,0.02-0.01,0.02-0.02c0.02-0.02,0.03-0.04,0.05-0.06 c0.16-0.2,0.31-0.41,0.47-0.64c0,0,0,0,0,0c0,0,0,0,0-0.01c0,0,0,0,0,0c0,0,0,0,0,0c0,0,0-0.01,0.01-0.01c0,0,0,0,0,0c0,0,0,0,0,0 c0,0,0,0,0,0c0,0,0,0,0-0.01c0.02-0.02,0.04-0.06,0.06-0.08c0.1-0.14,0.2-0.29,0.3-0.44c0-0.01,0.01-0.02,0.01-0.02c0,0,0,0,0,0 c0,0,0,0,0,0c0,0,0,0,0,0c0,0,0,0,0,0c0,0,0,0,0,0l0,0c0,0,0,0,0,0l0.09-0.14l0.11-0.16c0,0,0,0,0,0l0,0c0,0,0,0,0,0c0,0,0,0,0,0 c0,0,0,0,0,0c0,0,0,0,0,0c0.06-0.09,0.12-0.18,0.18-0.27l0.19-0.28l0,0c0,0,0,0,0,0c0,0,0,0,0,0c0.16-0.24,0.33-0.48,0.53-0.74 c0,0,0,0,0,0c0,0,0,0,0,0c0.01-0.01,0.01-0.02,0.02-0.03c0,0,0-0.01,0-0.01l0.01,0.01l0.11-0.14c0.11-0.15,0.22-0.29,0.34-0.44 l0.24-0.28c0.18-0.22,0.38-0.45,0.6-0.68c0.11-0.12,0.23-0.24,0.35-0.37c0.13-0.13,0.26-0.26,0.4-0.4c0.16-0.15,0.33-0.31,0.5-0.47 c0,0,0,0,0,0l0,0c0,0,0,0,0,0l0.01-0.01l0.3-0.28c0.22-0.19,0.34-0.46,0.34-0.75v-1.73c2.86-0.43,5.32-1.19,6.36-1.55 c1.73,1.21,3.53,1.62,5.31,1.22v15.51l-0.76,0.34L359.92,259.37z M308.84,228.16c-0.27-0.25-0.67-0.33-1.02-0.2 c-0.11,0.04-10.49,3.78-14.9-0.14c-2.05-1.83-2.51-5.18-1.36-9.96c0.04-0.15,0.04-0.32,0-0.47c0-0.01-0.16-0.67-0.27-1.65 c0,0,0,0,0,0c0,0,0,0,0-0.01c-0.02-0.16-0.04-0.33-0.05-0.51l-0.17,0.02c-0.03-0.03-0.05-0.07-0.08-0.1l0.24-0.05 c-0.02-0.2-0.03-0.41-0.04-0.62l-0.01-0.19c-0.01-0.18-0.01-0.37-0.01-0.57c0,0,0-0.16,0-0.16c0-0.22,0.01-0.45,0.03-0.69 l0.02-0.23c0.02-0.21,0.04-0.42,0.07-0.63l-0.99-0.13l1.01-0.01c0.03-0.22,0.08-0.45,0.12-0.66l0.05-0.22 c0.06-0.23,0.12-0.46,0.2-0.69c0,0,0.04-0.11,0.04-0.11c0.07-0.19,0.14-0.38,0.23-0.57l0.08-0.18c0.1-0.21,0.21-0.41,0.33-0.6 l-0.84-0.54l0.93,0.42c0.11-0.16,0.23-0.32,0.35-0.46c0,0,0.11-0.13,0.11-0.13c0.16-0.17,0.33-0.33,0.51-0.48l-0.63-0.77l0.76,0.68 c0.17-0.13,0.35-0.25,0.54-0.36c0.01,0,0.12-0.07,0.12-0.07c0.22-0.12,0.47-0.23,0.75-0.32l0.2-0.06c0.26-0.08,0.54-0.15,0.83-0.21 l0.12-0.03c0.31-0.05,0.66-0.09,1.08-0.11l0.28-0.01c0.47-0.01,0.88,0,1.29,0.03c0.48,0.05,0.95-0.3,1.06-0.79 c0.01-0.07,1.45-6.58,5.29-8.35c1.59-0.74,3.38-0.55,5.45,0.56c0.36,0.2,0.81,0.15,1.12-0.12c0.12-0.1,11.74-9.82,19.64-4.93 c0.3,0.18,0.68,0.16,0.99,0c0.31-0.16,0.52-0.51,0.54-0.86l-0.96-0.06l0.97-0.04l0.11-0.56c0.03-0.1,0.06-0.2,0.12-0.4l0.08-0.21 c0-0.01,0.01-0.02,0.01-0.03c0,0,0,0,0,0c0.11-0.26,0.24-0.52,0.4-0.76c0,0,0,0,0,0l0,0c0.2-0.3,0.41-0.56,0.69-0.82 c0.07-0.06,0.15-0.13,0.22-0.19l0.12-0.1c0.07-0.05,0.14-0.11,0.23-0.16l0.15-0.09c0,0,0.11-0.07,0.12-0.07l0.14-0.08 c0.14-0.07,0.29-0.14,0.45-0.21l0.1-0.04c0,0,0.1-0.03,0.1-0.04c0.12-0.04,0.24-0.09,0.37-0.12l0.23-0.06 c0.15-0.04,0.3-0.07,0.45-0.1c0,0,0.1-0.02,0.1-0.02l0.11-0.02c0.5-0.08,1.05-0.12,1.63-0.11l0.22,0.01 c0.25,0.01,0.51,0.02,0.78,0.05l0.25,0.02c0.32,0.03,0.64,0.08,0.99,0.14l0.17-0.99l-0.05,1c0.4,0.07,0.82,0.16,1.26,0.26 l0.23-0.97l-0.07,1.02c0.37,0.09,0.76,0.2,1.17,0.31l0.37,0.11c0.36,0.11,0.74,0.23,1.13,0.37l0.39,0.14 c0.52,0.19,1.05,0.39,1.6,0.61c0.29,0.12,0.62,0.09,0.88-0.06c0.12-0.07,11.62-6.74,17.82-0.76c0.34,0.33,0.85,0.37,1.24,0.12 c0.01-0.01,0.85-0.55,2.07-1.16v49.79c-1.5,0.51-2.98,0.17-4.52-1.05c-0.28-0.22-0.64-0.28-0.97-0.15 c-0.03,0.01-2.8,1.05-6.17,1.58v-7.54c0-0.5-0.36-0.92-0.86-0.99c-0.11-0.02-10.75-1.58-18.09-4.33c-0.37-0.14-0.72-0.25-1.06-0.35 c0,0,0,0,0,0c-1.83-0.57-3.46-0.77-4.84-0.59c-3.46,0.46-4.33,3.02-4.37,3.13c-0.06,0.18-0.07,0.38-0.02,0.56l0.21,0.78l0.2,0.78 l2.46,9.41c0.03,0.12,0.08,0.23,0.16,0.33c0.04,0.06,0.12,0.14,0.17,0.21c-5.14,0.79-8.54,0.32-9.65-1.35 c-0.18-0.27-0.47-0.43-0.79-0.45c-0.09,0-8.61-0.4-11.39-4.21c-0.86-1.18-1.06-2.57-0.6-4.24 C309.23,228.8,309.12,228.41,308.84,228.16z M197.05,205.15l9.96-1.65l9.96,1.65l2.09,0.35v3.22c0,1.16-1.5,2.37-3.81,3.08 l-2.21,0.68c-3.95,1.21-8.12,1.21-12.08,0l-2.21-0.68c-2.31-0.71-3.81-1.92-3.81-3.08v-3.22L197.05,205.15z M216.14,202.98 l-8.96-1.49c-0.11-0.02-0.22-0.02-0.33,0l-8.96,1.48v-1.66l4.1-2.37l5.18-0.41h3.57c0.39,0,0.77,0.1,1.11,0.3l4.3,2.48V202.98z M166.22,205.15l9.96-1.65l9.96,1.65l2.09,0.35v3.22c0,1.16-1.5,2.37-3.81,3.08l-2.21,0.68c-3.95,1.21-8.13,1.21-12.08,0 l-2.21-0.68c-2.31-0.71-3.81-1.92-3.81-3.08v-3.22L166.22,205.15z M185.32,202.98l-8.96-1.48c-0.11-0.02-0.22-0.02-0.33,0 l-8.96,1.48v-1.66l4.1-2.37l5.18-0.41h3.57c0.39,0,0.77,0.1,1.11,0.3l4.3,2.48V202.98z M265.83,177.76v-3.29v-5.36v-7.63h9.02 h21.48h16.55v16.27H265.83z M210.43,177.76l-0.15-1.31h4.33c0.55,0,1-0.45,1-1v-9.24c0-2.03-1.3-3.83-3.24-4.49 c-0.53-0.18-1.02-0.26-1.51-0.26h-0.14c-0.73,0-1.43,0.17-2.07,0.49l-0.19-1.65h6.14c0.55,0,1-0.45,1-1v-9.24 c0-2.62-2.13-4.75-4.75-4.75h-0.14c-2.62,0-4.75,2.13-4.75,4.75v7.5c-1.45,4.25-2.82,9.87-3.97,16.29c-0.23,1.3-0.44,2.6-0.65,3.9 h-14.62v-19.24v-6.21v-8.24h31.19v11.39v7.66c0,0.55,0.44,1,0.99,1c1.78,0.01,4.02,0.02,6.5,0.02c5.77,0,12.87-0.03,18.58-0.06 c2.68-0.01,5.1-0.03,7.02-0.04v4.56v5.88v3.29H210.43z M202.61,196.89c-0.05-0.73-0.1-1.47-0.14-2.23 c-0.2-3.46-0.33-8.08,0.36-13.13c0.12-0.87,0.25-1.74,0.38-2.62c0.24-1.57,0.5-3.14,0.78-4.7c0.8-4.49,1.72-8.57,2.68-12.05 l0.2,1.78l1.31,11.63l2.17,19.27c0,0,0,0,0,0c0,0,0,0,0,0l0.01,0.1l-3.49,1.63L202.61,196.89z M210.06,174.45l-1.15-10.26 c0.5-0.46,1.14-0.73,1.82-0.73h0.14c0.27,0,0.56,0.05,0.87,0.16c1.12,0.38,1.88,1.42,1.88,2.59v8.24H210.06z M208.24,158.3 l-0.13-1.12c-0.02-0.14-0.07-0.27-0.14-0.39v-6.73c0-1.52,1.23-2.75,2.75-2.75h0.14c1.52,0,2.75,1.23,2.75,2.75v8.24H208.24z M178.17,194.04C178.17,194.04,178.17,194.04,178.17,194.04C178.17,194.04,178.17,194.04,178.17,194.04l-2.34,2.53l-4.04,0.32 c-0.05-0.72-0.09-1.46-0.12-2.22c-0.18-4.4-0.07-8.84,0.33-13.19c0.08-0.87,0.18-1.71,0.28-2.55l0.01-0.06c0,0,0,0,0,0 c0.2-1.65,0.42-3.23,0.67-4.68c0.74-4.4,1.81-8.77,3.14-13.05l0.33,1.54c0.1,0.48,0.53,0.79,1.02,0.79c0.05,0,0.11-0.01,0.09-0.01 h0.13c1.38,0,2.51,1.12,2.51,2.51v5.86h-0.55c-0.3,0-0.59,0.14-0.78,0.37c-0.19,0.23-0.26,0.54-0.2,0.84l1.27,5.93l2.29,10.7 L178.17,194.04z M126.79,177.76v-18.25l1.29-0.01c0.17,0,0.34-0.05,0.48-0.13v13.46c0,0.55,0.45,1,1,1h8.51c0.55,0,1-0.45,1-1 v-19.38c0-2.86-2.32-5.18-5.18-5.18h-0.15c-2.86,0-5.18,2.32-5.18,5.18v3.61l-2.09-5.11c-0.15-0.38-0.52-0.62-0.93-0.62H104.3 v-7.24h47.05v11.39v22.3H126.79z M108.4,177.76c-1.2-1.53-2.41-3-3.59-4.38l-1.03-1.18c-0.08-0.09-0.16-0.18-0.24-0.28v-5.96 c0-2.48-2.02-4.51-4.51-4.51h-0.13c-1.49,0-2.84,0.75-3.67,1.92c-0.16-0.15-0.32-0.3-0.49-0.45c-1.25-1.16-2.5-2.27-3.74-3.33 c0.91,0.01,1.93,0.01,3.06,0.01c1.12,0,2.33,0,3.6,0c1.77,0,3.68,0,5.63-0.01c7.98-0.02,16.83-0.06,21.49-0.09v18.24H108.4z M101.54,169.75c-1.58-1.7-3.18-3.36-4.83-4.95c0.43-0.81,1.26-1.34,2.19-1.34h0.13c1.38,0,2.51,1.12,2.51,2.51V169.75z M40.23,229.33c6.28-6.63,12.08-13.78,17.22-21.27c2.79-4.06,5.47-8.37,7.98-12.81l22.59-33.08l-2.79,32.46 c0,0.02,0.01,0.04,0.01,0.06c0,0.02-0.01,0.04-0.01,0.06c0.02,0.78,0.05,1.57,0.06,2.36c0.28,14.05-0.68,28.2-2.85,42.08h-42.2 V229.33z M46.4,168.11v4.69h-6.17v-4.69H46.4z M47.4,174.8c0.55,0,1-0.45,1-1v-6.69c0-0.55-0.45-1-1-1h-7.17v-1.97h10.53v13.62 H40.23v-2.96H47.4z M40.23,152.41L40.23,152.41l4.15,3.4l7.72,6.33h-0.34H40.23V152.41z M369.26,130.28h-22.81l17.34-14.22 l5.47,4.49V130.28z M344.53,143.33l1.26,2.67l-0.36,0h-0.04c0,0,0,0,0,0c-6.69,0.03-40.52,0.19-49.03,0.07 c-0.19,0-0.36-0.01-0.51-0.01l2.09-4.97h45.55L344.53,143.33z M296.33,154.46h15.63l2.32,4.91c-3.02,0.02-10.04,0.05-17.95,0.08 c-7.2,0.02-15.13,0.05-21.47,0.04c-6.06,0-9.06-0.03-10.53-0.06l2.09-4.97h8.43H296.33z M253.03,168.94 c1.23-1.55,3.11-2.48,5.09-2.48h0.27c2.22,0,4.23,1.11,5.44,2.96v4.05h-10.8V168.94z M263.83,166.44c-1.5-1.26-3.4-1.98-5.44-1.98 h-0.27c-1.85,0-3.63,0.63-5.09,1.72v-2.16l2.41-0.02c0.32,0,0.62-0.16,0.81-0.42c0.19-0.26,0.24-0.59,0.14-0.9l-2.51-7.54 c-0.14-0.41-0.52-0.68-0.95-0.68H245v-4.83c0.17,0.32,0.49,0.55,0.88,0.55h7.06c0.55,0,1-0.45,1-1v-7.06c0-0.55-0.45-1-1-1h-7.06 c-0.39,0-0.72,0.23-0.88,0.55v-2.18c1.51,0.01,3.3,0.02,5.29,0.02c7.69,0,17.98-0.08,23.57-0.13v2.29 c-0.17-0.32-0.49-0.55-0.88-0.55h-7.06c-0.55,0-1,0.45-1,1v7.06c0,0.55,0.45,1,1,1h7.06c0.39,0,0.72-0.23,0.88-0.55v2.83h-8.1 c-0.4,0-0.77,0.24-0.92,0.61l-2.9,6.9c-0.05,0.12-0.08,0.25-0.08,0.39c0,1.01,0.91,1.03,1.87,1.05c0.03,0,0.07,0,0.11,0V166.44z M246.88,148.19v-5.06h5.06v5.06H246.88z M271.97,143.12v5.06h-5.06v-5.06H271.97z M274.85,137.37 c-6.84,0.06-23.54,0.19-30.83,0.11c-1.1-0.01-1.84-0.03-2.34-0.04l1.65-7.37h31.96l1.83,7.29L274.85,137.37z M244,156.46h8.2 l1.85,5.55l-2.03,0.01c-2.04,0.01-4.85,0.03-8.03,0.05c-7.73,0.04-17.97,0.08-24.06,0.05v-5.66H244z M218.94,142.07h-33.19h-2.21 l18.81-12.34l18.81,12.34H218.94z M184.75,157.52c-2.18,0.01-5.03,0.03-8.18,0.04c-0.12,0-0.23,0.04-0.34,0.08 c-0.11-0.04-0.24-0.08-0.36-0.08c0,0,0,0,0,0c-7.16,0.03-16.68,0.06-22.52,0.03v-2.14v-2.15h31.4V157.52z M103.3,153.31h21.58 l1.71,4.19l-0.8,0l0,0c-4.29,0.02-13.9,0.07-22.49,0.09c-3.36,0.01-6.56,0.01-9.23,0c-1.93,0-3.58-0.01-4.8-0.03c0,0,0,0,0,0 l-0.67-0.01c-0.06-0.05-0.11-0.09-0.17-0.14l1.5-4.12h4.14H103.3z M93.07,147.58v3.73h-3.84c-0.42,0-0.8,0.26-0.94,0.66l-1.98,5.44 c-0.15,0.4-0.02,0.85,0.31,1.12c0.31,0.25,0.62,0.5,0.94,0.76l-12.83,18.8l-21.96-0.32v-13.64h2.14c0.42,0,0.8-0.27,0.94-0.66 c0.14-0.4,0.02-0.84-0.31-1.11l-9.51-7.8v-6.98h10.4c0.12,0,0.24,0,0.36,0H93.07z M56.41,145.58c-6.98,0-10.33-0.03-11.9-0.06 l2.09-4.97h45.55l2.32,4.91C88.89,145.49,69.6,145.57,56.41,145.58z M51.75,179.76l21.62,0.32l-9.31,13.64H40.23v-13.96H51.75z M58.3,241.19l-9.18,0.74c-0.15,0.01-0.3,0.06-0.43,0.13l-8.47,4.96v-5.83H58.3z M87.28,197.07c-0.01-0.45-0.02-0.9-0.03-1.35h5.46 c0.1,2.88,0.05,5.77-0.14,8.59c-0.68,10.27-3.15,20.23-7.36,29.68C86.83,221.76,87.53,209.37,87.28,197.07z M87.31,193.72 l1.17-13.61h2.35l1.7,13.61H87.31z M88.65,178.1l0.79-9.16l1.14,9.16H88.65z M130.56,171.82v-18.38c0-1.75,1.43-3.18,3.18-3.18 h0.15c1.75,0,3.18,1.43,3.18,3.18v18.38H130.56z M106.49,142.07l21.34-14.84l21.34,14.84H106.49z M153.35,159.6 c5.48,0.02,14.18,0,21.14-0.03c-1.51,4.68-2.68,9.48-3.5,14.3c-0.2,1.21-0.39,2.53-0.56,3.89h-17.08V159.6z M181.7,177.76 l-0.84-3.93h0.31c0.55,0,1-0.45,1-1v-6.86c0-2.3-1.73-4.2-3.95-4.47l-0.41-1.94c2.66-0.01,5.05-0.02,6.94-0.03v18.23H181.7z M253.03,175.47h10.8v2.29h-10.8V175.47z M314.88,161.36c0.63,0,0.98-0.01,0.98-0.01c0.34,0,0.66-0.18,0.84-0.47 c0.08-0.12,0.12-0.25,0.14-0.39v13.48c0,0.55,0.45,1,1,1h10.6c0.55,0,1-0.45,1-1v-18.49c0-3.42-2.78-6.21-6.21-6.21h-0.19 c-3.42,0-6.21,2.78-6.21,6.21v4.68c-0.02-0.08-0.04-0.16-0.08-0.24l-3.26-6.9c-0.17-0.35-0.52-0.57-0.9-0.57h-15.27v-4.39 c2.47,0.03,6.29,0.04,10.74,0.04c12.61,0,30.24-0.08,36.31-0.11v26.03v3.73h-29.5V161.36z M318.84,172.99v-17.49 c0-2.32,1.89-4.21,4.21-4.21h0.19c2.32,0,4.21,1.89,4.21,4.21v17.49H318.84z M346.39,174.27c0.02-0.08,0.05-0.16,0.05-0.24v-26.04 l0.93,0c0.1,0,0.19-0.02,0.28-0.04v18.4c0,0.55,0.45,1,1,1h11.57c0.55,0,1-0.45,1-1v-21.67c0-3.69-3-6.68-6.68-6.68h-0.21 c-3.69,0-6.68,3-6.68,6.68v0.57l-1.21-2.57v-10.39h22.83v6.96h-5.5c-0.55,0-1,0.45-1,1v6.74c0,0.55,0.45,1,1,1h5.5v0.72h-5.5 c-0.55,0-1,0.45-1,1v6.74c0,0.55,0.45,1,1,1h5.5v0.72h-5.5c-0.55,0-1,0.45-1,1v6.74c0,0.55,0.45,1,1,1h5.5v10.86h-22.88V174.27z M349.65,165.34v-20.67c0-2.58,2.1-4.68,4.68-4.68h0.21c2.58,0,4.68,2.1,4.68,4.68v20.67H349.65z M364.76,145.98v-4.74h4.5v4.74 H364.76z M364.76,155.44v-4.74h4.5v4.74H364.76z M364.76,164.9v-4.74h4.5v4.74H364.76z M369.26,117.96l-4.84-3.97 c-0.37-0.3-0.9-0.3-1.27,0l-20.13,16.51c-0.33,0.27-0.45,0.71-0.31,1.11c0.14,0.4,0.52,0.66,0.94,0.66h0.78v6.87 c-0.1-0.04-0.21-0.06-0.33-0.06h-46.85c-0.4,0-0.77,0.24-0.92,0.61l-2.9,6.9c-0.05,0.12-0.08,0.25-0.08,0.39 c0,0.87,0.42,1.01,1.98,1.06v4.42h-19.48v-13.09l2.56-0.02c0.31,0,0.59-0.15,0.78-0.39c0.19-0.24,0.25-0.56,0.18-0.85l-2.33-9.28 c-0.11-0.44-0.51-0.76-0.97-0.76h-33.54c-0.47,0-0.87,0.32-0.98,0.78l-2.08,9.28c-0.02,0.07-0.02,0.15-0.02,0.22 c0,0.99,0.37,1.08,3.55,1.13v14.99h-23.06v-10.39h4.56c0.44,0,0.83-0.29,0.96-0.71c0.13-0.42-0.04-0.88-0.41-1.12l-22.16-14.53 c-0.33-0.22-0.76-0.22-1.1,0l-22.16,14.53c-0.37,0.24-0.54,0.7-0.41,1.12c0.13,0.42,0.52,0.71,0.96,0.71h4.56v7.24h-31.4v-8.24 c0-0.03-0.01-0.06-0.02-0.08c-0.01-0.07-0.02-0.13-0.04-0.2c-0.02-0.06-0.04-0.12-0.07-0.17c-0.03-0.06-0.06-0.1-0.1-0.15 c-0.04-0.05-0.09-0.1-0.14-0.15c-0.02-0.02-0.03-0.04-0.06-0.06l-24.53-17.06c-0.34-0.24-0.8-0.24-1.14,0l-24.53,17.06 c-0.02,0.02-0.04,0.04-0.06,0.06c-0.05,0.04-0.1,0.09-0.14,0.15c-0.04,0.05-0.07,0.1-0.1,0.15c-0.03,0.06-0.05,0.11-0.07,0.17 c-0.02,0.07-0.03,0.13-0.04,0.2c0,0.03-0.02,0.05-0.02,0.08v8.24h-7.23v-3.85c0.6,0,0.96,0,0.98-0.01c0.34,0,0.66-0.18,0.84-0.47 s0.2-0.65,0.06-0.96l-3.26-6.9c-0.17-0.35-0.52-0.57-0.9-0.57H45.94c-0.4,0-0.77,0.24-0.92,0.61l-2.91,6.9 c-0.05,0.12-0.08,0.25-0.08,0.39c0,1.01,0.87,1.03,1.98,1.06v5.4l-3.15-2.58c-0.19-0.15-0.41-0.23-0.64-0.23V90.79l6.03-2.74 c1.47,1.1,4.07,2.63,7.57,2.96c4.75,0.46,8.35-1.48,10.07-2.68c0.16-0.11,0.29-0.27,0.36-0.46c0.68-1.75,2.78-6.12,7.71-8.89 c5.21-2.93,10.27-2.26,12.33-1.8c3.51,1.86,7.03,3.71,10.54,5.58c0.35,0.19,0.78,0.15,1.09-0.1c1.05-0.83,3.27-2.23,6.28-2.29h0.27 c4.56,0,7.57,3.09,8.38,4.04c0.15,0.17,0.35,0.29,0.57,0.33c0.04,0.01,3.98,0.78,6.55,2.38c1.46,0.91,1.98,1.76,2.75,3.05 c0.59,0.98,1.33,2.2,2.68,3.67c1.93,2.11,4.35,3.87,7.2,5.24c0.26,0.13,0.57,0.13,0.84,0.01c3.44-1.52,6.86-2.12,10.16-1.8 c4.61,0.45,7.98,2.59,10.94,4.47c2.3,1.46,4.35,2.76,6.42,2.76c0.65,0,1.3-0.13,1.95-0.42c1.89-0.84,2.47-2.43,3.1-4.12 c0.55-1.49,1.18-3.19,2.85-4.87c2.64-2.65,6.62-4.03,11.84-4.09c0.36,0,0.69-0.2,0.86-0.51c1.78-3.19,5.87-8.92,13.25-11.45 c2.58-0.89,5.32-1.29,8.15-1.21c1.33,0.76,5.9,3,11.27,1.21c4.09-1.37,6.37-4.31,7.39-5.99c0.61-0.66,6.34-6.62,14.07-5.26 c4.56,0.81,7.47,3.67,8.8,5.3c0.17,0.21,0.43,0.35,0.7,0.37c0.28,0.02,0.55-0.08,0.75-0.26c0.89-0.82,2.4-1.88,4.51-2.26 c2.83-0.52,5.12,0.49,6.22,1.14c0.2,0.12,0.44,0.16,0.67,0.12c2.66-0.44,6.8-0.59,11.39,1.2c3.48,1.36,6.59,3.64,8.99,6.59 c0.26,0.33,0.7,0.45,1.1,0.32c0.4-0.14,0.67-0.5,0.68-0.92c0.05-2.04,0.5-5.13,2.36-8.3c1.36-2.29,3.01-3.83,4.1-4.69 c6.65-4.48,11.8-5.94,15.32-4.32c1.3,0.6,2.28,1.57,3.42,2.69c1.58,1.56,3.38,3.34,6.61,4.84c2.24,1.03,4.64,1.69,7.16,1.96 c2.3,0.49,6.61,1.9,10.05,5.93c2.88,3.38,3.85,7.04,4.15,9.51c0.06,0.52,0.47,0.89,1.04,0.88c6.42-0.28,10.38-1.88,12.1-4.9 c0.45-0.78,0.69-1.57,0.91-2.27c0.32-1.03,0.56-1.84,1.35-2.46c1.11-0.86,2.83-1.04,5.13-0.51l6.65,7.26l4.99,6.85 c0.32,0.44,0.93,0.54,1.38,0.23c1.59-1.1,3.29-1.96,5.05-2.57V117.96z M40.23,195.72h22.63c-2.24,3.88-4.61,7.65-7.06,11.21 c-4.68,6.82-9.91,13.36-15.57,19.47V195.72z M40.23,250.17h95.67l-4.54,5.88c-6.06,7.85-14.79,12.35-23.97,12.35H40.23V250.17z M42.22,248.17l7.29-4.27l33.82-2.71h49.68l3.34,6.98H42.22z M86.29,239.19c4.16-2.9,10.15-5.9,17.8-6.76 c12-1.34,21.41,3.37,26.47,6.76H86.29z M103.87,230.44c-7.52,0.84-13.5,3.66-17.83,6.5c4.91-10.3,7.78-21.21,8.53-32.51 c0.21-3.21,0.25-6.49,0.1-9.77c0-0.01-0.01-0.03-0.01-0.04c0-0.01,0-0.03,0-0.04l-4.09-32.73c0.94,0.83,1.9,1.68,2.87,2.58 c0.47,0.43,0.93,0.87,1.41,1.32c2.38,2.28,4.72,4.7,6.94,7.2l1.5,1.72c1.25,1.46,2.54,3.03,3.81,4.66l10.55,15.88 c7.45,13.32,12.38,27.68,14.65,42.73C127.18,234.39,116.99,228.98,103.87,230.44z M119.05,193.72l-9.27-13.96h16.01h26.56h17.84 c-0.06,0.51-0.12,1.02-0.17,1.54c-0.38,4.1-0.49,8.27-0.36,12.42H119.05z M184.03,190.65c0.22-0.24,0.31-0.57,0.24-0.89l-2.14-10 h3.62h15.31c-0.07,0.5-0.15,1-0.22,1.5c-0.65,4.72-0.59,9.05-0.43,12.46h-19.22L184.03,190.65z M212.23,193.72l-1.57-13.96h41.37 h12.8h49.05h31.5h23.88v5.85c-1.06,0.48-1.94,0.96-2.5,1.29c-6.65-5.56-16.94-0.48-19.21,0.76c-0.42-0.17-0.83-0.32-1.23-0.46 l-0.42-0.14c-0.41-0.14-0.81-0.27-1.2-0.39l-0.4-0.12c-0.43-0.13-0.85-0.24-1.31-0.35c-0.01,0-0.11-0.03-0.12-0.03 c-0.48-0.11-0.94-0.21-1.38-0.28l-0.17,0.99l0.04-1c-0.38-0.06-0.75-0.11-1.1-0.15l-0.29-0.03c-0.31-0.03-0.61-0.05-0.98-0.06 l-0.17-0.01c-0.71-0.01-1.36,0.03-1.97,0.13l-0.27,0.05c-0.2,0.04-0.4,0.08-0.58,0.13c-0.1,0.03-0.2,0.05-0.3,0.08 c-0.17,0.05-0.33,0.1-0.57,0.19c-0.07,0.02-0.13,0.05-0.2,0.07c-0.22,0.09-0.43,0.19-0.62,0.29c-0.09,0.05-0.17,0.09-0.25,0.14 l0.52,0.86l-0.62-0.79c-0.08,0.05-0.16,0.1-0.23,0.14c-0.12,0.08-0.22,0.15-0.33,0.23l-0.18,0.14c-0.11,0.09-0.22,0.18-0.37,0.32 c-0.21,0.2-0.41,0.42-0.59,0.65l-19.41-6.69c-0.26-0.09-0.54-0.07-0.79,0.06l-35.74,18.47c-0.28,0.14-0.47,0.4-0.53,0.71 c-0.05,0.31,0.03,0.62,0.24,0.85l4.86,5.38c-17.63-5.83-37.26-10.31-58.47-13.29c-0.05-0.01-0.09-0.01-0.14-0.01H212.23z M284.96,208.49l-6.53-7.23l34.21-17.68l18.64,6.42c-0.02,0.05-0.04,0.1-0.06,0.15l-0.04,0.13c-0.01,0.04-0.02,0.07-0.04,0.11 c-7.99-3.64-17.85,3.47-20.23,5.35c-2.4-1.14-4.63-1.24-6.64-0.31c-3.85,1.79-5.62,6.89-6.19,8.92c-0.21,0-0.42,0-0.65,0 l-0.33,0.01c-0.5,0.02-0.93,0.07-1.33,0.14l-0.14,0.03c-0.36,0.07-0.71,0.16-1.13,0.29l-0.2,0.07c-0.37,0.13-0.71,0.28-1.01,0.44 c-0.05,0.03-0.1,0.06-0.18,0.11c-0.27,0.15-0.52,0.32-0.8,0.53l-0.14,0.11c-0.25,0.21-0.49,0.43-0.71,0.67l-0.16,0.18 c-0.18,0.21-0.35,0.42-0.52,0.68l-0.09,0.13c-0.17,0.26-0.31,0.53-0.45,0.81l-0.1,0.23c-0.11,0.24-0.21,0.49-0.3,0.76 c-0.01,0.01-0.04,0.1-0.04,0.12c-0.09,0.28-0.17,0.56-0.24,0.86l-0.06,0.26c-0.06,0.26-0.11,0.53-0.15,0.79l-0.02,0.17 c-0.03,0.25-0.06,0.49-0.08,0.74l-0.02,0.26c-0.01,0.15-0.01,0.3-0.02,0.45L284.96,208.49z M333.8,238.89 c-0.01-0.01-0.02-0.02-0.02-0.02c0,0,0,0,0,0c0,0,0,0,0,0c-0.34-0.35-0.54-0.57-0.66-0.71l-2.41-9.21l-0.32-1.22 c0.25-0.43,0.96-1.34,2.62-1.56c1.08-0.14,2.43,0.03,3.98,0.51c0,0,0,0,0,0c0.15,0.05,0.32,0.11,0.48,0.16 c0.16,0.05,0.31,0.1,0.48,0.16c6.4,2.4,14.93,3.88,17.65,4.31v9.99c0,0,0,0,0,0c-0.19,0.17-0.37,0.34-0.55,0.51 c-0.15,0.15-0.3,0.29-0.44,0.44c-0.14,0.14-0.27,0.28-0.39,0.41c-0.24,0.26-0.46,0.51-0.66,0.75l-0.26,0.31 c-0.13,0.17-0.26,0.33-0.38,0.49l-0.15,0.2l0,0c0,0,0,0,0,0c-0.19,0.26-0.37,0.51-0.53,0.75c-0.01,0.02-0.03,0.03-0.04,0.05 c0,0,0,0,0,0c0,0,0,0,0,0l-0.2,0.3c-0.06,0.09-0.12,0.18-0.18,0.27c0,0,0,0,0,0l0,0c0,0,0,0,0,0l-0.18,0.26l-0.03,0.05l0,0 c0,0,0,0,0,0c-0.01,0.01-0.02,0.02-0.02,0.03c0,0,0,0,0,0c0,0,0,0,0,0c0,0.01-0.01,0.01-0.01,0.02c0,0,0,0,0,0 c-0.05,0.07-0.09,0.13-0.13,0.2c-0.06,0.09-0.13,0.19-0.19,0.28c0,0,0,0,0,0c-0.09,0.13-0.18,0.24-0.27,0.36 c-0.02,0.03-0.04,0.06-0.06,0.08c-0.03,0.04-0.07,0.1-0.1,0.14c0,0,0,0,0,0c0,0,0,0,0,0c-0.02,0.02-0.02,0.04-0.03,0.06l-0.01-0.01 c-0.09,0.1-0.18,0.2-0.27,0.29c-0.01,0.01-0.02,0.02-0.03,0.03c-0.08,0.07-0.16,0.13-0.32,0.23c-0.07,0.04-0.15,0.07-0.27,0.12 c0,0,0,0,0,0c0,0,0,0,0,0c-0.69,0.22-1.88,0.04-3.74-0.57C342.06,246.04,336.11,241.21,333.8,238.89z M40.23,45.25h329.04v42.16 c-1.87,0.58-3.67,1.42-5.37,2.51l-4.46-6.12c-0.02-0.03-0.04-0.06-0.07-0.09l-6.89-7.53c-0.13-0.15-0.31-0.25-0.5-0.3 c-3.06-0.76-5.46-0.49-7.13,0.81c-1.28,1.01-1.68,2.31-2.03,3.45c-0.2,0.65-0.39,1.27-0.73,1.86c-1.26,2.21-4.47,3.5-9.55,3.84 c-0.46-2.69-1.62-6.28-4.48-9.64c-3.85-4.51-8.68-6.07-11.21-6.6c-0.03-0.01-0.07-0.01-0.1-0.02c-2.31-0.24-4.53-0.84-6.58-1.79 c-2.92-1.35-4.58-3-6.05-4.44c-1.22-1.2-2.37-2.34-3.99-3.08c-4.25-1.96-9.91-0.49-17.33,4.52c-1.28,1-3.12,2.73-4.64,5.29 c-1.45,2.47-2.13,4.89-2.43,6.91c-2.35-2.38-5.16-4.24-8.25-5.44c-4.81-1.88-9.17-1.8-12.09-1.36c-1.44-0.77-4.06-1.78-7.27-1.2 c-2.04,0.37-3.61,1.25-4.72,2.1c-1.71-1.87-4.81-4.43-9.34-5.24c-9.27-1.63-15.71,5.67-15.98,5.98c-0.04,0.05-0.08,0.09-0.11,0.15 c-0.85,1.43-2.8,4.01-6.35,5.2c-4.91,1.64-9.04-0.68-9.82-1.16c-0.15-0.09-0.31-0.14-0.49-0.15c-3.18-0.13-6.25,0.31-9.14,1.31 c-7.64,2.62-12.01,8.36-14.06,11.87c-5.48,0.16-9.74,1.73-12.66,4.67c-1.98,2-2.71,3.99-3.3,5.59c-0.6,1.63-0.97,2.51-2.03,2.98 c-1.69,0.75-3.48-0.29-6.5-2.2c-3-1.9-6.73-4.27-11.82-4.77c-0.64-0.06-1.29-0.1-1.94-0.1c-2.89,0-5.83,0.62-8.79,1.87 c-2.44-1.23-4.52-2.77-6.19-4.59c-1.22-1.33-1.87-2.4-2.44-3.35c-0.82-1.37-1.54-2.55-3.41-3.71c-2.45-1.52-5.82-2.34-6.9-2.57 c-1.21-1.33-4.62-4.47-9.67-4.47l-0.29,0c-3.16,0.07-5.57,1.35-6.96,2.33c-3.37-1.79-6.73-3.57-10.1-5.34 c-0.08-0.04-0.16-0.07-0.24-0.09c-2.2-0.52-7.96-1.35-13.89,1.98c-5.23,2.94-7.61,7.51-8.48,9.62c-1.58,1.05-4.58,2.54-8.49,2.17 c-3.4-0.33-5.84-1.96-6.99-2.91c-0.29-0.24-0.7-0.3-1.05-0.14l-5.76,2.62V45.25z M40.23,270.4h67.16c9.8,0,19.12-4.79,25.56-13.13 l5.78-7.49c0.03-0.03,0.03-0.07,0.05-0.11c0.03-0.05,0.06-0.09,0.08-0.14c0.01-0.02,0.01-0.05,0.02-0.07 c0.02-0.06,0.02-0.11,0.03-0.17c0.01-0.04,0.02-0.08,0.02-0.12c0-0.01,0-0.01,0-0.02c0-0.02,0-0.04-0.01-0.07 c-0.01-0.06-0.03-0.12-0.04-0.18c-0.01-0.05-0.02-0.1-0.04-0.15c0-0.01,0-0.02-0.01-0.02l-4.23-8.84 c-2.08-15.54-6.92-30.4-14.4-44.18h49.51c0.03,0.58,0.06,1.14,0.1,1.7l-4.26,2.46c-0.31,0.18-0.5,0.51-0.5,0.87v2.57l-2.09,0.35 c-0.48,0.08-0.84,0.5-0.84,0.99v4.07c0,2.12,1.95,3.99,5.22,5l2.21,0.68c2.17,0.67,4.4,1,6.63,1c2.23,0,4.46-0.33,6.63-1l2.21-0.68 c3.27-1.01,5.22-2.87,5.22-5v-4.07c0-0.49-0.35-0.91-0.84-0.99l-2.09-0.35v-2.57c0-0.36-0.19-0.69-0.5-0.87l-4.8-2.77 c-0.64-0.37-1.37-0.56-2.11-0.56h-1.32l0.76-0.82h21.18c0.04,0.58,0.07,1.14,0.11,1.7l-4.26,2.46c-0.31,0.18-0.5,0.51-0.5,0.87 v2.57l-2.09,0.35c-0.48,0.08-0.84,0.5-0.84,0.99v4.07c0,2.12,1.95,3.99,5.22,5l2.21,0.68c2.17,0.67,4.4,1,6.63,1s4.46-0.33,6.63-1 l2.21-0.68c3.27-1.01,5.22-2.87,5.22-5v-4.07c0-0.49-0.35-0.91-0.84-0.99l-2.09-0.35v-2.57c0-0.36-0.19-0.69-0.5-0.87l-4.8-2.77 c-0.42-0.24-0.89-0.4-1.37-0.49l0.38-0.18c0.3-0.14,0.5-0.41,0.56-0.72h9.84c22.41,3.16,43.06,7.97,61.4,14.31l5.71,6.32 c0.08,0.56,0.16,1.01,0.21,1.26c-1.26,5.44-0.58,9.37,2.03,11.7c4.16,3.7,11.94,2.02,15.31,1.04c-0.1,1.57,0.3,2.98,1.21,4.23 c2.96,4.05,10.45,4.86,12.44,5c1.24,1.48,3.43,2.22,6.63,2.22c1.72,0,3.76-0.22,6.08-0.65c2.7,2.48,8.12,6.78,12.26,8.14 c1.57,0.51,2.73,0.76,3.67,0.76c0.22,0,0.43-0.02,0.63-0.04c3.01,3.27,5.77,6.7,8.23,10.21l-11.36,5.07 c-0.11,0.05-0.21,0.11-0.29,0.2l-34.57,33.67l-44.56,15.92l-45.8,19.92c-0.15,0.07-0.28,0.17-0.39,0.3l-18.38,23.28l-23.53,2.4 c-0.3,0.03-0.56,0.19-0.73,0.44l-19.53,29.18l-2.04-0.17l-27.88-1.62c-0.24-0.01-0.47,0.06-0.66,0.2l-25.89,19.47 c-0.09,0.07-0.17,0.16-0.24,0.26l-29.8,46.04H40.23V270.4z M329.45,454.75h-93.21l-18.8-33c-0.03-0.04-0.05-0.09-0.09-0.13 l-21.91-27.6c-0.17-0.21-0.42-0.35-0.7-0.37l-33.55-2.87l18.66-27.87l23.46-2.4c0.01,0,0.01,0,0.02,0l13.41-1.37l19.57,19.89 c0.17,0.18,0.4,0.28,0.65,0.3l39.46,2.5l25.57,24.98l29.54,40L329.45,454.75z M159.34,392.62l34.81,2.98l21.59,27.2l18.2,31.95 H74.8l29-44.81l25.46-19.15l27.49,1.6L159.34,392.62z M331.51,454.75l2.08-7.92c0.08-0.29,0.02-0.6-0.16-0.85l-29.88-40.45 c-0.03-0.04-0.07-0.08-0.11-0.12l-25.89-25.29c-0.17-0.17-0.4-0.27-0.64-0.28l-39.44-2.5l-19.64-19.96 c-0.21-0.22-0.51-0.32-0.81-0.29l-11.54,1.18l17.02-21.56l45.51-19.79l44.7-15.97c0.14-0.05,0.26-0.12,0.36-0.22l34.6-33.69 l21.59-9.65v197.36H331.51z M278.12,164.36h-6.55c-0.55,0-1,0.45-1,1v6.55c0,0.55,0.45,1,1,1h6.55c0.55,0,1-0.45,1-1v-6.55 C279.12,164.81,278.68,164.36,278.12,164.36z M277.12,170.91h-4.55v-4.55h4.55V170.91z M288.37,164.36h-6.55c-0.55,0-1,0.45-1,1 v6.55c0,0.55,0.45,1,1,1h6.55c0.55,0,1-0.45,1-1v-6.55C289.37,164.81,288.92,164.36,288.37,164.36z M287.37,170.91h-4.55v-4.55 h4.55V170.91z M298.62,164.36h-6.55c-0.55,0-1,0.45-1,1v6.55c0,0.55,0.45,1,1,1h6.55c0.55,0,1-0.45,1-1v-6.55 C299.62,164.81,299.17,164.36,298.62,164.36z M297.62,170.91h-4.55v-4.55h4.55V170.91z M308.87,164.36h-6.55c-0.55,0-1,0.45-1,1 v6.55c0,0.55,0.45,1,1,1h6.55c0.55,0,1-0.45,1-1v-6.55C309.87,164.81,309.42,164.36,308.87,164.36z M307.87,170.91h-4.55v-4.55 h4.55V170.91z M67.47,158.53h6.67c0.55,0,1-0.45,1-1v-6.67c0-0.55-0.45-1-1-1h-6.67c-0.55,0-1,0.45-1,1v6.67 C66.47,158.08,66.92,158.53,67.47,158.53z M68.47,151.85h4.67v4.67h-4.67V151.85z M55.7,150.85v6.67c0,0.55,0.45,1,1,1h6.67 c0.55,0,1-0.45,1-1v-6.67c0-0.55-0.45-1-1-1H56.7C56.14,149.85,55.7,150.3,55.7,150.85z M57.7,151.85h4.67v4.67H57.7V151.85z M67.29,171.98h6.67c0.55,0,1-0.45,1-1v-6.67c0-0.55-0.45-1-1-1h-6.67c-0.55,0-1,0.45-1,1v6.67 C66.29,171.53,66.74,171.98,67.29,171.98z M68.29,165.3h4.67v4.67h-4.67V165.3z M195.15,145.31h-0.14c-2.62,0-4.75,2.13-4.75,4.75 v9.24c0,0.55,0.45,1,1,1h7.63c0.55,0,1-0.45,1-1v-9.24C199.9,147.44,197.77,145.31,195.15,145.31z M197.9,158.3h-5.63v-8.24 c0-1.52,1.23-2.75,2.75-2.75h0.14c1.52,0,2.75,1.23,2.75,2.75V158.3z M195.15,161.46h-0.14c-2.62,0-4.75,2.13-4.75,4.75v9.24 c0,0.55,0.45,1,1,1h7.63c0.55,0,1-0.45,1-1v-9.24C199.9,163.59,197.77,161.46,195.15,161.46z M197.9,174.45h-5.63v-8.24 c0-1.52,1.23-2.75,2.75-2.75h0.14c1.52,0,2.75,1.23,2.75,2.75V174.45z M233.5,166.8h-5.55c-0.55,0-1,0.45-1,1v5.55 c0,0.55,0.45,1,1,1h5.55c0.55,0,1-0.45,1-1v-5.55C234.5,167.25,234.05,166.8,233.5,166.8z M232.5,172.35h-3.55v-3.55h3.55V172.35z M249.36,166.8h-5.55c-0.55,0-1,0.45-1,1v5.55c0,0.55,0.45,1,1,1h5.55c0.55,0,1-0.45,1-1v-5.55 C250.36,167.25,249.92,166.8,249.36,166.8z M248.36,172.35h-3.55v-3.55h3.55V172.35z M241.43,166.8h-5.55c-0.55,0-1,0.45-1,1v5.55 c0,0.55,0.45,1,1,1h5.55c0.55,0,1-0.45,1-1v-5.55C242.43,167.25,241.99,166.8,241.43,166.8z M240.43,172.35h-3.55v-3.55h3.55 V172.35z M225.57,166.8h-5.55c-0.55,0-1,0.45-1,1v5.55c0,0.55,0.45,1,1,1h5.55c0.55,0,1-0.45,1-1v-5.55 C226.57,167.25,226.12,166.8,225.57,166.8z M224.57,172.35h-3.55v-3.55h3.55V172.35z M144.86,148.26h-0.15 c-2.86,0-5.18,2.32-5.18,5.18v19.38c0,0.55,0.45,1,1,1h8.51c0.55,0,1-0.45,1-1v-19.38C150.04,150.59,147.72,148.26,144.86,148.26z M148.04,171.82h-6.51v-18.38c0-1.75,1.43-3.18,3.18-3.18h0.15c1.75,0,3.18,1.43,3.18,3.18V171.82z M119.41,144.69h-9.23 c-2.81,0-5.09,2.28-5.09,5.09v0.07c0,0.55,0.45,1,1,1h17.41c0.55,0,1-0.52,1-1.07C124.5,146.97,122.21,144.69,119.41,144.69z M107.23,148.86c0.39-1.25,1.57-2.16,2.95-2.16h9.23c1.37,0,2.53,0.89,2.94,2.16H107.23z"/></g></svg>