<?xml version="1.0" encoding="UTF-8"?><svg xmlns="http://www.w3.org/2000/svg" xmlns:xlink="http://www.w3.org/1999/xlink" height="503.6" preserveAspectRatio="xMidYMid meet" version="1.0" viewBox="-3.2 -1.8 403.9 503.6" width="403.9" zoomAndPan="magnify"><g id="change1_1"><path d="M395.01,496.06c-4.53,5.75-13.17-12.06-20.49-12.06c-7.32,0-7.32,14.89-14.64,14.89 c-7.32,0-7.32-14.89-14.64-14.89c-7.32,0-7.32,14.89-14.64,14.89c-7.32,0-7.32-14.89-14.64-14.89c-7.32,0-7.32,14.89-14.64,14.89 c-7.32,0-7.32-14.89-14.64-14.89c-7.32,0-7.32,14.89-14.64,14.89c-7.32,0-7.32-14.89-14.64-14.89c-7.32,0-7.32,14.89-14.64,14.89 c-7.32,0-7.32-14.89-14.64-14.89c-7.32,0-7.32,14.89-14.64,14.89c-7.32,0-7.32-14.89-14.64-14.89c-7.32,0-7.32,14.89-14.64,14.89 c-7.32,0-7.32-14.89-14.64-14.89c-7.32,0-7.32,14.89-14.64,14.89c-7.32,0-7.32-14.89-14.64-14.89c-7.32,0-7.32,14.89-14.64,14.89 c-7.32,0-7.32-14.89-14.64-14.89c-7.32,0-7.32,14.89-14.64,14.89c-7.32,0-7.32-14.89-14.64-14.89c-7.32,0-7.32,14.89-14.64,14.89 c-7.32,0-7.32-14.89-14.65-14.89c-7.32,0-7.32,14.89-14.64,14.89c-7.33,0-7.33-14.89-14.65-14.89S7.14,501.81,2.6,496.06 c-5.75-7.29,13.29-13.9,13.29-23.18c0-9.29-14.89-9.29-14.89-18.57c0-9.28,14.89-9.28,14.89-18.57c0-9.29-14.89-9.29-14.89-18.57 c0-9.29,14.89-9.29,14.89-18.57c0-9.29-14.89-9.29-14.89-18.57c0-9.29,14.89-9.29,14.89-18.57c0-9.29-14.89-9.29-14.89-18.57 c0-9.29,14.89-9.29,14.89-18.57c0-9.29-14.89-9.29-14.89-18.57c0-9.29,14.89-9.29,14.89-18.57c0-9.29-14.89-9.29-14.89-18.57 c0-9.29,14.89-9.29,14.89-18.57c0-9.28-14.89-9.28-14.89-18.57c0-9.28,14.89-9.28,14.89-18.57c0-9.29-14.89-9.29-14.89-18.57 c0-9.29,14.89-9.29,14.89-18.57c0-9.29-14.89-9.29-14.89-18.57c0-9.29,14.89-9.29,14.89-18.57C15.89,129.3,1,129.3,1,120.02 c0-9.29,14.89-9.29,14.89-18.58C15.89,92.16,1,92.16,1,82.87c0-9.29,14.89-9.29,14.89-18.58C15.89,55,1,55,1,45.71 c0-9.29,14.89-9.29,14.89-18.58c0-9.29-19.05-15.89-13.3-23.19C7.13-1.81,15.77,16,23.09,16c7.32,0,7.32-14.89,14.64-14.89 C45.05,1.11,45.05,16,52.37,16c7.32,0,7.32-14.89,14.64-14.89C74.33,1.11,74.33,16,81.65,16c7.32,0,7.32-14.89,14.64-14.89 c7.32,0,7.32,14.89,14.64,14.89c7.32,0,7.32-14.89,14.64-14.89c7.32,0,7.32,14.89,14.64,14.89c7.32,0,7.32-14.89,14.64-14.89 c7.32,0,7.32,14.89,14.64,14.89c7.32,0,7.32-14.89,14.64-14.89c7.32,0,7.32,14.89,14.64,14.89c7.32,0,7.32-14.89,14.64-14.89 c7.32,0,7.32,14.89,14.64,14.89c7.32,0,7.32-14.89,14.64-14.89c7.32,0,7.32,14.89,14.64,14.89c7.32,0,7.32-14.89,14.64-14.89 c7.32,0,7.32,14.89,14.64,14.89c7.32,0,7.32-14.89,14.64-14.89c7.32,0,7.32,14.89,14.64,14.89c7.32,0,7.32-14.89,14.64-14.89 c7.32,0,7.32,14.89,14.65,14.89c7.32,0,7.32-14.89,14.64-14.89c7.33,0,7.33,14.89,14.65,14.89S390.46-1.81,395,3.94 c5.75,7.29-13.29,13.9-13.29,23.18c0,9.29,14.89,9.29,14.89,18.57c0,9.28-14.89,9.28-14.89,18.57c0,9.29,14.89,9.29,14.89,18.57 c0,9.29-14.89,9.29-14.89,18.57c0,9.29,14.89,9.29,14.89,18.57c0,9.29-14.89,9.29-14.89,18.57c0,9.29,14.89,9.29,14.89,18.57 c0,9.29-14.89,9.29-14.89,18.57c0,9.29,14.89,9.29,14.89,18.57c0,9.29-14.89,9.29-14.89,18.57c0,9.29,14.89,9.29,14.89,18.57 c0,9.29-14.89,9.29-14.89,18.57c0,9.28,14.89,9.28,14.89,18.57c0,9.28-14.89,9.28-14.89,18.57c0,9.29,14.89,9.29,14.89,18.57 c0,9.29-14.89,9.29-14.89,18.57c0,9.29,14.89,9.29,14.89,18.57c0,9.29-14.89,9.29-14.89,18.57c0,9.29,14.89,9.29,14.89,18.57 c0,9.29-14.89,9.29-14.89,18.58c0,9.29,14.89,9.29,14.89,18.57c0,9.29-14.89,9.29-14.89,18.58c0,9.29,14.89,9.29,14.89,18.58 c0,9.29-17.47,12.15-14.5,20.96C386.13,487.22,400.76,488.76,395.01,496.06z" fill="#EE664A"/></g><g id="change2_1"><path d="M160.9,339.57V348h-16.85v-8.43c0-4.65,3.77-8.43,8.43-8.43S160.9,334.92,160.9,339.57z M129.31,331.15c-4.65,0-8.43,3.77-8.43,8.43V348h16.85v-8.43C137.74,334.92,133.96,331.15,129.31,331.15z M198.8,331.15 L198.8,331.15c-4.65,0-8.43,3.77-8.43,8.43V348h16.85v-8.43C207.23,334.92,203.46,331.15,198.8,331.15z M175.64,331.15 c-4.65,0-8.43,3.77-8.43,8.43V348h16.85v-8.43C184.06,334.92,180.29,331.15,175.64,331.15z M158.25,311.18 c0-3.19-2.59-5.78-5.78-5.78c-3.19,0-5.78,2.59-5.78,5.78v7.79h11.55V311.18z M250.91,311.18c0-3.19-2.59-5.78-5.78-5.78 c-3.19,0-5.78,2.59-5.78,5.78v7.79h11.55V311.18z M364.47,33.24v433.52h-70.69v-16.38c0-7.2-2.08-13.91-5.66-19.57 c-6.5-10.29-17.97-17.12-31.03-17.12h0c-13.07,0-24.53,6.84-31.03,17.12c-3.58,5.67-5.66,12.38-5.66,19.57v16.38h-44.01v-16.38 c0-7.2-2.08-13.91-5.66-19.57c-6.5-10.29-17.97-17.12-31.03-17.12h0c-13.07,0-24.53,6.84-31.03,17.12 c-3.58,5.67-5.66,12.38-5.66,19.57v16.38H33.14V33.24H364.47z M193.56,122.04h10.48c0-0.07-0.01-0.13-0.01-0.2 c-0.08-2.22-1.55-4.08-3.56-4.76l-0.02-0.35c1.36-0.3,2.3-0.96,2.3-1.72c0-0.81-1.06-1.5-2.54-1.77l-0.05-0.79 c0.59-0.2,0.97-0.53,0.97-0.9c0-0.4-0.44-0.75-1.1-0.94l-0.06-0.86c0.36-0.15,0.69-0.36,0.98-0.65c1.06-1.06,1.06-2.79,0-3.85 l-1.39-1.39l-0.17-2.41c0.99-0.13,1.73-0.56,1.73-1.07c0-0.54-0.81-1-1.88-1.09l-0.04-0.6c0.65-0.13,1.14-0.59,1.14-1.13 c0-0.59-0.56-1.07-1.29-1.16l-0.13-1.82c1.65-0.06,2.97-1.41,2.97-3.07c0-1.01-0.48-1.9-1.22-2.46c0.33,0.41,0.53,0.92,0.53,1.49 c0,1.32-1.07,2.38-2.38,2.38c-1.32,0-2.38-1.07-2.38-2.38c0-0.56,0.2-1.08,0.52-1.48c-0.74,0.56-1.22,1.45-1.22,2.45 c0,1.66,1.32,3.02,2.97,3.07l-0.13,1.82c-0.73,0.09-1.29,0.57-1.29,1.16c0,0.54,0.48,1,1.14,1.13l-0.04,0.6 c-1.07,0.1-1.88,0.55-1.88,1.09c0,0.52,0.74,0.95,1.73,1.07l-0.17,2.41l-1.39,1.39c-1.06,1.06-1.06,2.79,0,3.85 c0.29,0.29,0.62,0.5,0.98,0.65l-0.06,0.86c-0.66,0.2-1.1,0.54-1.1,0.94c0,0.37,0.38,0.7,0.97,0.9l-0.05,0.79 c-1.48,0.27-2.54,0.96-2.54,1.77c0,0.76,0.94,1.42,2.3,1.72l-0.02,0.35c-1.99,0.67-3.45,2.5-3.56,4.7 C193.57,121.86,193.56,121.95,193.56,122.04z M285.75,338.97c0-28.43-13.64-53.66-34.73-69.53c-16.11-2.84-36.56-3.56-59.15,2.55 c-41.02,11.09-69.65,45.97-79.7,59.62c-0.2,2.43-0.31,4.89-0.31,7.37v19.61h173.89V338.97z M329.41,204.03h-3.06H68.89H65.7v5.07 h3.02h260.17h0.53V204.03z M259.87,348h16.85v-8.43c0-4.65-3.77-8.43-8.43-8.43h0c-4.65,0-8.43,3.77-8.43,8.43V348z M245.13,331.15 c-4.65,0-8.43,3.77-8.43,8.43V348h16.85v-8.43C253.56,334.92,249.78,331.15,245.13,331.15z M222.81,299.18 c-4.65,0-8.43,3.77-8.43,8.43h-7.16V294.7c0-4.65-3.77-8.43-8.43-8.43h0c-4.65,0-8.43,3.77-8.43,8.43v12.91h-7.16 c0-4.65-3.77-8.43-8.43-8.43s-8.43,3.77-8.43,8.43v11.36h16.85h7.16h16.85h7.16h16.85v-11.36 C231.24,302.95,227.47,299.18,222.81,299.18z M221.97,331.15c-4.65,0-8.43,3.77-8.43,8.43V348h16.85v-8.43 C230.39,334.92,226.62,331.15,221.97,331.15z" fill="#F5A191"/></g><g id="change3_1"><path d="M49.53,233.04L49.53,233.04L49.53,233.04l0,30.04c-6.11,3.84-10.19,10.63-10.19,18.38v20.23h-6.21 v-67.68C38.51,233.38,43.98,233.04,49.53,233.04z M348.07,233.04L348.07,233.04L348.07,233.04L348.07,233.04l0,30.04 c6.11,3.84,10.19,10.63,10.19,18.38v20.23h6.21v-67.68C359.09,233.38,353.62,233.04,348.07,233.04z M55.01,233.04v-6.83l-5.47,6.83 H55.01z M342.6,233.04h5.47l-5.47-6.83V233.04z M68.72,209.1l-3.09,3.85c0.58,0.32,1.11,0.72,1.58,1.19 c1.29,1.29,2.09,3.08,2.09,5.06v13.84h10.55V219.2c0-3.95,3.2-7.15,7.15-7.15s7.15,3.2,7.15,7.15v13.84h10.55V219.2 c0-3.95,3.2-7.15,7.15-7.15s7.15,3.2,7.15,7.15v13.84h10.55V219.2c0-3.95,3.2-7.15,7.15-7.15s7.15,3.2,7.15,7.15v13.84h10.55V219.2 c0-3.95,3.2-7.15,7.15-7.15s7.15,3.2,7.15,7.15v13.84h10.55V219.2c0-3.95,3.2-7.15,7.15-7.15s7.15,3.2,7.15,7.15v13.84h10.55V219.2 c0-3.95,3.2-7.15,7.15-7.15s7.15,3.2,7.15,7.15v13.84h10.55V219.2c0-3.95,3.2-7.15,7.15-7.15s7.15,3.2,7.15,7.15v13.84h10.55V219.2 c0-3.95,3.2-7.15,7.15-7.15c3.95,0,7.15,3.2,7.15,7.15v13.84h10.55V219.2c0-3.95,3.2-7.15,7.15-7.15c3.95,0,7.15,3.2,7.15,7.15 v13.84h10.55V219.2c0-3.95,3.2-7.15,7.15-7.15c3.95,0,7.15,3.2,7.15,7.15v13.84h10.55V219.2c0-2.69,1.48-5.03,3.67-6.25l-3.09-3.85 H68.72z M285.75,358.59h13.56v4.69v7.02v60.51h-1.1c-3.97-15.74-18.22-27.39-35.19-27.39H252.3c-16.97,0-31.22,11.65-35.19,27.39 h-36.63c-3.97-15.74-18.22-27.39-35.19-27.39h-10.72c-16.97,0-31.22,11.65-35.19,27.39h-1.1v-60.51v-7.02v-4.69h13.56H285.75z M109.51,392.36h2.35h79.09c0-12.19-18.23-22.07-40.72-22.07c-17.7,0-32.75,6.12-38.37,14.67 C110.34,387.27,109.51,389.76,109.51,392.36z M288.1,392.36c0-2.6-0.83-5.09-2.35-7.4c-5.61-8.55-20.67-14.67-38.37-14.67 c-22.49,0-40.72,9.88-40.72,22.07h79.08H288.1z" fill="#3B8081"/></g><g id="change4_1"><path d="M326.36,204.03c0,0-257.42,0-257.46,0c-1.91,0,7.47-24.72,8.61-26.68 c5.19-8.97,12.25-16.76,20.21-23.34c38.3-31.69,98.05-38.41,145.38-26.93c33.82,8.2,70.21,29.18,80.87,64.47 C325.19,195.61,326,199.8,326.36,204.03z M364.47,301.7v68.59v96.47h-37.89h-27.27V430.8v-60.51v-7.02v-4.69V301.7h15.51v-20.23 c0-12,9.73-21.72,21.72-21.72h0c4.24,0,8.19,1.24,11.53,3.34c6.11,3.84,10.19,10.63,10.19,18.38v20.23H364.47z M321.36,286.52 c0,8.38,6.8,15.18,15.18,15.18c4.62,0,8.75-2.07,11.53-5.33c2.27-2.65,3.65-6.09,3.65-9.85c0-3.76-1.38-7.2-3.65-9.85 c-2.78-3.26-6.91-5.33-11.53-5.33C328.15,271.34,321.36,278.13,321.36,286.52z M344.21,325.34h-9.29v18.39h9.29V325.34z M344.21,430.8h-7.67h-1.62v18.39h9.29V430.8z M82.79,301.7H98.3v56.89v4.69v7.02v60.51v35.95H61.07H33.14v-96.47V301.7h6.21v-20.23 c0-7.75,4.08-14.54,10.19-18.38c3.35-2.1,7.29-3.34,11.53-3.34h0c12,0,21.72,9.73,21.72,21.72V301.7z M45.89,286.52 c0,3.76,1.38,7.2,3.65,9.85c2.78,3.26,6.91,5.33,11.53,5.33c8.38,0,15.18-6.8,15.18-15.18c0-8.38-6.8-15.18-15.18-15.18 c-4.62,0-8.75,2.07-11.53,5.33C47.26,279.32,45.89,282.75,45.89,286.52z M66.56,325.34h-9.29v18.39h9.29V325.34z M66.56,430.8h-5.49 h-3.8v18.39h3.8h5.49V430.8z M183.22,318.97h7.16v-11.36h-7.16V318.97z M207.23,318.97h7.16v-11.36h-7.16V318.97z" fill="#F9C0B5"/></g><g><g id="change5_1"><path d="M191.87,271.99c-41.02,11.09-69.65,45.97-79.7,59.62c3.74-44.57,41.1-79.58,86.64-79.58c12,0,23.44,2.43,33.84,6.83 c6.57,2.78,12.74,6.35,18.37,10.58C234.91,266.6,214.45,265.88,191.87,271.99z M57.26,343.73h9.29v-18.39h-9.29V343.73z M57.26,430.8v18.39h3.8h5.49V430.8h-5.49H57.26z M334.91,325.34v18.39h9.29v-18.39H334.91z M334.91,430.8v18.39h9.29V430.8h-7.67 H334.91z M243.22,219.2c0-3.95-3.2-7.15-7.15-7.15s-7.15,3.2-7.15,7.15v13.84h14.3V219.2z M65.63,212.95l-10.63,13.26v6.83v0h14.3 v0V219.2c0-1.97-0.8-3.76-2.09-5.06C66.74,213.68,66.21,213.28,65.63,212.95z M87,212.05c-3.95,0-7.15,3.2-7.15,7.15v13.84h14.3 V219.2C94.15,215.25,90.95,212.05,87,212.05z M118.99,219.2c0-3.95-3.2-7.15-7.15-7.15s-7.15,3.2-7.15,7.15v13.84h14.3V219.2z M143.84,219.2c0-3.95-3.2-7.15-7.15-7.15s-7.15,3.2-7.15,7.15v13.84h14.3V219.2z M168.68,219.2c0-3.95-3.2-7.15-7.15-7.15 s-7.15,3.2-7.15,7.15v13.84h14.3V219.2z M193.53,219.2c0-3.95-3.2-7.15-7.15-7.15s-7.15,3.2-7.15,7.15v13.84h14.3V219.2z M218.37,219.2c0-3.95-3.2-7.15-7.15-7.15s-7.15,3.2-7.15,7.15v13.84h14.3V219.2z M268.06,219.2c0-3.95-3.2-7.15-7.15-7.15 c-3.95,0-7.15,3.2-7.15,7.15v13.84h14.3V219.2z M285.76,212.05c-3.95,0-7.15,3.2-7.15,7.15v13.84h14.3V219.2 C292.91,215.25,289.71,212.05,285.76,212.05z M310.6,212.05c-3.95,0-7.15,3.2-7.15,7.15v13.84h14.3V219.2 C317.75,215.25,314.55,212.05,310.6,212.05z M342.6,233.04v-6.83l-10.63-13.26c-2.19,1.22-3.67,3.56-3.67,6.25v13.84v0 L342.6,233.04L342.6,233.04z M150.22,370.29c-17.7,0-32.75,6.12-38.37,14.67c-1.52,2.31-2.35,4.8-2.35,7.4h2.35h79.09 C190.94,380.17,172.71,370.29,150.22,370.29z M247.38,370.29c-22.49,0-40.72,9.88-40.72,22.07h79.08h2.35 c0-2.6-0.83-5.09-2.35-7.4C280.13,376.41,265.08,370.29,247.38,370.29z"/></g><g id="change5_2"><path d="M389.69,92.97c3.89-2.43,7.92-4.94,7.92-10.14c0-5.2-4.03-7.71-7.92-10.13c-3.59-2.24-6.98-4.35-6.98-8.44 c0-4.09,3.39-6.2,6.98-8.44c3.89-2.43,7.92-4.94,7.92-10.13c0-5.2-4.03-7.71-7.92-10.13c-3.59-2.24-6.98-4.35-6.98-8.44 c0-3.85,3.84-7.36,7.56-10.76c4.52-4.13,9.19-8.4,5.52-13.04c-0.75-0.96-1.67-1.47-2.72-1.52c-2.68-0.15-5.56,2.81-8.87,6.23 c-3.16,3.27-6.75,6.97-9.69,6.97c-3.04,0-4.69-3.35-6.43-6.89c-1.94-3.94-3.94-8.01-8.22-8.01c-4.28,0-6.29,4.07-8.22,8.01 c-1.74,3.54-3.39,6.89-6.42,6.89c-3.04,0-4.68-3.35-6.43-6.89c-1.94-3.94-3.94-8-8.22-8c-4.28,0-6.28,4.07-8.22,8.01 c-1.74,3.54-3.39,6.89-6.42,6.89c-3.04,0-4.68-3.35-6.42-6.89c-1.93-3.94-3.93-8-8.22-8c-4.28,0-6.29,4.07-8.22,8.01 c-1.74,3.54-3.39,6.89-6.42,6.89s-4.68-3.35-6.42-6.89c-1.94-3.94-3.94-8-8.22-8c-4.28,0-6.28,4.07-8.22,8 c-1.74,3.54-3.39,6.89-6.42,6.89c-3.04,0-4.68-3.35-6.42-6.89c-1.94-3.94-3.94-8-8.22-8c-4.28,0-6.28,4.07-8.22,8.01 c-1.74,3.54-3.39,6.89-6.42,6.89c-3.04,0-4.68-3.35-6.42-6.89c-1.93-3.94-3.93-8.01-8.22-8.01s-6.28,4.07-8.22,8.01 c-1.74,3.54-3.39,6.89-6.42,6.89c-3.04,0-4.68-3.35-6.42-6.89c-1.93-3.94-3.94-8.01-8.22-8.01c-4.28,0-6.28,4.07-8.22,8 c-1.74,3.54-3.39,6.89-6.42,6.89c-3.04,0-4.68-3.35-6.42-6.89c-1.93-3.94-3.93-8-8.22-8c-4.28,0-6.28,4.07-8.22,8.01 c-1.74,3.54-3.39,6.89-6.42,6.89s-4.68-3.35-6.42-6.89c-1.93-3.94-3.94-8.01-8.22-8.01c-4.28,0-6.28,4.07-8.22,8 c-1.74,3.54-3.39,6.89-6.42,6.89s-4.68-3.35-6.42-6.89c-1.93-3.94-3.94-8.01-8.22-8.01c-4.28,0-6.28,4.07-8.22,8.01 C86.33,11.65,84.69,15,81.65,15c-3.04,0-4.68-3.35-6.42-6.89c-1.93-3.94-3.94-8.01-8.22-8.01c-4.28,0-6.28,4.07-8.22,8 C57.05,11.65,55.41,15,52.37,15c-3.04,0-4.68-3.35-6.42-6.89c-1.93-3.94-3.93-8.01-8.22-8.01c-4.28,0-6.28,4.07-8.22,8.01 C27.77,11.65,26.12,15,23.09,15c-2.94,0-6.53-3.7-9.69-6.97c-3.3-3.41-6.15-6.38-8.87-6.22C3.48,1.86,2.56,2.37,1.81,3.32 c-3.67,4.65,1.01,8.92,5.52,13.05c3.72,3.4,7.56,6.91,7.56,10.76c0,4.09-3.39,6.2-6.98,8.44C4.03,38,0,40.51,0,45.71 c0,5.2,4.02,7.71,7.92,10.14c3.59,2.24,6.98,4.35,6.98,8.44c0,4.09-3.39,6.2-6.98,8.44C4.03,75.16,0,77.67,0,82.87 c0,5.2,4.02,7.71,7.92,10.13c3.59,2.24,6.98,4.35,6.98,8.44c0,4.09-3.39,6.2-6.98,8.44C4.03,112.31,0,114.82,0,120.02 c0,5.2,4.02,7.71,7.92,10.14c3.59,2.24,6.98,4.35,6.98,8.44c0,4.09-3.39,6.2-6.98,8.44C4.03,149.46,0,151.97,0,157.16 c0,5.2,4.02,7.71,7.92,10.13c3.59,2.24,6.98,4.35,6.98,8.44c0,4.09-3.39,6.2-6.98,8.44C4.03,186.6,0,189.11,0,194.31 c0,5.2,4.02,7.71,7.92,10.13c3.59,2.24,6.98,4.35,6.98,8.44c0,4.09-3.39,6.2-6.98,8.44C4.03,223.74,0,226.25,0,231.45 s4.02,7.71,7.92,10.13c3.59,2.24,6.98,4.35,6.98,8.44c0,4.09-3.39,6.2-6.98,8.44C4.03,260.88,0,263.39,0,268.59 s4.02,7.71,7.92,10.13c3.59,2.24,6.98,4.35,6.98,8.44c0,4.09-3.39,6.2-6.98,8.44C4.03,298.03,0,300.54,0,305.74 s4.02,7.71,7.92,10.13c3.59,2.24,6.98,4.35,6.98,8.44s-3.39,6.2-6.98,8.44C4.03,335.17,0,337.68,0,342.88 c0,5.2,4.02,7.71,7.92,10.13c3.59,2.24,6.98,4.35,6.98,8.44s-3.39,6.2-6.98,8.44C4.03,372.32,0,374.82,0,380.02 c0,5.2,4.02,7.71,7.92,10.13c3.59,2.24,6.98,4.35,6.98,8.44s-3.39,6.2-6.98,8.44C4.03,409.46,0,411.97,0,417.17 s4.02,7.71,7.92,10.13c3.59,2.24,6.98,4.35,6.98,8.44s-3.39,6.2-6.98,8.44C4.03,446.6,0,449.11,0,454.31s4.02,7.71,7.92,10.13 c3.59,2.24,6.98,4.35,6.98,8.44c0,3.85-3.84,7.36-7.56,10.76c-4.52,4.13-9.19,8.4-5.52,13.04c0.75,0.96,1.67,1.47,2.72,1.52 c2.72,0.18,5.56-2.81,8.87-6.23c3.16-3.27,6.75-6.97,9.69-6.97c3.04,0,4.69,3.35,6.43,6.89c1.94,3.94,3.94,8,8.22,8 c4.28,0,6.28-4.07,8.22-8c1.74-3.54,3.39-6.89,6.42-6.89c3.04,0,4.69,3.35,6.43,6.89c1.94,3.94,3.94,8,8.22,8 c4.28,0,6.28-4.07,8.22-8c1.74-3.54,3.39-6.89,6.42-6.89c3.04,0,4.68,3.35,6.42,6.89c1.93,3.94,3.93,8,8.22,8 c4.28,0,6.28-4.07,8.22-8c1.74-3.54,3.39-6.89,6.42-6.89s4.68,3.35,6.42,6.89c1.94,3.94,3.94,8,8.22,8c4.28,0,6.28-4.07,8.22-8 c1.74-3.54,3.39-6.89,6.42-6.89c3.04,0,4.68,3.35,6.43,6.89c1.94,3.94,3.94,8,8.22,8c4.28,0,6.28-4.07,8.22-8 c1.74-3.54,3.39-6.89,6.42-6.89c3.04,0,4.68,3.35,6.42,6.89c1.93,3.94,3.94,8,8.22,8s6.28-4.07,8.22-8 c1.74-3.54,3.39-6.89,6.42-6.89s4.68,3.35,6.42,6.89c1.93,3.94,3.94,8,8.22,8s6.28-4.07,8.22-8c1.74-3.54,3.39-6.89,6.42-6.89 c3.04,0,4.68,3.35,6.42,6.89c1.93,3.94,3.93,8,8.22,8c4.28,0,6.28-4.07,8.22-8c1.74-3.54,3.39-6.89,6.42-6.89 c3.04,0,4.68,3.35,6.42,6.89c1.93,3.94,3.93,8,8.22,8s6.28-4.07,8.22-8c1.74-3.54,3.39-6.89,6.42-6.89c3.04,0,4.68,3.35,6.42,6.89 c1.93,3.94,3.93,8,8.22,8s6.28-4.07,8.22-8c1.74-3.54,3.39-6.89,6.42-6.89c3.04,0,4.68,3.35,6.42,6.89c1.93,3.94,3.94,8,8.22,8 s6.28-4.07,8.22-8.01c1.74-3.54,3.39-6.89,6.42-6.89s4.68,3.35,6.42,6.89c1.93,3.94,3.93,8,8.22,8c4.28,0,6.28-4.07,8.22-8 c1.74-3.54,3.39-6.89,6.42-6.89c2.94,0,6.53,3.7,9.69,6.97c3.31,3.42,6.2,6.36,8.87,6.22c1.05-0.05,1.97-0.56,2.72-1.52 c3.71-4.71,0.08-7.62-3.76-10.71c-3.21-2.58-7.22-5.79-8.98-11.04c-1.31-3.9,2.21-6.52,6.3-9.55c3.87-2.87,8.26-6.13,8.26-11.08 c0-5.2-4.03-7.71-7.92-10.14c-3.59-2.24-6.98-4.35-6.98-8.44s3.39-6.2,6.98-8.44c3.89-2.43,7.92-4.94,7.92-10.14 c0-5.2-4.03-7.71-7.92-10.13c-3.59-2.24-6.98-4.35-6.98-8.44c0-4.09,3.39-6.2,6.98-8.44c3.89-2.43,7.92-4.94,7.92-10.14 s-4.03-7.71-7.92-10.14c-3.59-2.24-6.98-4.35-6.98-8.44c0-4.09,3.39-6.2,6.98-8.44c3.89-2.43,7.92-4.94,7.92-10.14 c0-5.2-4.03-7.71-7.92-10.13c-3.59-2.24-6.98-4.35-6.98-8.44c0-4.09,3.39-6.2,6.98-8.44c3.89-2.43,7.92-4.94,7.92-10.14 c0-5.2-4.03-7.71-7.92-10.13c-3.59-2.24-6.98-4.35-6.98-8.44s3.39-6.2,6.98-8.44c3.89-2.43,7.92-4.94,7.92-10.13 s-4.03-7.71-7.92-10.13c-3.59-2.24-6.98-4.35-6.98-8.44c0-4.09,3.39-6.2,6.98-8.44c3.89-2.43,7.92-4.94,7.92-10.14 s-4.03-7.71-7.92-10.13c-3.59-2.24-6.98-4.35-6.98-8.44c0-4.09,3.39-6.2,6.98-8.44c3.89-2.43,7.92-4.94,7.92-10.14 s-4.03-7.71-7.92-10.13c-3.59-2.24-6.98-4.35-6.98-8.44s3.39-6.2,6.98-8.44c3.89-2.43,7.92-4.94,7.92-10.13s-4.03-7.71-7.92-10.13 c-3.59-2.24-6.98-4.35-6.98-8.44c0-4.09,3.39-6.2,6.98-8.44c3.89-2.43,7.92-4.94,7.92-10.13s-4.03-7.71-7.92-10.13 c-3.59-2.24-6.98-4.35-6.98-8.44S386.1,95.21,389.69,92.97z M380.71,101.41c0,5.2,4.03,7.71,7.92,10.13 c3.59,2.24,6.98,4.35,6.98,8.44c0,4.09-3.39,6.2-6.98,8.44c-3.89,2.43-7.92,4.94-7.92,10.13s4.03,7.71,7.92,10.13 c3.59,2.24,6.98,4.35,6.98,8.44c0,4.09-3.39,6.2-6.98,8.44c-3.89,2.43-7.92,4.94-7.92,10.13c0,5.2,4.03,7.71,7.92,10.13 c3.59,2.24,6.98,4.35,6.98,8.44c0,4.09-3.39,6.2-6.98,8.44c-3.89,2.43-7.92,4.94-7.92,10.14c0,5.2,4.03,7.71,7.92,10.13 c3.59,2.24,6.98,4.35,6.98,8.44c0,4.09-3.39,6.2-6.98,8.44c-3.89,2.43-7.92,4.94-7.92,10.14c0,5.2,4.03,7.71,7.92,10.13 c3.59,2.24,6.98,4.35,6.98,8.44s-3.39,6.2-6.98,8.44c-3.89,2.43-7.92,4.94-7.92,10.13c0,5.2,4.03,7.71,7.92,10.13 c3.59,2.24,6.98,4.35,6.98,8.44c0,4.09-3.39,6.2-6.98,8.44c-3.89,2.43-7.92,4.94-7.92,10.14s4.03,7.71,7.92,10.13 c3.59,2.24,6.98,4.35,6.98,8.44c0,4.09-3.39,6.2-6.98,8.44c-3.89,2.43-7.92,4.94-7.92,10.13s4.03,7.71,7.92,10.14 c3.59,2.24,6.98,4.35,6.98,8.44s-3.39,6.2-6.98,8.44c-3.89,2.43-7.92,4.94-7.92,10.14c0,5.2,4.03,7.71,7.92,10.13 c3.59,2.24,6.98,4.35,6.98,8.44c0,4.09-3.39,6.2-6.98,8.44c-3.89,2.43-7.92,4.94-7.92,10.14s4.03,7.71,7.92,10.14 c3.59,2.24,6.98,4.35,6.98,8.44c0,3.95-3.79,6.76-7.45,9.48c-4.32,3.2-8.78,6.52-7,11.8c1.95,5.8,6.21,9.22,9.63,11.96 c4.22,3.39,5.83,4.88,3.44,7.91c-0.51,0.65-0.96,0.75-1.25,0.76c-0.03,0-0.06,0-0.08,0c-1.8,0-4.57-2.86-7.24-5.62 c-3.61-3.73-7.34-7.58-11.13-7.58c-4.28,0-6.28,4.07-8.22,8.01c-1.74,3.54-3.39,6.89-6.42,6.89s-4.68-3.35-6.42-6.89 c-1.93-3.94-3.93-8.01-8.22-8.01s-6.28,4.07-8.22,8c-1.74,3.54-3.39,6.89-6.42,6.89s-4.68-3.35-6.42-6.89c-1.93-3.94-3.94-8-8.22-8 s-6.28,4.07-8.22,8c-1.74,3.54-3.39,6.89-6.42,6.89s-4.68-3.35-6.42-6.89c-1.93-3.94-3.94-8.01-8.22-8.01s-6.28,4.07-8.22,8 c-1.74,3.54-3.39,6.89-6.42,6.89s-4.68-3.35-6.42-6.89c-1.93-3.94-3.94-8.01-8.22-8.01c-4.28,0-6.28,4.07-8.22,8.01 c-1.74,3.54-3.39,6.89-6.42,6.89c-3.04,0-4.68-3.35-6.42-6.89c-1.93-3.94-3.93-8-8.22-8c-4.28,0-6.28,4.07-8.22,8 c-1.74,3.54-3.39,6.89-6.42,6.89c-3.04,0-4.68-3.35-6.42-6.89c-1.93-3.94-3.94-8-8.22-8s-6.28,4.07-8.22,8 c-1.74,3.54-3.39,6.89-6.42,6.89s-4.68-3.35-6.42-6.89c-1.93-3.94-3.94-8-8.22-8c-4.28,0-6.28,4.07-8.22,8 c-1.74,3.54-3.39,6.89-6.42,6.89c-3.04,0-4.68-3.35-6.42-6.89c-1.94-3.94-3.94-8-8.22-8c-4.28,0-6.28,4.07-8.22,8 c-1.74,3.54-3.39,6.89-6.42,6.89c-3.04,0-4.68-3.35-6.42-6.89c-1.94-3.94-3.94-8-8.22-8s-6.28,4.07-8.22,8 c-1.74,3.54-3.39,6.89-6.42,6.89c-3.04,0-4.68-3.35-6.42-6.89c-1.93-3.94-3.93-8-8.22-8c-4.28,0-6.28,4.07-8.22,8 c-1.74,3.54-3.39,6.89-6.42,6.89c-3.04,0-4.69-3.35-6.43-6.89c-1.94-3.94-3.94-8-8.22-8c-4.28,0-6.28,4.07-8.22,8 c-1.74,3.54-3.39,6.89-6.42,6.89c-3.04,0-4.69-3.35-6.43-6.89c-1.94-3.94-3.94-8-8.22-8c-3.79,0-7.52,3.85-11.13,7.58 c-2.72,2.81-5.53,5.67-7.33,5.62c-0.29-0.01-0.74-0.11-1.25-0.76c-2.39-3.03,0.45-5.9,5.3-10.33c3.85-3.52,8.21-7.5,8.21-12.24 c0-5.2-4.02-7.71-7.92-10.13C5.39,460.51,2,458.39,2,454.31c0-4.09,3.39-6.2,6.98-8.44c3.89-2.43,7.92-4.94,7.92-10.13 s-4.02-7.71-7.92-10.13C5.39,423.37,2,421.25,2,417.17s3.39-6.2,6.98-8.44c3.89-2.43,7.92-4.94,7.92-10.13 c0-5.2-4.02-7.71-7.92-10.13C5.39,386.22,2,384.11,2,380.02s3.39-6.2,6.98-8.44c3.89-2.43,7.92-4.94,7.92-10.13 s-4.02-7.71-7.92-10.13C5.39,349.08,2,346.97,2,342.88s3.39-6.2,6.98-8.44c3.89-2.43,7.92-4.94,7.92-10.13 c0-5.2-4.02-7.71-7.92-10.13C5.39,311.94,2,309.83,2,305.74c0-4.09,3.39-6.2,6.98-8.44c3.89-2.43,7.92-4.94,7.92-10.14 s-4.02-7.71-7.92-10.13C5.39,274.79,2,272.68,2,268.59s3.39-6.2,6.98-8.44c3.89-2.43,7.92-4.94,7.92-10.14 c0-5.2-4.02-7.71-7.92-10.13C5.39,237.65,2,235.54,2,231.45s3.39-6.2,6.98-8.44c3.89-2.43,7.92-4.94,7.92-10.13 c0-5.2-4.02-7.71-7.92-10.13C5.39,200.51,2,198.4,2,194.31c0-4.09,3.39-6.2,6.98-8.44c3.89-2.43,7.92-4.94,7.92-10.14 c0-5.2-4.02-7.71-7.92-10.13C5.39,163.36,2,161.25,2,157.16c0-4.09,3.39-6.2,6.98-8.44c3.89-2.43,7.92-4.94,7.92-10.14 c0-5.2-4.02-7.71-7.92-10.14C5.39,126.22,2,124.1,2,120.02c0-4.09,3.39-6.2,6.98-8.44c3.89-2.43,7.92-4.94,7.92-10.14 c0-5.2-4.02-7.71-7.92-10.13C5.39,89.07,2,86.96,2,82.87c0-4.09,3.39-6.2,6.98-8.44c3.89-2.43,7.92-4.94,7.92-10.14 s-4.02-7.71-7.92-10.14C5.39,51.92,2,49.8,2,45.71c0-4.09,3.39-6.2,6.98-8.44c3.89-2.43,7.92-4.94,7.92-10.14 c0-4.74-4.36-8.72-8.21-12.24C3.84,10.47,0.99,7.6,3.38,4.56C3.9,3.91,4.34,3.82,4.63,3.8c1.79-0.11,4.61,2.81,7.33,5.62 C15.57,13.15,19.3,17,23.09,17c4.28,0,6.28-4.07,8.22-8c1.74-3.54,3.39-6.89,6.42-6.89c3.04,0,4.68,3.35,6.42,6.89 c1.93,3.94,3.93,8.01,8.22,8.01c4.28,0,6.28-4.07,8.22-8.01c1.74-3.54,3.39-6.89,6.42-6.89c3.04,0,4.68,3.35,6.42,6.89 c1.93,3.94,3.94,8.01,8.22,8.01s6.28-4.07,8.22-8.01c1.74-3.54,3.39-6.89,6.42-6.89s4.68,3.35,6.42,6.89 c1.93,3.94,3.94,8.01,8.22,8.01c4.28,0,6.28-4.07,8.22-8.01c1.74-3.54,3.39-6.89,6.42-6.89c3.04,0,4.68,3.35,6.42,6.89 c1.93,3.94,3.94,8.01,8.22,8.01s6.28-4.07,8.22-8c1.74-3.54,3.39-6.89,6.42-6.89c3.04,0,4.68,3.35,6.42,6.89 c1.93,3.94,3.93,8.01,8.22,8.01c4.28,0,6.28-4.07,8.22-8.01c1.74-3.54,3.39-6.89,6.42-6.89c3.04,0,4.68,3.35,6.42,6.89 c1.93,3.94,3.94,8.01,8.22,8.01s6.28-4.07,8.22-8.01c1.74-3.54,3.39-6.89,6.42-6.89s4.68,3.35,6.42,6.89 c1.93,3.94,3.93,8.01,8.22,8.01s6.28-4.07,8.22-8.01c1.74-3.54,3.39-6.89,6.42-6.89s4.68,3.35,6.42,6.89c1.93,3.94,3.94,8,8.22,8 c4.28,0,6.28-4.07,8.22-8.01c1.74-3.54,3.39-6.89,6.42-6.89c3.04,0,4.68,3.35,6.42,6.89c1.94,3.94,3.94,8,8.22,8 c4.28,0,6.28-4.07,8.22-8c1.74-3.54,3.39-6.89,6.42-6.89c3.04,0,4.68,3.35,6.42,6.89c1.93,3.94,3.93,8.01,8.22,8.01 s6.28-4.07,8.22-8.01c1.74-3.54,3.39-6.89,6.42-6.89c3.04,0,4.68,3.35,6.43,6.89c1.94,3.94,3.94,8,8.22,8c4.28,0,6.28-4.07,8.22-8 c1.74-3.54,3.39-6.89,6.42-6.89c3.04,0,4.69,3.35,6.43,6.89c1.94,3.94,3.94,8,8.22,8c3.79,0,7.52-3.85,11.13-7.58 c2.72-2.81,5.55-5.71,7.33-5.62c0.29,0.01,0.74,0.11,1.25,0.76c2.39,3.03-0.45,5.9-5.3,10.33c-3.85,3.52-8.21,7.5-8.21,12.24 c0,5.2,4.03,7.71,7.92,10.13c3.59,2.24,6.98,4.35,6.98,8.44s-3.39,6.2-6.98,8.44c-3.89,2.43-7.92,4.94-7.92,10.13 c0,5.2,4.03,7.71,7.92,10.13c3.59,2.24,6.98,4.35,6.98,8.44c0,4.09-3.39,6.2-6.98,8.44C384.74,93.7,380.71,96.21,380.71,101.41z M245.13,330.15c-5.2,0-9.43,4.23-9.43,9.43V348c0,0.55,0.45,1,1,1h16.85c0.55,0,1-0.45,1-1v-8.43 C254.56,334.37,250.33,330.15,245.13,330.15z M252.56,347H237.7v-7.43c0-4.09,3.33-7.43,7.43-7.43s7.43,3.33,7.43,7.43V347z M258.87,348c0,0.55,0.45,1,1,1h16.85c0.55,0,1-0.45,1-1v-8.43c0-5.2-4.23-9.43-9.43-9.43s-9.43,4.23-9.43,9.43V348z M260.87,339.57c0-4.09,3.33-7.43,7.43-7.43s7.43,3.33,7.43,7.43V347h-14.85V339.57z M175.64,330.15c-5.2,0-9.43,4.23-9.43,9.43 V348c0,0.55,0.45,1,1,1h16.85c0.55,0,1-0.45,1-1v-8.43C185.06,334.37,180.84,330.15,175.64,330.15z M183.06,347h-14.85v-7.43 c0-4.09,3.33-7.43,7.43-7.43s7.43,3.33,7.43,7.43V347z M152.47,330.15c-5.2,0-9.43,4.23-9.43,9.43V348c0,0.55,0.45,1,1,1h16.85 c0.55,0,1-0.45,1-1v-8.43C161.9,334.37,157.67,330.15,152.47,330.15z M159.9,347h-14.85v-7.43c0-4.09,3.33-7.43,7.43-7.43 s7.43,3.33,7.43,7.43V347z M221.97,330.15c-5.2,0-9.43,4.23-9.43,9.43V348c0,0.55,0.45,1,1,1h16.85c0.55,0,1-0.45,1-1v-8.43 C231.39,334.37,227.16,330.15,221.97,330.15z M229.39,347h-14.85v-7.43c0-4.09,3.33-7.43,7.43-7.43s7.43,3.33,7.43,7.43V347z M146.7,319.97h11.55c0.55,0,1-0.45,1-1v-7.79c0-3.74-3.04-6.78-6.78-6.78s-6.78,3.04-6.78,6.78v7.79 C145.7,319.52,146.14,319.97,146.7,319.97z M147.7,311.18c0-2.63,2.14-4.78,4.78-4.78c2.63,0,4.78,2.14,4.78,4.78v6.79h-9.55 V311.18z M129.31,330.15c-5.2,0-9.43,4.23-9.43,9.43V348c0,0.55,0.45,1,1,1h16.85c0.55,0,1-0.45,1-1v-8.43 C138.74,334.37,134.51,330.15,129.31,330.15z M136.74,347h-14.85v-7.43c0-4.09,3.33-7.43,7.43-7.43c4.1,0,7.43,3.33,7.43,7.43V347z M222.81,298.18c-4.86,0-8.87,3.7-9.37,8.43h-5.21v-11.91c0-5.2-4.23-9.43-9.43-9.43s-9.43,4.23-9.43,9.43v11.91h-5.21 c-0.5-4.73-4.51-8.43-9.37-8.43c-5.2,0-9.43,4.23-9.43,9.43v11.36c0,0.55,0.45,1,1,1h16.85h7.16h16.85h7.16h16.85 c0.55,0,1-0.45,1-1v-11.36C232.24,302.41,228.01,298.18,222.81,298.18z M208.23,308.61h5.16v9.36h-5.16V308.61z M191.37,294.69 c0-4.09,3.33-7.43,7.43-7.43s7.43,3.33,7.43,7.43v12.91v10.36h-14.85v-10.36V294.69z M184.22,308.61h5.16v9.36h-5.16V308.61z M167.36,307.61c0-4.1,3.33-7.43,7.43-7.43s7.43,3.33,7.43,7.43v10.36h-14.85V307.61z M230.24,317.97h-14.85v-10.36 c0-4.1,3.33-7.43,7.43-7.43c4.1,0,7.43,3.33,7.43,7.43V317.97z M198.8,330.15c-5.2,0-9.43,4.23-9.43,9.43V348c0,0.55,0.45,1,1,1 h16.85c0.55,0,1-0.45,1-1v-8.43C208.23,334.37,204,330.15,198.8,330.15z M206.23,347h-14.85v-7.43c0-4.09,3.33-7.43,7.43-7.43 s7.43,3.33,7.43,7.43V347z M239.35,319.97h11.55c0.55,0,1-0.45,1-1v-7.79c0-3.74-3.04-6.78-6.78-6.78s-6.78,3.04-6.78,6.78v7.79 C238.35,319.52,238.8,319.97,239.35,319.97z M240.35,311.18c0-2.63,2.14-4.78,4.78-4.78s4.78,2.14,4.78,4.78v6.79h-9.55V311.18z M364.47,32.24H33.13c-0.55,0-1,0.45-1,1v200.78v67.68v165.06c0,0.55,0.45,1,1,1H98.3h4.69h73.39h44.01h73.39h5.53h65.16 c0.55,0,1-0.45,1-1V301.7v-67.68V33.24C365.47,32.69,365.02,32.24,364.47,32.24z M349.07,262.55v-28.51 c4.77,0.04,9.6,0.34,14.4,0.88v65.78h-4.21v-19.23C359.26,273.81,355.46,266.78,349.07,262.55z M99.3,359.58h12.56h173.89h12.56 v68.06c-5.1-15-19.2-25.23-35.29-25.23H252.3c-16.85,0-31.53,11.22-35.96,27.39h-35.08c-4.43-16.17-19.11-27.39-35.96-27.39h-10.72 c-16.09,0-30.19,10.23-35.29,25.23V359.58z M284.75,357.58H112.86v-18.61c0-2.34,0.1-4.69,0.29-7.01 c10.6-14.34,39.16-48.24,78.98-59.01c19.06-5.15,38.73-6.01,58.47-2.56c21.7,16.41,34.14,41.4,34.14,68.58V357.58z M191.6,271.03 c-38.12,10.31-66.01,41.4-78.06,57.08c2.53-20.02,12-38.47,26.94-52.27c15.92-14.71,36.63-22.81,58.31-22.81 c11.6,0,22.86,2.27,33.45,6.75c5.14,2.17,10.07,4.86,14.7,8C228.26,265.06,209.66,266.14,191.6,271.03z M299.31,300.7 c-0.55,0-1,0.45-1,1v55.89h-11.56v-18.61c0-27.9-12.81-53.53-35.13-70.33c-5.74-4.32-11.99-7.92-18.58-10.71 c-10.84-4.59-22.36-6.91-34.23-6.91c-22.19,0-43.38,8.29-59.67,23.34c-16.19,14.97-26.13,35.26-27.96,57.15 c-0.21,2.46-0.31,4.96-0.31,7.45v18.61H99.3V301.7c0-0.55-0.45-1-1-1H83.79v-19.23c0-12.53-10.19-22.72-22.72-22.72 c-3.67,0-7.28,0.9-10.53,2.61v-27.32h4.47v0l14.3,0h10.55h14.3h10.55h14.3h10.55h14.3h10.55h14.3h10.55h14.3h10.55h14.3h10.55h14.3 h10.55h14.3h10.55h14.3h10.55h14.3h10.55v0l14.3,0h4.47v27.32c-3.25-1.71-6.86-2.61-10.54-2.61c-12.53,0-22.72,10.19-22.72,22.72 v19.23H299.31z M34.13,234.92c4.8-0.54,9.63-0.83,14.4-0.87v28.5c-6.39,4.23-10.19,11.26-10.19,18.92v19.23h-4.21V234.92z M197.37,115.75c-1.06-0.23-1.48-0.64-1.52-0.73c0.04-0.13,0.54-0.58,1.72-0.8c0.45-0.08,0.79-0.46,0.82-0.91l0.06-0.79 c0.03-0.41-0.2-0.79-0.56-0.97c0.39-0.13,0.66-0.47,0.68-0.88l0.06-0.86c0.03-0.43-0.22-0.83-0.61-0.99 c-0.25-0.1-0.47-0.25-0.65-0.44c-0.33-0.33-0.5-0.76-0.5-1.22c0-0.46,0.18-0.89,0.5-1.22l1.39-1.39c0.02-0.02,0.03-0.03,0.05-0.05 c0.01,0.02,0.03,0.03,0.05,0.05l1.39,1.39c0.67,0.67,0.67,1.76,0,2.43c-0.19,0.19-0.41,0.33-0.65,0.44 c-0.4,0.16-0.64,0.56-0.61,0.99l0.06,0.86c0.03,0.41,0.3,0.75,0.68,0.88c-0.36,0.18-0.58,0.56-0.56,0.97l0.05,0.79 c0.03,0.46,0.37,0.83,0.82,0.91c1.18,0.22,1.69,0.67,1.72,0.77c-0.04,0.12-0.46,0.53-1.52,0.76c-0.48,0.11-0.82,0.55-0.78,1.05 l0.02,0.35c0.03,0.4,0.3,0.75,0.68,0.88c1.34,0.45,2.35,1.56,2.72,2.89c-2.7-0.06-5.42-0.07-8.13-0.02 c0.38-1.32,1.38-2.42,2.71-2.87c0.38-0.13,0.65-0.48,0.68-0.88l0.02-0.35C198.19,116.31,197.86,115.86,197.37,115.75z M198.46,100.26c0.12-0.01,0.24-0.04,0.34-0.1c0.11,0.05,0.22,0.08,0.34,0.1c0.22,0.02,0.4,0.06,0.54,0.1 c-0.12,0.03-0.26,0.06-0.43,0.08c-0.17,0.02-0.33,0.09-0.46,0.18c-0.13-0.1-0.29-0.16-0.46-0.18c-0.17-0.02-0.31-0.05-0.43-0.08 C198.06,100.32,198.24,100.28,198.46,100.26z M198.27,97.56c0.02-0.04,0.15-0.16,0.42-0.19c0.04,0,0.08-0.01,0.12-0.02 c0.04,0.01,0.08,0.02,0.12,0.02c0.26,0.03,0.4,0.16,0.42,0.14c-0.02,0.03-0.13,0.14-0.34,0.18c-0.07,0.01-0.13,0.03-0.19,0.06 c-0.06-0.03-0.13-0.05-0.19-0.06C198.41,97.65,198.31,97.56,198.27,97.56C198.27,97.56,198.27,97.56,198.27,97.56z M193.12,122.92 c0.14,0.07,0.28,0.12,0.45,0.12h10.48c0.14,0,0.28-0.03,0.4-0.09c13.26,0.42,26.18,2.13,38.41,5.09 c60.96,14.79,76.76,52.57,80.15,63.79c1.11,3.68,1.85,7.44,2.24,11.19H69.65c0.41-4.01,7.67-23.36,8.72-25.18 c4.81-8.32,11.54-16.08,19.98-23.07C122.01,135.19,155.65,123.89,193.12,122.92z M68.89,205.03h257.46h2.06v3.07H68.72H66.7v-3.07 H68.89z M69.2,210.1H328.4l2.1,2.62c-2,1.53-3.21,3.92-3.21,6.47v12.84h-8.55V219.2c0-4.49-3.66-8.15-8.15-8.15 s-8.15,3.66-8.15,8.15v12.84h-8.55V219.2c0-4.49-3.66-8.15-8.15-8.15s-8.15,3.66-8.15,8.15v12.84h-8.55V219.2 c0-4.49-3.66-8.15-8.15-8.15s-8.15,3.66-8.15,8.15v12.84h-8.55V219.2c0-4.49-3.66-8.15-8.15-8.15s-8.15,3.66-8.15,8.15v12.84h-8.55 V219.2c0-4.49-3.66-8.15-8.15-8.15s-8.15,3.66-8.15,8.15v12.84h-8.55V219.2c0-4.49-3.66-8.15-8.15-8.15s-8.15,3.66-8.15,8.15v12.84 h-8.55V219.2c0-4.49-3.66-8.15-8.15-8.15s-8.15,3.66-8.15,8.15v12.84h-8.55V219.2c0-4.49-3.66-8.15-8.15-8.15s-8.15,3.66-8.15,8.15 v12.84h-8.55V219.2c0-4.49-3.66-8.15-8.15-8.15s-8.15,3.66-8.15,8.15v12.84h-8.55V219.2c0-4.49-3.66-8.15-8.15-8.15 s-8.15,3.66-8.15,8.15v12.84H70.3V219.2c0-2.18-0.85-4.22-2.39-5.76c-0.26-0.26-0.53-0.49-0.82-0.71L69.2,210.1z M343.6,229.06 l2.39,2.98h-2.39V229.06z M341.6,232.04h-12.3V219.2c0-1.95,0.92-3.76,2.46-4.92l9.84,12.28V232.04z M316.75,232.04h-12.3V219.2 c0-3.39,2.76-6.15,6.15-6.15s6.15,2.76,6.15,6.15V232.04z M291.91,232.04h-12.3V219.2c0-3.39,2.76-6.15,6.15-6.15 s6.15,2.76,6.15,6.15V232.04z M267.06,232.04h-12.3V219.2c0-3.39,2.76-6.15,6.15-6.15s6.15,2.76,6.15,6.15V232.04z M242.22,232.04 h-12.3V219.2c0-3.39,2.76-6.15,6.15-6.15s6.15,2.76,6.15,6.15V232.04z M217.37,232.04h-12.3V219.2c0-3.39,2.76-6.15,6.15-6.15 s6.15,2.76,6.15,6.15V232.04z M192.53,232.04h-12.3V219.2c0-3.39,2.76-6.15,6.15-6.15s6.15,2.76,6.15,6.15V232.04z M167.68,232.04 h-12.3V219.2c0-3.39,2.76-6.15,6.15-6.15c3.39,0,6.15,2.76,6.15,6.15V232.04z M142.84,232.04h-12.3V219.2 c0-3.39,2.76-6.15,6.15-6.15s6.15,2.76,6.15,6.15V232.04z M117.99,232.04h-12.3V219.2c0-3.39,2.76-6.15,6.15-6.15 c3.39,0,6.15,2.76,6.15,6.15V232.04z M93.15,232.04h-12.3V219.2c0-3.39,2.76-6.15,6.15-6.15s6.15,2.76,6.15,6.15V232.04z M65.85,214.29c0.23,0.17,0.45,0.36,0.65,0.57c1.16,1.16,1.8,2.71,1.8,4.35v12.84h-12.3v-5.48L65.85,214.29z M54.01,232.04h-2.39 l2.39-2.98V232.04z M363.47,34.24v198.67c-4.97-0.55-9.98-0.84-14.91-0.86l-5.18-6.46l-10.62-13.26l-2.39-2.98 c0.02-0.08,0.05-0.16,0.05-0.25v-5.07c0-0.55-0.45-1-1-1h-2.16c-0.39-3.95-1.17-7.91-2.34-11.77 c-9.26-30.65-39.76-55.01-81.59-65.16c-12.23-2.97-25.14-4.69-38.39-5.13c-0.28-1.6-1.17-3.02-2.46-3.97c0.82-0.51,1.27-1.2,1.27-2 c0-1.01-0.76-1.87-2.05-2.38c0.27-0.31,0.42-0.68,0.42-1.08c0-0.56-0.3-1.06-0.82-1.44c0.12-0.1,0.24-0.2,0.35-0.31 c1.45-1.45,1.45-3.81,0-5.26l-1.12-1.12l-0.08-1.19c1.04-0.35,1.67-1.03,1.67-1.86c0-0.69-0.44-1.27-1.18-1.65 c0.25-0.34,0.39-0.74,0.39-1.17c0-0.84-0.53-1.56-1.34-1.92l-0.02-0.22c1.69-0.5,2.91-2.06,2.91-3.91c0-1.29-0.59-2.48-1.62-3.26 c-0.4-0.31-0.97-0.26-1.32,0.1c-0.35,0.36-0.38,0.93-0.06,1.32c0.2,0.24,0.3,0.54,0.3,0.86c0,0.76-0.62,1.38-1.38,1.38 c-0.76,0-1.38-0.62-1.38-1.38c0-0.4,0.16-0.69,0.3-0.86c0.31-0.39,0.29-0.96-0.07-1.32c-0.35-0.36-0.92-0.4-1.32-0.1 c-1.02,0.78-1.61,1.96-1.61,3.25c0,1.85,1.22,3.41,2.91,3.91l-0.02,0.22c-0.81,0.36-1.34,1.09-1.34,1.92 c0,0.43,0.14,0.83,0.39,1.17c-0.74,0.38-1.18,0.97-1.18,1.65c0,0.83,0.63,1.51,1.68,1.86l-0.08,1.19l-1.12,1.12 c-0.7,0.7-1.09,1.64-1.09,2.63c0,0.99,0.39,1.93,1.09,2.63c0.11,0.11,0.23,0.22,0.35,0.31c-0.53,0.37-0.82,0.88-0.82,1.44 c0,0.4,0.15,0.77,0.42,1.08c-1.29,0.52-2.05,1.37-2.05,2.38c0,0.79,0.45,1.48,1.26,1.99c-1.28,0.93-2.15,2.32-2.44,3.93 c-37.76,1.05-71.68,12.5-95.6,32.3c-8.63,7.14-15.51,15.09-20.44,23.61c-0.11,0.19-8.43,20.26-8.92,26.19H65.7c-0.55,0-1,0.45-1,1 v5.07c0,0.55,0.45,1,1,1h0.93l-1.78,2.22l-10.63,13.26l-5.18,6.46c-4.94,0.02-9.94,0.31-14.91,0.86V34.24H363.47z M34.13,302.7 h5.21c0.55,0,1-0.45,1-1v-20.23c0-7.15,3.63-13.71,9.72-17.54c3.31-2.08,7.12-3.19,11-3.19c11.43,0,20.72,9.3,20.72,20.72v20.23 c0,0.55,0.45,1,1,1H97.3v55.89v72.22v34.95H34.13V302.7z M169.87,431.34c1.57,2.48,2.79,5.13,3.7,7.88h-22.34v-22.63 C158.82,419.18,165.42,424.3,169.87,431.34z M175.38,465.76h-24.15v-24.54h22.39c0.19,0,0.36-0.07,0.51-0.16 c0.82,3.02,1.25,6.15,1.25,9.32V465.76z M149.22,465.76h-18.68v-24.54h18.68V465.76z M149.22,439.22h-18.68v-23.27 c0-0.03-0.01-0.05-0.02-0.08c2.95-0.78,6.02-1.19,9.16-1.19c3.28,0,6.48,0.45,9.54,1.3V439.22z M128.54,439.22H105.8 c0.91-2.75,2.13-5.4,3.7-7.88c4.53-7.17,11.28-12.35,19.05-14.89V439.22z M103.99,450.38c0-3.11,0.42-6.19,1.21-9.16h23.34v24.54 h-24.55V450.38z M292.77,465.76h-24v-24.54h22.39c0.14,0,0.26-0.03,0.38-0.08c0.8,2.99,1.23,6.09,1.23,9.23V465.76z M266.77,465.76 h-18.68v-24.54h18.68V465.76z M268.77,439.22v-22.57c7.54,2.6,14.07,7.69,18.49,14.69c1.57,2.48,2.79,5.13,3.7,7.88H268.77z M266.77,439.22h-18.68v-23.27c0-0.04-0.02-0.08-0.02-0.12c2.9-0.75,5.93-1.15,9.01-1.15c3.33,0,6.58,0.47,9.69,1.34V439.22z M246.09,439.22h-22.9c0.91-2.75,2.13-5.4,3.7-7.88c4.56-7.21,11.36-12.41,19.2-14.93V439.22z M221.38,450.38 c0-3.11,0.42-6.19,1.21-9.16h23.49v24.54h-24.71V450.38z M288.96,430.27c-6.96-11.01-18.88-17.59-31.88-17.59 c-13,0-24.92,6.58-31.88,17.59c-3.8,6.02-5.82,12.97-5.82,20.11v15.38h-42.01v-15.38c0-7.13-2.01-14.09-5.82-20.11 c-4.88-7.73-12.21-13.26-20.64-15.88c-0.18-0.18-0.43-0.29-0.7-0.29c-0.06,0-0.11,0.02-0.17,0.03c-3.33-0.95-6.81-1.46-10.38-1.46 c-13,0-24.92,6.58-31.88,17.59c-3.81,6.02-5.82,12.97-5.82,20.11v15.38H99.3V431.8h0.1c0.46,0,0.86-0.31,0.97-0.76 c3.95-15.68,18.02-26.64,34.22-26.64h10.72c16.2,0,30.27,10.95,34.22,26.64c0.11,0.44,0.51,0.76,0.97,0.76h36.63 c0.46,0,0.86-0.31,0.97-0.76c3.95-15.68,18.02-26.64,34.22-26.64h10.72c16.2,0,30.27,10.95,34.22,26.64 c0.11,0.44,0.51,0.76,0.97,0.76h0.1v33.95h-3.53v-15.38C294.77,443.24,292.76,436.29,288.96,430.27z M300.31,465.76V430.8v-72.22 V302.7h14.51c0.55,0,1-0.45,1-1v-20.23c0-11.43,9.3-20.72,20.72-20.72c3.88,0,7.69,1.1,11,3.19c6.09,3.83,9.72,10.38,9.72,17.54 v20.23c0,0.55,0.45,1,1,1h5.21v163.06H300.31z M61.07,270.34c-4.73,0-9.21,2.07-12.29,5.68c-2.51,2.93-3.89,6.66-3.89,10.5 c0,3.84,1.38,7.57,3.89,10.5c3.09,3.61,7.57,5.68,12.29,5.68c8.92,0,16.18-7.26,16.18-16.18S69.99,270.34,61.07,270.34z M61.07,300.7c-4.14,0-8.07-1.81-10.77-4.98c-2.2-2.57-3.41-5.84-3.41-9.2s1.21-6.63,3.41-9.2c2.7-3.16,6.63-4.98,10.77-4.98 c7.82,0,14.18,6.36,14.18,14.18S68.89,300.7,61.07,300.7z M336.54,270.34c-8.92,0-16.18,7.26-16.18,16.18s7.26,16.18,16.18,16.18 c4.73,0,9.21-2.07,12.29-5.68c2.51-2.93,3.89-6.66,3.89-10.5s-1.38-7.57-3.89-10.5C345.75,272.41,341.26,270.34,336.54,270.34z M347.31,295.72c-2.71,3.16-6.63,4.98-10.78,4.98c-7.82,0-14.18-6.36-14.18-14.18s6.36-14.18,14.18-14.18 c4.14,0,8.07,1.81,10.78,4.98c2.2,2.57,3.41,5.83,3.41,9.2C350.72,289.88,349.51,293.15,347.31,295.72z M206.66,393.36h81.44 c0.55,0,1-0.45,1-1c0-2.73-0.85-5.4-2.52-7.95c-5.94-9.04-21.69-15.12-39.2-15.12c-23,0-41.72,10.35-41.72,23.07 C205.66,392.91,206.11,393.36,206.66,393.36z M247.38,371.29c16.86,0,31.95,5.71,37.53,14.22c1.24,1.9,1.96,3.86,2.14,5.85H207.7 C208.69,380.2,226.11,371.29,247.38,371.29z M109.51,393.36h81.44c0.55,0,1-0.45,1-1c0-12.72-18.71-23.07-41.72-23.07 c-17.51,0-33.26,6.08-39.2,15.12c-1.67,2.54-2.52,5.22-2.52,7.95C108.51,392.91,108.95,393.36,109.51,393.36z M112.69,385.51 c5.58-8.5,20.67-14.22,37.53-14.22c21.27,0,38.69,8.91,39.67,20.07h-79.35C110.73,389.37,111.45,387.4,112.69,385.51z M66.56,429.8 h-9.29c-0.55,0-1,0.45-1,1v18.39c0,0.55,0.45,1,1,1h9.29c0.55,0,1-0.45,1-1V430.8C67.56,430.25,67.11,429.8,66.56,429.8z M65.56,448.2h-7.29V431.8h7.29V448.2z M344.21,324.34h-9.29c-0.55,0-1,0.45-1,1v18.4c0,0.55,0.45,1,1,1h9.29c0.55,0,1-0.45,1-1 v-18.4C345.21,324.78,344.76,324.34,344.21,324.34z M343.21,342.73h-7.29v-16.4h7.29V342.73z M66.56,324.34h-9.29 c-0.55,0-1,0.45-1,1v18.4c0,0.55,0.45,1,1,1h9.29c0.55,0,1-0.45,1-1v-18.4C67.56,324.78,67.11,324.34,66.56,324.34z M65.56,342.73 h-7.29v-16.4h7.29V342.73z M344.21,429.8h-9.29c-0.55,0-1,0.45-1,1v18.39c0,0.55,0.45,1,1,1h9.29c0.55,0,1-0.45,1-1V430.8 C345.21,430.25,344.76,429.8,344.21,429.8z M343.21,448.2h-7.29V431.8h7.29V448.2z"/></g></g></svg>