<?xml version="1.0" encoding="UTF-8" standalone="no"?>
<!DOCTYPE svg PUBLIC "-//W3C//DTD SVG 1.1//EN" "http://www.w3.org/Graphics/SVG/1.1/DTD/svg11.dtd">
<svg width="100%" height="100%" viewBox="0 0 404 504" version="1.1" xmlns="http://www.w3.org/2000/svg" xmlns:xlink="http://www.w3.org/1999/xlink" xml:space="preserve" xmlns:serif="http://www.serif.com/" style="fill-rule:evenodd;clip-rule:evenodd;stroke-linejoin:round;stroke-miterlimit:2;">
    <g id="change1_1">
        <path d="M398.21,497.86C393.68,503.61 385.04,485.8 377.72,485.8C370.4,485.8 370.4,500.69 363.08,500.69C355.76,500.69 355.76,485.8 348.44,485.8C341.12,485.8 341.12,500.69 333.8,500.69C326.48,500.69 326.48,485.8 319.16,485.8C311.84,485.8 311.84,500.69 304.52,500.69C297.2,500.69 297.2,485.8 289.88,485.8C282.56,485.8 282.56,500.69 275.24,500.69C267.92,500.69 267.92,485.8 260.6,485.8C253.28,485.8 253.28,500.69 245.96,500.69C238.64,500.69 238.64,485.8 231.32,485.8C224,485.8 224,500.69 216.68,500.69C209.36,500.69 209.36,485.8 202.04,485.8C194.72,485.8 194.72,500.69 187.4,500.69C180.08,500.69 180.08,485.8 172.76,485.8C165.44,485.8 165.44,500.69 158.12,500.69C150.8,500.69 150.8,485.8 143.48,485.8C136.16,485.8 136.16,500.69 128.84,500.69C121.52,500.69 121.52,485.8 114.2,485.8C106.88,485.8 106.88,500.69 99.56,500.69C92.24,500.69 92.24,485.8 84.92,485.8C77.6,485.8 77.6,500.69 70.28,500.69C62.96,500.69 62.96,485.8 55.63,485.8C48.31,485.8 48.31,500.69 40.99,500.69C33.66,500.69 33.66,485.8 26.34,485.8C19.02,485.8 10.34,503.61 5.8,497.86C0.05,490.57 19.09,483.96 19.09,474.68C19.09,465.39 4.2,465.39 4.2,456.11C4.2,446.83 19.09,446.83 19.09,437.54C19.09,428.25 4.2,428.25 4.2,418.97C4.2,409.68 19.09,409.68 19.09,400.4C19.09,391.11 4.2,391.11 4.2,381.83C4.2,372.54 19.09,372.54 19.09,363.26C19.09,353.97 4.2,353.97 4.2,344.69C4.2,335.4 19.09,335.4 19.09,326.12C19.09,316.83 4.2,316.83 4.2,307.55C4.2,298.26 19.09,298.26 19.09,288.98C19.09,279.69 4.2,279.69 4.2,270.41C4.2,261.12 19.09,261.12 19.09,251.84C19.09,242.56 4.2,242.56 4.2,233.27C4.2,223.99 19.09,223.99 19.09,214.7C19.09,205.41 4.2,205.41 4.2,196.13C4.2,186.84 19.09,186.84 19.09,177.56C19.09,168.27 4.2,168.27 4.2,158.99C4.2,149.7 19.09,149.7 19.09,140.42C19.09,131.1 4.2,131.1 4.2,121.82C4.2,112.53 19.09,112.53 19.09,103.24C19.09,93.96 4.2,93.96 4.2,84.67C4.2,75.38 19.09,75.38 19.09,66.09C19.09,56.8 4.2,56.8 4.2,47.51C4.2,38.22 19.09,38.22 19.09,28.93C19.09,19.64 0.04,13.04 5.79,5.74C10.33,-0.01 18.97,17.8 26.29,17.8C33.61,17.8 33.61,2.91 40.93,2.91C48.25,2.91 48.25,17.8 55.57,17.8C62.89,17.8 62.89,2.91 70.21,2.91C77.53,2.91 77.53,17.8 84.85,17.8C92.17,17.8 92.17,2.91 99.49,2.91C106.81,2.91 106.81,17.8 114.13,17.8C121.45,17.8 121.45,2.91 128.77,2.91C136.09,2.91 136.09,17.8 143.41,17.8C150.73,17.8 150.73,2.91 158.05,2.91C165.37,2.91 165.37,17.8 172.69,17.8C180.01,17.8 180.01,2.91 187.33,2.91C194.65,2.91 194.65,17.8 201.97,17.8C209.29,17.8 209.29,2.91 216.61,2.91C223.93,2.91 223.93,17.8 231.25,17.8C238.57,17.8 238.57,2.91 245.89,2.91C253.21,2.91 253.21,17.8 260.53,17.8C267.85,17.8 267.85,2.91 275.17,2.91C282.49,2.91 282.49,17.8 289.81,17.8C297.13,17.8 297.13,2.91 304.45,2.91C311.77,2.91 311.77,17.8 319.09,17.8C326.41,17.8 326.41,2.91 333.73,2.91C341.05,2.91 341.05,17.8 348.38,17.8C355.7,17.8 355.7,2.91 363.02,2.91C370.35,2.91 370.35,17.8 377.67,17.8C384.99,17.8 393.66,-0.01 398.2,5.74C403.95,13.03 384.91,19.64 384.91,28.92C384.91,38.21 399.8,38.21 399.8,47.49C399.8,56.77 384.91,56.77 384.91,66.06C384.91,75.35 399.8,75.35 399.8,84.63C399.8,93.92 384.91,93.92 384.91,103.2C384.91,112.49 399.8,112.49 399.8,121.77C399.8,131.06 384.91,131.06 384.91,140.34C384.91,149.63 399.8,149.63 399.8,158.91C399.8,168.2 384.91,168.2 384.91,177.48C384.91,186.77 399.8,186.77 399.8,196.05C399.8,205.34 384.91,205.34 384.91,214.62C384.91,223.91 399.8,223.91 399.8,233.19C399.8,242.48 384.91,242.48 384.91,251.76C384.91,261.04 399.8,261.04 399.8,270.33C399.8,279.61 384.91,279.61 384.91,288.9C384.91,298.19 399.8,298.19 399.8,307.47C399.8,316.76 384.91,316.76 384.91,326.04C384.91,335.33 399.8,335.33 399.8,344.61C399.8,353.9 384.91,353.9 384.91,363.18C384.91,372.47 399.8,372.47 399.8,381.75C399.8,391.04 384.91,391.04 384.91,400.33C384.91,409.62 399.8,409.62 399.8,418.9C399.8,428.19 384.91,428.19 384.91,437.48C384.91,446.77 399.8,446.77 399.8,456.06C399.8,465.35 382.33,468.21 385.3,477.02C389.33,489.02 403.96,490.56 398.21,497.86Z" style="fill:rgb(235,162,175);fill-rule:nonzero;"/>
    </g>
    <g id="change2_1">
        <path d="M164.1,341.37L164.1,349.8L147.25,349.8L147.25,341.37C147.25,336.72 151.02,332.94 155.68,332.94C160.34,332.94 164.1,336.72 164.1,341.37ZM132.51,332.95C127.86,332.95 124.08,336.72 124.08,341.38L124.08,349.8L140.93,349.8L140.93,341.37C140.94,336.72 137.16,332.95 132.51,332.95ZM202,332.95C197.35,332.95 193.57,336.72 193.57,341.38L193.57,349.8L210.42,349.8L210.42,341.37C210.43,336.72 206.66,332.95 202,332.95ZM178.84,332.95C174.19,332.95 170.41,336.72 170.41,341.38L170.41,349.8L187.26,349.8L187.26,341.37C187.26,336.72 183.49,332.95 178.84,332.95ZM161.45,312.98C161.45,309.79 158.86,307.2 155.67,307.2C152.48,307.2 149.89,309.79 149.89,312.98L149.89,320.77L161.44,320.77L161.44,312.98L161.45,312.98ZM254.11,312.98C254.11,309.79 251.52,307.2 248.33,307.2C245.14,307.2 242.55,309.79 242.55,312.98L242.55,320.77L254.1,320.77L254.1,312.98L254.11,312.98ZM367.67,35.04L367.67,468.56L296.98,468.56L296.98,452.18C296.98,444.98 294.9,438.27 291.32,432.61C284.82,422.32 273.35,415.49 260.29,415.49C247.22,415.49 235.76,422.33 229.26,432.61C225.68,438.28 223.6,444.99 223.6,452.18L223.6,468.56L179.59,468.56L179.59,452.18C179.59,444.98 177.51,438.27 173.93,432.61C167.43,422.32 155.96,415.49 142.9,415.49C129.83,415.49 118.37,422.33 111.87,432.61C108.29,438.28 106.21,444.99 106.21,452.18L106.21,468.56L36.34,468.56L36.34,35.04L367.67,35.04ZM196.76,123.84L207.24,123.84C207.24,123.77 207.23,123.71 207.23,123.64C207.15,121.42 205.68,119.56 203.67,118.88L203.65,118.53C205.01,118.23 205.95,117.57 205.95,116.81C205.95,116 204.89,115.31 203.41,115.04L203.36,114.25C203.95,114.05 204.33,113.72 204.33,113.35C204.33,112.95 203.89,112.6 203.23,112.41L203.17,111.55C203.53,111.4 203.86,111.19 204.15,110.9C205.21,109.84 205.21,108.11 204.15,107.05L202.76,105.66L202.59,103.25C203.58,103.12 204.32,102.69 204.32,102.18C204.32,101.64 203.51,101.18 202.44,101.09L202.4,100.49C203.05,100.36 203.54,99.9 203.54,99.36C203.54,98.77 202.98,98.29 202.25,98.2L202.12,96.38C203.77,96.32 205.09,94.97 205.09,93.31C205.09,92.3 204.61,91.41 203.87,90.85C204.2,91.26 204.4,91.77 204.4,92.34C204.4,93.66 203.33,94.72 202.02,94.72C200.7,94.72 199.64,93.65 199.64,92.34C199.64,91.78 199.84,91.26 200.16,90.86C199.42,91.42 198.94,92.31 198.94,93.31C198.94,94.97 200.26,96.33 201.91,96.38L201.78,98.2C201.05,98.29 200.49,98.77 200.49,99.36C200.49,99.9 200.97,100.36 201.63,100.49L201.59,101.09C200.52,101.19 199.71,101.64 199.71,102.18C199.71,102.7 200.45,103.13 201.44,103.25L201.27,105.66L199.88,107.05C198.82,108.11 198.82,109.84 199.88,110.9C200.17,111.19 200.5,111.4 200.86,111.55L200.8,112.41C200.14,112.61 199.7,112.95 199.7,113.35C199.7,113.72 200.08,114.05 200.67,114.25L200.62,115.04C199.14,115.31 198.08,116 198.08,116.81C198.08,117.57 199.02,118.23 200.38,118.53L200.36,118.88C198.37,119.55 196.91,121.38 196.8,123.58C196.77,123.66 196.76,123.75 196.76,123.84ZM288.95,340.77C288.95,312.34 275.31,287.11 254.22,271.24C238.11,268.4 217.66,267.68 195.07,273.79C154.05,284.88 125.42,319.76 115.37,333.41C115.17,335.84 115.06,338.3 115.06,340.78L115.06,360.39L288.95,360.39L288.95,340.77ZM332.62,205.83L68.9,205.83L68.9,210.9L332.62,210.9L332.62,205.83ZM263.06,349.8L279.92,349.8L279.92,341.37C279.92,336.72 276.15,332.94 271.49,332.94C266.84,332.94 263.06,336.71 263.06,341.37L263.06,349.8ZM248.33,332.95C243.68,332.95 239.9,336.72 239.9,341.38L239.9,349.8L256.75,349.8L256.75,341.37C256.76,336.72 252.98,332.95 248.33,332.95ZM226.01,300.98C221.36,300.98 217.58,304.75 217.58,309.41L210.42,309.41L210.42,296.5C210.42,291.85 206.65,288.07 201.99,288.07C197.34,288.07 193.56,291.84 193.56,296.5L193.56,309.41L186.4,309.41C186.4,304.76 182.63,300.98 177.97,300.98C173.31,300.98 169.54,304.75 169.54,309.41L169.54,320.77L234.41,320.77L234.41,309.41C234.44,304.75 230.67,300.98 226.01,300.98ZM225.17,332.95C220.52,332.95 216.74,336.72 216.74,341.38L216.74,349.8L233.59,349.8L233.59,341.37C233.59,336.72 229.82,332.95 225.17,332.95Z" style="fill:rgb(222,214,255);fill-rule:nonzero;"/>
    </g>
    <g id="change3_1">
        <path d="M52.73,234.84L52.73,264.88C46.62,268.72 42.54,275.51 42.54,283.26L42.54,303.49L36.33,303.49L36.33,235.81C41.71,235.18 47.18,234.84 52.73,234.84ZM351.27,234.84L351.27,264.88C357.38,268.72 361.46,275.51 361.46,283.26L361.46,303.49L367.67,303.49L367.67,235.81C362.29,235.18 356.82,234.84 351.27,234.84ZM58.21,234.84L58.21,228.01L52.74,234.84L58.21,234.84ZM345.8,234.84L351.27,234.84L345.8,228.01L345.8,234.84ZM71.92,210.9L68.83,214.75C69.41,215.07 69.94,215.47 70.41,215.94C71.7,217.23 72.5,219.02 72.5,221L72.5,234.84L83.05,234.84L83.05,221C83.05,217.05 86.25,213.85 90.2,213.85C94.15,213.85 97.35,217.05 97.35,221L97.35,234.84L107.9,234.84L107.9,221C107.9,217.05 111.1,213.85 115.05,213.85C119,213.85 122.2,217.05 122.2,221L122.2,234.84L132.75,234.84L132.75,221C132.75,217.05 135.95,213.85 139.9,213.85C143.85,213.85 147.05,217.05 147.05,221L147.05,234.84L157.6,234.84L157.6,221C157.6,217.05 160.8,213.85 164.75,213.85C168.7,213.85 171.9,217.05 171.9,221L171.9,234.84L182.45,234.84L182.45,221C182.45,217.05 185.65,213.85 189.6,213.85C193.55,213.85 196.75,217.05 196.75,221L196.75,234.84L207.3,234.84L207.3,221C207.3,217.05 210.5,213.85 214.45,213.85C218.4,213.85 221.6,217.05 221.6,221L221.6,234.84L232.15,234.84L232.15,221C232.15,217.05 235.35,213.85 239.3,213.85C243.25,213.85 246.45,217.05 246.45,221L246.45,234.84L257,234.84L257,221C257,217.05 260.2,213.85 264.15,213.85C268.1,213.85 271.3,217.05 271.3,221L271.3,234.84L281.85,234.84L281.85,221C281.85,217.05 285.05,213.85 289,213.85C292.95,213.85 296.15,217.05 296.15,221L296.15,234.84L306.7,234.84L306.7,221C306.7,217.05 309.9,213.85 313.85,213.85C317.8,213.85 321,217.05 321,221L321,234.84L331.55,234.84L331.55,221C331.55,218.31 333.03,215.97 335.22,214.75L332.13,210.9L71.92,210.9ZM101.48,360.39L302.51,360.39L302.51,432.61L301.41,432.61C297.44,416.87 283.19,405.22 266.22,405.22L255.5,405.22C238.53,405.22 224.28,416.87 220.31,432.61L183.68,432.61C179.71,416.87 165.46,405.22 148.49,405.22L137.77,405.22C120.8,405.22 106.55,416.87 102.58,432.61L101.48,432.61L101.48,360.39ZM112.71,394.16L194.15,394.16C194.15,381.97 175.92,372.09 153.43,372.09C135.73,372.09 120.68,378.21 115.06,386.76C113.54,389.07 112.71,391.56 112.71,394.16ZM291.3,394.16C291.3,391.56 290.47,389.07 288.95,386.76C283.34,378.21 268.28,372.09 250.58,372.09C228.09,372.09 209.86,381.97 209.86,394.16L291.3,394.16Z" style="fill:rgb(169,222,249);fill-rule:nonzero;"/>
    </g>
    <g id="change4_1">
        <path d="M329.56,205.83L72.1,205.83C70.19,205.83 79.57,181.11 80.71,179.15C85.9,170.18 92.96,162.39 100.92,155.81C139.22,124.12 198.97,117.4 246.3,128.88C280.12,137.08 316.51,158.06 327.17,193.35C328.39,197.41 329.2,201.6 329.56,205.83ZM367.67,303.5L367.67,468.56L302.51,468.56L302.51,303.5L318.02,303.5L318.02,283.27C318.02,271.27 327.75,261.55 339.74,261.55C343.98,261.55 347.93,262.79 351.27,264.89C357.38,268.73 361.46,275.52 361.46,283.27L361.46,303.5L367.67,303.5ZM324.56,288.32C324.56,296.7 331.36,303.5 339.74,303.5C344.36,303.5 348.49,301.43 351.27,298.17C353.54,295.52 354.92,292.08 354.92,288.32C354.92,284.56 353.54,281.12 351.27,278.47C348.49,275.21 344.36,273.14 339.74,273.14C331.35,273.14 324.56,279.93 324.56,288.32ZM347.41,327.14L338.12,327.14L338.12,345.53L347.41,345.53L347.41,327.14ZM347.41,432.6L338.12,432.6L338.12,450.99L347.41,450.99L347.41,432.6ZM85.99,303.5L101.5,303.5L101.5,468.56L36.34,468.56L36.34,303.5L42.55,303.5L42.55,283.27C42.55,275.52 46.63,268.73 52.74,264.89C56.09,262.79 60.03,261.55 64.27,261.55C76.27,261.55 85.99,271.28 85.99,283.27L85.99,303.5ZM49.09,288.32C49.09,292.08 50.47,295.52 52.74,298.17C55.52,301.43 59.65,303.5 64.27,303.5C72.65,303.5 79.45,296.7 79.45,288.32C79.45,279.94 72.65,273.14 64.27,273.14C59.65,273.14 55.52,275.21 52.74,278.47C50.46,281.12 49.09,284.55 49.09,288.32ZM69.76,327.14L60.47,327.14L60.47,345.53L69.76,345.53L69.76,327.14ZM69.76,432.6L60.47,432.6L60.47,450.99L69.76,450.99L69.76,432.6ZM186.42,320.77L193.58,320.77L193.58,309.41L186.42,309.41L186.42,320.77ZM210.43,320.77L217.59,320.77L217.59,309.41L210.43,309.41L210.43,320.77Z" style="fill:rgb(249,192,181);fill-rule:nonzero;"/>
    </g>
    <g>
        <g id="change5_1">
            <path d="M195.07,273.79C154.05,284.88 125.42,319.76 115.37,333.41C119.11,288.84 156.47,253.83 202.01,253.83C214.01,253.83 225.45,256.26 235.85,260.66C242.42,263.44 248.59,267.01 254.22,271.24C238.11,268.4 217.65,267.68 195.07,273.79ZM60.46,345.53L69.75,345.53L69.75,327.14L60.46,327.14L60.46,345.53ZM60.46,432.6L60.46,450.99L69.75,450.99L69.75,432.6L60.46,432.6ZM338.11,327.14L338.11,345.53L347.4,345.53L347.4,327.14L338.11,327.14ZM338.11,432.6L338.11,450.99L347.4,450.99L347.4,432.6L338.11,432.6ZM246.42,221C246.42,217.05 243.22,213.85 239.27,213.85C235.32,213.85 232.12,217.05 232.12,221L232.12,234.84L246.42,234.84L246.42,221ZM68.83,214.75L58.2,228.01L58.2,234.84L72.5,234.84L72.5,221C72.5,219.03 71.7,217.24 70.41,215.94C69.94,215.48 69.41,215.08 68.83,214.75ZM90.2,213.85C86.25,213.85 83.05,217.05 83.05,221L83.05,234.84L97.35,234.84L97.35,221C97.35,217.05 94.15,213.85 90.2,213.85ZM122.19,221C122.19,217.05 118.99,213.85 115.04,213.85C111.09,213.85 107.89,217.05 107.89,221L107.89,234.84L122.19,234.84L122.19,221ZM147.04,221C147.04,217.05 143.84,213.85 139.89,213.85C135.94,213.85 132.74,217.05 132.74,221L132.74,234.84L147.04,234.84L147.04,221ZM171.88,221C171.88,217.05 168.68,213.85 164.73,213.85C160.78,213.85 157.58,217.05 157.58,221L157.58,234.84L171.88,234.84L171.88,221ZM196.73,221C196.73,217.05 193.53,213.85 189.58,213.85C185.63,213.85 182.43,217.05 182.43,221L182.43,234.84L196.73,234.84L196.73,221ZM221.57,221C221.57,217.05 218.37,213.85 214.42,213.85C210.47,213.85 207.27,217.05 207.27,221L207.27,234.84L221.57,234.84L221.57,221ZM271.26,221C271.26,217.05 268.06,213.85 264.11,213.85C260.16,213.85 256.96,217.05 256.96,221L256.96,234.84L271.26,234.84L271.26,221ZM288.96,213.85C285.01,213.85 281.81,217.05 281.81,221L281.81,234.84L296.11,234.84L296.11,221C296.11,217.05 292.91,213.85 288.96,213.85ZM313.8,213.85C309.85,213.85 306.65,217.05 306.65,221L306.65,234.84L320.95,234.84L320.95,221C320.95,217.05 317.75,213.85 313.8,213.85ZM345.8,234.84L345.8,228.01L335.17,214.75C332.98,215.97 331.5,218.31 331.5,221L331.5,234.84L345.8,234.84ZM153.42,372.09C135.72,372.09 120.67,378.21 115.05,386.76C113.53,389.07 112.7,391.56 112.7,394.16L194.14,394.16C194.14,381.97 175.91,372.09 153.42,372.09ZM250.58,372.09C228.09,372.09 209.86,381.97 209.86,394.16L291.29,394.16C291.29,391.56 290.46,389.07 288.94,386.76C283.33,378.21 268.28,372.09 250.58,372.09Z" style="fill:rgb(42,26,31);fill-rule:nonzero;"/>
        </g>
        <g id="change5_2">
            <path d="M392.89,94.77C396.78,92.34 400.81,89.83 400.81,84.63C400.81,79.43 396.78,76.92 392.89,74.5C389.3,72.26 385.91,70.15 385.91,66.06C385.91,61.97 389.3,59.86 392.89,57.62C396.78,55.19 400.81,52.68 400.81,47.49C400.81,42.29 396.78,39.78 392.89,37.36C389.3,35.12 385.91,33.01 385.91,28.92C385.91,25.07 389.75,21.56 393.47,18.16C397.99,14.03 402.66,9.76 398.99,5.12C398.24,4.16 397.32,3.65 396.27,3.6C393.59,3.45 390.71,6.41 387.4,9.83C384.24,13.1 380.65,16.8 377.71,16.8C374.67,16.8 373.02,13.45 371.28,9.91C369.34,5.97 367.34,1.9 363.06,1.9C358.78,1.9 356.77,5.97 354.84,9.91C353.1,13.45 351.45,16.8 348.42,16.8C345.38,16.8 343.74,13.45 341.99,9.91C340.05,5.97 338.05,1.91 333.77,1.91C329.49,1.91 327.49,5.98 325.55,9.92C323.81,13.46 322.16,16.81 319.13,16.81C316.09,16.81 314.45,13.46 312.71,9.92C310.78,5.98 308.78,1.92 304.49,1.92C300.21,1.92 298.2,5.99 296.27,9.93C294.53,13.47 292.88,16.82 289.85,16.82C286.82,16.82 285.17,13.47 283.43,9.93C281.49,5.99 279.49,1.93 275.21,1.93C270.93,1.93 268.93,6 266.99,9.93C265.25,13.47 263.6,16.82 260.57,16.82C257.53,16.82 255.89,13.47 254.15,9.93C252.21,5.99 250.21,1.93 245.93,1.93C241.65,1.93 239.65,6 237.71,9.94C235.97,13.48 234.32,16.83 231.29,16.83C228.25,16.83 226.61,13.48 224.87,9.94C222.94,6 220.94,1.93 216.65,1.93C212.36,1.93 210.37,6 208.43,9.94C206.69,13.48 205.04,16.83 202.01,16.83C198.97,16.83 197.33,13.48 195.59,9.94C193.66,6 191.65,1.93 187.37,1.93C183.09,1.93 181.09,6 179.15,9.93C177.41,13.47 175.76,16.82 172.73,16.82C169.69,16.82 168.05,13.47 166.31,9.93C164.38,5.99 162.38,1.93 158.09,1.93C153.81,1.93 151.81,6 149.87,9.94C148.13,13.48 146.48,16.83 143.45,16.83C140.42,16.83 138.77,13.48 137.03,9.94C135.1,6 133.09,1.93 128.81,1.93C124.53,1.93 122.53,6 120.59,9.93C118.85,13.47 117.2,16.82 114.17,16.82C111.14,16.82 109.49,13.47 107.75,9.93C105.82,5.99 103.81,1.92 99.53,1.92C95.25,1.92 93.25,5.99 91.31,9.93C89.53,13.45 87.89,16.8 84.85,16.8C81.81,16.8 80.17,13.45 78.43,9.91C76.5,5.97 74.49,1.9 70.21,1.9C65.93,1.9 63.93,5.97 61.99,9.9C60.25,13.45 58.61,16.8 55.57,16.8C52.53,16.8 50.89,13.45 49.15,9.91C47.22,5.97 45.22,1.9 40.93,1.9C36.65,1.9 34.65,5.97 32.71,9.91C30.97,13.45 29.32,16.8 26.29,16.8C23.35,16.8 19.76,13.1 16.6,9.83C13.3,6.42 10.45,3.45 7.73,3.61C6.68,3.66 5.76,4.17 5.01,5.12C1.34,9.77 6.02,14.04 10.53,18.17C14.25,21.57 18.09,25.08 18.09,28.93C18.09,33.02 14.7,35.13 11.11,37.37C7.23,39.8 3.2,42.31 3.2,47.51C3.2,52.71 7.22,55.22 11.12,57.65C14.71,59.89 18.1,62 18.1,66.09C18.1,70.18 14.71,72.29 11.12,74.53C7.23,76.96 3.2,79.47 3.2,84.67C3.2,89.87 7.22,92.38 11.12,94.8C14.71,97.04 18.1,99.15 18.1,103.24C18.1,107.33 14.71,109.44 11.12,111.68C7.23,114.11 3.2,116.62 3.2,121.82C3.2,127.02 7.22,129.53 11.12,131.96C14.71,134.2 18.1,136.31 18.1,140.4C18.1,144.49 14.71,146.6 11.12,148.84C7.23,151.26 3.2,153.77 3.2,158.96C3.2,164.16 7.22,166.67 11.12,169.09C14.71,171.33 18.1,173.44 18.1,177.53C18.1,181.62 14.71,183.73 11.12,185.97C7.23,188.4 3.2,190.91 3.2,196.11C3.2,201.31 7.22,203.82 11.12,206.24C14.71,208.48 18.1,210.59 18.1,214.68C18.1,218.77 14.71,220.88 11.12,223.12C7.23,225.54 3.2,228.05 3.2,233.25C3.2,238.45 7.22,240.96 11.12,243.38C14.71,245.62 18.1,247.73 18.1,251.82C18.1,255.91 14.71,258.02 11.12,260.26C7.23,262.68 3.2,265.19 3.2,270.39C3.2,275.59 7.22,278.1 11.12,280.52C14.71,282.76 18.1,284.87 18.1,288.96C18.1,293.05 14.71,295.16 11.12,297.4C7.23,299.83 3.2,302.34 3.2,307.54C3.2,312.74 7.22,315.25 11.12,317.67C14.71,319.91 18.1,322.02 18.1,326.11C18.1,330.2 14.71,332.31 11.12,334.55C7.23,336.97 3.2,339.48 3.2,344.68C3.2,349.88 7.22,352.39 11.12,354.81C14.71,357.05 18.1,359.16 18.1,363.25C18.1,367.34 14.71,369.45 11.12,371.69C7.23,374.12 3.2,376.62 3.2,381.82C3.2,387.02 7.22,389.53 11.12,391.95C14.71,394.19 18.1,396.3 18.1,400.39C18.1,404.48 14.71,406.59 11.12,408.83C7.23,411.26 3.2,413.77 3.2,418.97C3.2,424.17 7.22,426.68 11.12,429.1C14.71,431.34 18.1,433.45 18.1,437.54C18.1,441.63 14.71,443.74 11.12,445.98C7.23,448.4 3.2,450.91 3.2,456.11C3.2,461.31 7.22,463.82 11.12,466.24C14.71,468.48 18.1,470.59 18.1,474.68C18.1,478.53 14.26,482.04 10.54,485.44C6.02,489.57 1.35,493.84 5.02,498.48C5.77,499.44 6.69,499.95 7.74,500C10.46,500.18 13.3,497.19 16.61,493.77C19.77,490.5 23.36,486.8 26.3,486.8C29.34,486.8 30.99,490.15 32.73,493.69C34.67,497.63 36.67,501.69 40.95,501.69C45.23,501.69 47.23,497.62 49.17,493.69C50.91,490.15 52.56,486.8 55.59,486.8C58.63,486.8 60.28,490.15 62.02,493.69C63.96,497.63 65.96,501.69 70.24,501.69C74.52,501.69 76.52,497.62 78.46,493.69C80.2,490.15 81.85,486.8 84.88,486.8C87.92,486.8 89.56,490.15 91.3,493.69C93.23,497.63 95.23,501.69 99.52,501.69C103.8,501.69 105.8,497.62 107.74,493.69C109.48,490.15 111.13,486.8 114.16,486.8C117.19,486.8 118.84,490.15 120.58,493.69C122.52,497.63 124.52,501.69 128.8,501.69C133.08,501.69 135.08,497.62 137.02,493.69C138.76,490.15 140.41,486.8 143.44,486.8C146.48,486.8 148.12,490.15 149.87,493.69C151.81,497.63 153.81,501.69 158.09,501.69C162.37,501.69 164.37,497.62 166.31,493.69C168.05,490.15 169.7,486.8 172.73,486.8C175.77,486.8 177.41,490.15 179.15,493.69C181.08,497.63 183.09,501.69 187.37,501.69C191.65,501.69 193.65,497.62 195.59,493.69C197.33,490.15 198.98,486.8 202.01,486.8C205.04,486.8 206.69,490.15 208.43,493.69C210.36,497.63 212.37,501.69 216.65,501.69C220.93,501.69 222.93,497.62 224.87,493.69C226.61,490.15 228.26,486.8 231.29,486.8C234.33,486.8 235.97,490.15 237.71,493.69C239.64,497.63 241.64,501.69 245.93,501.69C250.21,501.69 252.21,497.62 254.15,493.69C255.89,490.15 257.54,486.8 260.57,486.8C263.61,486.8 265.25,490.15 266.99,493.69C268.92,497.63 270.92,501.69 275.21,501.69C279.5,501.69 281.49,497.62 283.43,493.69C285.17,490.15 286.82,486.8 289.85,486.8C292.89,486.8 294.53,490.15 296.27,493.69C298.2,497.63 300.2,501.69 304.49,501.69C308.78,501.69 310.77,497.62 312.71,493.69C314.45,490.15 316.1,486.8 319.13,486.8C322.17,486.8 323.81,490.15 325.55,493.69C327.48,497.63 329.49,501.69 333.77,501.69C338.05,501.69 340.05,497.62 341.99,493.68C343.73,490.14 345.38,486.79 348.41,486.79C351.44,486.79 353.09,490.14 354.83,493.68C356.76,497.62 358.76,501.68 363.05,501.68C367.33,501.68 369.33,497.61 371.27,493.68C373.01,490.14 374.66,486.79 377.69,486.79C380.63,486.79 384.22,490.49 387.38,493.76C390.69,497.18 393.58,500.12 396.25,499.98C397.3,499.93 398.22,499.42 398.97,498.46C402.68,493.75 399.05,490.84 395.21,487.75C392,485.17 387.99,481.96 386.23,476.71C384.92,472.81 388.44,470.19 392.53,467.16C396.4,464.29 400.79,461.03 400.79,456.08C400.79,450.88 396.76,448.37 392.87,445.94C389.28,443.7 385.89,441.59 385.89,437.5C385.89,433.41 389.28,431.3 392.87,429.06C396.76,426.63 400.79,424.12 400.79,418.92C400.79,413.72 396.76,411.21 392.87,408.79C389.28,406.55 385.89,404.44 385.89,400.35C385.89,396.26 389.28,394.15 392.87,391.91C396.76,389.48 400.79,386.97 400.79,381.77C400.79,376.57 396.76,374.06 392.87,371.63C389.28,369.39 385.89,367.28 385.89,363.19C385.89,359.1 389.28,356.99 392.87,354.75C396.76,352.32 400.79,349.81 400.79,344.61C400.79,339.41 396.76,336.9 392.87,334.48C389.28,332.24 385.89,330.13 385.89,326.04C385.89,321.95 389.28,319.84 392.87,317.6C396.76,315.17 400.79,312.66 400.79,307.46C400.79,302.26 396.76,299.75 392.87,297.33C389.28,295.09 385.89,292.98 385.89,288.89C385.89,284.8 389.28,282.69 392.87,280.45C396.76,278.02 400.79,275.51 400.79,270.32C400.79,265.13 396.76,262.61 392.87,260.19C389.28,257.95 385.89,255.84 385.89,251.75C385.89,247.66 389.28,245.55 392.87,243.31C396.76,240.88 400.79,238.37 400.79,233.17C400.79,227.97 396.76,225.46 392.87,223.04C389.28,220.8 385.89,218.69 385.89,214.6C385.89,210.51 389.28,208.4 392.87,206.16C396.76,203.73 400.79,201.22 400.79,196.02C400.79,190.82 396.76,188.31 392.87,185.89C389.28,183.65 385.89,181.54 385.89,177.45C385.89,173.36 389.28,171.25 392.87,169.01C396.76,166.58 400.79,164.07 400.79,158.88C400.79,153.69 396.76,151.17 392.87,148.75C389.28,146.51 385.89,144.4 385.89,140.31C385.89,136.22 389.28,134.11 392.87,131.87C396.76,129.44 400.79,126.93 400.79,121.74C400.79,116.55 396.76,114.03 392.87,111.61C389.28,109.37 385.89,107.26 385.89,103.17C385.89,99.08 389.3,97.01 392.89,94.77ZM383.91,103.21C383.91,108.41 387.94,110.92 391.83,113.34C395.42,115.58 398.81,117.69 398.81,121.78C398.81,125.87 395.42,127.98 391.83,130.22C387.94,132.65 383.91,135.16 383.91,140.35C383.91,145.54 387.94,148.06 391.83,150.48C395.42,152.72 398.81,154.83 398.81,158.92C398.81,163.01 395.42,165.12 391.83,167.36C387.94,169.79 383.91,172.3 383.91,177.49C383.91,182.69 387.94,185.2 391.83,187.62C395.42,189.86 398.81,191.97 398.81,196.06C398.81,200.15 395.42,202.26 391.83,204.5C387.94,206.93 383.91,209.44 383.91,214.64C383.91,219.84 387.94,222.35 391.83,224.77C395.42,227.01 398.81,229.12 398.81,233.21C398.81,237.3 395.42,239.41 391.83,241.65C387.94,244.08 383.91,246.59 383.91,251.79C383.91,256.99 387.94,259.5 391.83,261.92C395.42,264.16 398.81,266.27 398.81,270.36C398.81,274.45 395.42,276.56 391.83,278.8C387.94,281.23 383.91,283.74 383.91,288.93C383.91,294.13 387.94,296.64 391.83,299.06C395.42,301.3 398.81,303.41 398.81,307.5C398.81,311.59 395.42,313.7 391.83,315.94C387.94,318.37 383.91,320.88 383.91,326.08C383.91,331.28 387.94,333.79 391.83,336.21C395.42,338.45 398.81,340.56 398.81,344.65C398.81,348.74 395.42,350.85 391.83,353.09C387.94,355.52 383.91,358.03 383.91,363.22C383.91,368.41 387.94,370.93 391.83,373.36C395.42,375.6 398.81,377.71 398.81,381.8C398.81,385.89 395.42,388 391.83,390.24C387.94,392.67 383.91,395.18 383.91,400.38C383.91,405.58 387.94,408.09 391.83,410.51C395.42,412.75 398.81,414.86 398.81,418.95C398.81,423.04 395.42,425.15 391.83,427.39C387.94,429.82 383.91,432.33 383.91,437.53C383.91,442.73 387.94,445.24 391.83,447.67C395.42,449.91 398.81,452.02 398.81,456.11C398.81,460.06 395.02,462.87 391.36,465.59C387.04,468.79 382.58,472.11 384.36,477.39C386.31,483.19 390.57,486.61 393.99,489.35C398.21,492.74 399.82,494.23 397.43,497.26C396.92,497.91 396.47,498.01 396.18,498.02L396.1,498.02C394.3,498.02 391.53,495.16 388.86,492.4C385.25,488.67 381.52,484.82 377.73,484.82C373.45,484.82 371.45,488.89 369.51,492.83C367.77,496.37 366.12,499.72 363.09,499.72C360.06,499.72 358.41,496.37 356.67,492.83C354.74,488.89 352.74,484.82 348.45,484.82C344.16,484.82 342.17,488.89 340.23,492.82C338.49,496.36 336.84,499.71 333.81,499.71C330.78,499.71 329.13,496.36 327.39,492.82C325.46,488.88 323.45,484.82 319.17,484.82C314.89,484.82 312.89,488.89 310.95,492.82C309.21,496.36 307.56,499.71 304.53,499.71C301.5,499.71 299.85,496.36 298.11,492.82C296.18,488.88 294.17,484.81 289.89,484.81C285.61,484.81 283.61,488.88 281.67,492.81C279.93,496.35 278.28,499.7 275.25,499.7C272.22,499.7 270.57,496.35 268.83,492.81C266.9,488.87 264.89,484.8 260.61,484.8C256.33,484.8 254.33,488.87 252.39,492.81C250.65,496.35 249,499.7 245.97,499.7C242.93,499.7 241.29,496.35 239.55,492.81C237.62,488.87 235.62,484.81 231.33,484.81C227.05,484.81 225.05,488.88 223.11,492.81C221.37,496.35 219.72,499.7 216.69,499.7C213.65,499.7 212.01,496.35 210.27,492.81C208.34,488.87 206.33,484.81 202.05,484.81C197.77,484.81 195.77,488.88 193.83,492.81C192.09,496.35 190.44,499.7 187.41,499.7C184.38,499.7 182.73,496.35 180.99,492.81C179.06,488.87 177.05,484.81 172.77,484.81C168.49,484.81 166.49,488.88 164.55,492.81C162.81,496.35 161.16,499.7 158.13,499.7C155.09,499.7 153.45,496.35 151.71,492.81C149.77,488.87 147.77,484.81 143.49,484.81C139.21,484.81 137.21,488.88 135.27,492.81C133.53,496.35 131.88,499.7 128.85,499.7C125.81,499.7 124.17,496.35 122.43,492.81C120.49,488.87 118.49,484.81 114.21,484.81C109.93,484.81 107.93,488.88 105.99,492.81C104.25,496.35 102.6,499.7 99.57,499.7C96.53,499.7 94.89,496.35 93.15,492.81C91.22,488.87 89.22,484.81 84.93,484.81C80.65,484.81 78.65,488.88 76.71,492.81C74.97,496.35 73.32,499.7 70.29,499.7C67.25,499.7 65.6,496.35 63.86,492.81C61.92,488.87 59.92,484.81 55.64,484.81C51.36,484.81 49.36,488.88 47.42,492.81C45.68,496.35 44.03,499.7 41,499.7C37.96,499.7 36.31,496.35 34.57,492.81C32.63,488.87 30.63,484.81 26.35,484.81C22.56,484.81 18.83,488.66 15.22,492.39C12.5,495.2 9.69,498.06 7.89,498.01C7.6,498 7.15,497.9 6.64,497.25C4.25,494.22 7.09,491.35 11.94,486.92C15.79,483.4 20.15,479.42 20.15,474.68C20.15,469.48 16.13,466.97 12.23,464.55C8.59,462.31 5.2,460.19 5.2,456.11C5.2,452.02 8.59,449.91 12.18,447.67C16.07,445.24 20.1,442.73 20.1,437.54C20.1,432.35 16.08,429.83 12.18,427.41C8.59,425.17 5.2,423.05 5.2,418.97C5.2,414.89 8.59,412.77 12.18,410.53C16.07,408.1 20.1,405.59 20.1,400.4C20.1,395.2 16.08,392.69 12.18,390.27C8.59,388.02 5.2,385.91 5.2,381.82C5.2,377.73 8.59,375.62 12.18,373.38C16.07,370.95 20.1,368.44 20.1,363.25C20.1,358.06 16.08,355.54 12.18,353.12C8.59,350.88 5.2,348.77 5.2,344.68C5.2,340.59 8.59,338.48 12.18,336.24C16.07,333.81 20.1,331.3 20.1,326.11C20.1,320.91 16.08,318.4 12.18,315.98C8.59,313.74 5.2,311.63 5.2,307.54C5.2,303.45 8.59,301.34 12.18,299.1C16.07,296.67 20.1,294.16 20.1,288.96C20.1,283.76 16.08,281.25 12.18,278.83C8.59,276.59 5.2,274.48 5.2,270.39C5.2,266.3 8.59,264.19 12.18,261.95C16.07,259.52 20.1,257.01 20.1,251.81C20.1,246.61 16.08,244.1 12.18,241.68C8.59,239.45 5.2,237.34 5.2,233.25C5.2,229.16 8.59,227.05 12.18,224.81C16.07,222.38 20.1,219.87 20.1,214.68C20.1,209.48 16.08,206.97 12.18,204.55C8.59,202.31 5.2,200.2 5.2,196.11C5.2,192.02 8.59,189.91 12.18,187.67C16.07,185.24 20.1,182.73 20.1,177.53C20.1,172.33 16.08,169.82 12.18,167.4C8.59,165.16 5.2,163.05 5.2,158.96C5.2,154.87 8.59,152.76 12.18,150.52C16.07,148.09 20.1,145.58 20.1,140.38C20.1,135.18 16.08,132.67 12.18,130.24C8.59,128.02 5.2,125.9 5.2,121.82C5.2,117.73 8.59,115.62 12.18,113.38C16.07,110.95 20.1,108.44 20.1,103.24C20.1,98.04 16.08,95.53 12.18,93.11C8.59,90.87 5.2,88.76 5.2,84.67C5.2,80.58 8.59,78.47 12.18,76.23C16.07,73.8 20.1,71.29 20.1,66.09C20.1,60.89 16.08,58.38 12.18,55.95C8.59,53.72 5.2,51.6 5.2,47.51C5.2,43.42 8.59,41.31 12.18,39.07C16.07,36.64 20.1,34.13 20.1,28.93C20.1,24.19 15.74,20.21 11.89,16.69C7.04,12.27 4.19,9.4 6.58,6.36C7.1,5.71 7.54,5.62 7.83,5.6C9.62,5.49 12.44,8.41 15.16,11.22C18.77,14.95 22.5,18.8 26.29,18.8C30.57,18.8 32.57,14.73 34.51,10.8C36.25,7.26 37.9,3.91 40.93,3.91C43.97,3.91 45.61,7.26 47.35,10.8C49.28,14.74 51.28,18.81 55.57,18.81C59.85,18.81 61.85,14.74 63.79,10.8C65.53,7.26 67.18,3.91 70.21,3.91C73.25,3.91 74.89,7.26 76.63,10.8C78.56,14.74 80.57,18.81 84.85,18.81C89.13,18.81 91.13,14.74 93.07,10.8C94.81,7.26 96.46,3.91 99.49,3.91C102.52,3.91 104.17,7.26 105.91,10.8C107.84,14.74 109.85,18.81 114.13,18.81C118.41,18.81 120.41,14.74 122.35,10.8C124.09,7.26 125.74,3.91 128.77,3.91C131.81,3.91 133.45,7.26 135.19,10.8C137.12,14.74 139.13,18.81 143.41,18.81C147.69,18.81 149.69,14.74 151.63,10.81C153.37,7.27 155.02,3.92 158.05,3.92C161.09,3.92 162.73,7.27 164.47,10.81C166.4,14.75 168.4,18.82 172.69,18.82C176.97,18.82 178.97,14.75 180.91,10.81C182.65,7.27 184.3,3.92 187.33,3.92C190.37,3.92 192.01,7.27 193.75,10.81C195.68,14.75 197.69,18.82 201.97,18.82C206.25,18.82 208.25,14.75 210.19,10.81C211.93,7.27 213.58,3.92 216.61,3.92C219.64,3.92 221.29,7.27 223.03,10.81C224.96,14.75 226.96,18.82 231.25,18.82C235.54,18.82 237.53,14.75 239.47,10.81C241.21,7.27 242.86,3.92 245.89,3.92C248.92,3.92 250.57,7.27 252.31,10.81C254.24,14.75 256.25,18.81 260.53,18.81C264.81,18.81 266.81,14.74 268.75,10.8C270.49,7.26 272.14,3.91 275.17,3.91C278.21,3.91 279.85,7.26 281.59,10.8C283.53,14.74 285.53,18.8 289.81,18.8C294.09,18.8 296.09,14.73 298.03,10.8C299.77,7.26 301.42,3.91 304.45,3.91C307.49,3.91 309.13,7.26 310.87,10.8C312.8,14.74 314.8,18.81 319.09,18.81C323.38,18.81 325.37,14.74 327.31,10.8C329.05,7.26 330.7,3.91 333.73,3.91C336.77,3.91 338.41,7.26 340.16,10.8C342.1,14.74 344.1,18.8 348.38,18.8C352.66,18.8 354.66,14.73 356.6,10.8C358.34,7.26 359.99,3.91 363.02,3.91C366.06,3.91 367.71,7.26 369.45,10.8C371.39,14.74 373.39,18.8 377.67,18.8C381.46,18.8 385.19,14.95 388.8,11.22C391.52,8.41 394.35,5.51 396.13,5.6C396.42,5.61 396.87,5.71 397.38,6.36C399.77,9.39 396.93,12.26 392.08,16.69C388.23,20.21 383.87,24.19 383.87,28.93C383.87,34.13 387.9,36.64 391.79,39.06C395.38,41.3 398.77,43.41 398.77,47.5C398.77,51.59 395.38,53.7 391.79,55.94C387.9,58.37 383.87,60.88 383.87,66.07C383.87,71.27 387.9,73.78 391.79,76.2C395.38,78.44 398.77,80.55 398.77,84.64C398.77,88.73 395.38,90.84 391.79,93.08C387.94,95.5 383.91,98.01 383.91,103.21ZM248.33,331.95C243.13,331.95 238.9,336.18 238.9,341.38L238.9,349.8C238.9,350.35 239.35,350.8 239.9,350.8L256.75,350.8C257.3,350.8 257.75,350.35 257.75,349.8L257.75,341.37C257.76,336.17 253.53,331.95 248.33,331.95ZM255.76,348.8L240.9,348.8L240.9,341.37C240.9,337.28 244.23,333.94 248.33,333.94C252.43,333.94 255.76,337.27 255.76,341.37L255.76,348.8ZM262.07,349.8C262.07,350.35 262.52,350.8 263.07,350.8L279.92,350.8C280.47,350.8 280.92,350.35 280.92,349.8L280.92,341.37C280.92,336.17 276.69,331.94 271.49,331.94C266.29,331.94 262.06,336.17 262.06,341.37L262.06,349.8L262.07,349.8ZM264.07,341.37C264.07,337.28 267.4,333.94 271.5,333.94C275.6,333.94 278.93,337.27 278.93,341.37L278.93,348.8L264.08,348.8L264.08,341.37L264.07,341.37ZM178.84,331.95C173.64,331.95 169.41,336.18 169.41,341.38L169.41,349.8C169.41,350.35 169.86,350.8 170.41,350.8L187.26,350.8C187.81,350.8 188.26,350.35 188.26,349.8L188.26,341.37C188.26,336.17 184.04,331.95 178.84,331.95ZM186.27,348.8L171.41,348.8L171.41,341.37C171.41,337.28 174.74,333.94 178.84,333.94C182.94,333.94 186.27,337.27 186.27,341.37L186.27,348.8ZM155.67,331.95C150.47,331.95 146.24,336.18 146.24,341.38L146.24,349.8C146.24,350.35 146.69,350.8 147.24,350.8L164.09,350.8C164.64,350.8 165.09,350.35 165.09,349.8L165.09,341.37C165.1,336.17 160.87,331.95 155.67,331.95ZM163.11,348.8L148.25,348.8L148.25,341.37C148.25,337.28 151.58,333.94 155.68,333.94C159.78,333.94 163.11,337.27 163.11,341.37L163.11,348.8ZM225.17,331.95C219.97,331.95 215.74,336.18 215.74,341.38L215.74,349.8C215.74,350.35 216.19,350.8 216.74,350.8L233.59,350.8C234.14,350.8 234.59,350.35 234.59,349.8L234.59,341.37C234.59,336.17 230.36,331.95 225.17,331.95ZM232.6,348.8L217.74,348.8L217.74,341.37C217.74,337.28 221.07,333.94 225.17,333.94C229.27,333.94 232.6,337.27 232.6,341.37L232.6,348.8ZM149.9,321.77L161.45,321.77C162,321.77 162.45,321.32 162.45,320.77L162.45,312.98C162.45,309.24 159.41,306.2 155.67,306.2C151.93,306.2 148.89,309.24 148.89,312.98L148.89,320.77C148.9,321.32 149.34,321.77 149.9,321.77ZM150.9,312.98C150.9,310.35 153.04,308.2 155.68,308.2C158.31,308.2 160.46,310.34 160.46,312.98L160.46,319.77L150.91,319.77L150.91,312.98L150.9,312.98ZM132.51,331.95C127.31,331.95 123.08,336.18 123.08,341.38L123.08,349.8C123.08,350.35 123.53,350.8 124.08,350.8L140.93,350.8C141.48,350.8 141.93,350.35 141.93,349.8L141.93,341.37C141.94,336.17 137.71,331.95 132.51,331.95ZM139.95,348.8L125.09,348.8L125.09,341.37C125.09,337.28 128.42,333.94 132.52,333.94C136.62,333.94 139.95,337.27 139.95,341.37L139.95,348.8ZM226.01,299.98C221.15,299.98 217.14,303.68 216.64,308.41L211.43,308.41L211.43,296.5C211.43,291.3 207.2,287.07 202,287.07C196.8,287.07 192.57,291.3 192.57,296.5L192.57,308.41L187.36,308.41C186.86,303.68 182.85,299.98 177.99,299.98C172.79,299.98 168.56,304.21 168.56,309.41L168.56,320.77C168.56,321.32 169.01,321.77 169.56,321.77L234.43,321.77C234.98,321.77 235.43,321.32 235.43,320.77L235.43,309.41C235.44,304.21 231.21,299.98 226.01,299.98ZM211.43,310.41L216.59,310.41L216.59,319.77L211.43,319.77L211.43,310.41ZM194.57,296.49C194.57,292.4 197.9,289.06 202,289.06C206.1,289.06 209.43,292.39 209.43,296.49L209.43,319.76L194.58,319.76L194.58,296.49L194.57,296.49ZM187.42,310.41L192.58,310.41L192.58,319.77L187.42,319.77L187.42,310.41ZM170.56,309.41C170.56,305.31 173.89,301.98 177.99,301.98C182.09,301.98 185.42,305.31 185.42,309.41L185.42,319.77L170.57,319.77L170.57,309.41L170.56,309.41ZM233.45,319.77L218.59,319.77L218.59,309.41C218.59,305.31 221.92,301.98 226.02,301.98C230.12,301.98 233.45,305.31 233.45,309.41L233.45,319.77ZM202,331.95C196.8,331.95 192.57,336.18 192.57,341.38L192.57,349.8C192.57,350.35 193.02,350.8 193.57,350.8L210.42,350.8C210.97,350.8 211.42,350.35 211.42,349.8L211.42,341.37C211.43,336.17 207.2,331.95 202,331.95ZM209.44,348.8L194.58,348.8L194.58,341.37C194.58,337.28 197.91,333.94 202.01,333.94C206.11,333.94 209.44,337.27 209.44,341.37L209.44,348.8ZM242.55,321.77L254.1,321.77C254.65,321.77 255.1,321.32 255.1,320.77L255.1,312.98C255.1,309.24 252.06,306.2 248.32,306.2C244.58,306.2 241.54,309.24 241.54,312.98L241.54,320.77C241.55,321.32 242,321.77 242.55,321.77ZM243.55,312.98C243.55,310.35 245.69,308.2 248.33,308.2C250.97,308.2 253.11,310.34 253.11,312.98L253.11,319.77L243.56,319.77L243.56,312.98L243.55,312.98ZM367.67,34.04L36.33,34.04C35.78,34.04 35.33,34.49 35.33,35.04L35.33,468.56C35.33,469.11 35.78,469.56 36.33,469.56L367.67,469.56C368.22,469.56 368.67,469.11 368.67,468.56L368.67,35.04C368.67,34.49 368.22,34.04 367.67,34.04ZM352.27,264.35L352.27,235.84C357.04,235.88 361.87,236.18 366.67,236.72L366.67,302.5L362.46,302.5L362.46,283.27C362.46,275.61 358.66,268.58 352.27,264.35ZM102.49,361.38L301.51,361.38L301.51,429.44C296.41,414.44 282.31,404.21 266.22,404.21L255.5,404.21C238.65,404.21 223.97,415.43 219.54,431.6L184.46,431.6C180.03,415.43 165.35,404.21 148.5,404.21L137.78,404.21C121.69,404.21 107.59,414.44 102.49,429.44L102.49,361.38ZM287.95,359.38L116.06,359.38L116.06,340.77C116.06,338.43 116.16,336.08 116.35,333.76C126.95,319.42 155.51,285.52 195.33,274.75C214.39,269.6 234.06,268.74 253.8,272.19C275.5,288.6 287.94,313.59 287.94,340.77L287.94,359.38L287.95,359.38ZM194.8,272.83C156.68,283.14 128.79,314.23 116.74,329.91C119.27,309.89 128.74,291.44 143.68,277.64C159.6,262.93 180.31,254.83 201.99,254.83C213.59,254.83 224.85,257.1 235.44,261.58C240.58,263.75 245.51,266.44 250.14,269.58C231.46,266.86 212.86,267.94 194.8,272.83ZM302.51,302.5C301.96,302.5 301.51,302.95 301.51,303.5L301.51,359.39L289.95,359.39L289.95,340.78C289.95,312.88 277.14,287.25 254.82,270.45C249.08,266.13 242.83,262.53 236.24,259.74C225.4,255.15 213.88,252.83 202.01,252.83C179.82,252.83 158.63,261.12 142.34,276.17C126.15,291.14 116.21,311.43 114.38,333.32C114.17,335.78 114.07,338.28 114.07,340.77L114.07,359.38L102.5,359.38L102.5,303.5C102.5,302.95 102.05,302.5 101.5,302.5L86.99,302.5L86.99,283.27C86.99,270.74 76.8,260.55 64.27,260.55C60.6,260.55 56.99,261.45 53.74,263.16L53.74,235.84L350.33,235.84L350.33,263.16C347.08,261.45 343.47,260.55 339.79,260.55C327.26,260.55 317.07,270.74 317.07,283.27L317.07,302.5L302.51,302.5ZM37.33,236.72C42.13,236.18 46.96,235.89 51.73,235.85L51.73,264.35C45.34,268.58 41.54,275.61 41.54,283.27L41.54,302.5L37.33,302.5L37.33,236.72ZM200.57,117.55C199.51,117.32 199.09,116.91 199.05,116.82C199.09,116.69 199.59,116.24 200.77,116.02C201.22,115.94 201.56,115.56 201.59,115.11L201.65,114.32C201.68,113.91 201.45,113.53 201.09,113.35C201.48,113.22 201.75,112.88 201.77,112.47L201.83,111.61C201.86,111.18 201.61,110.78 201.22,110.62C200.97,110.52 200.75,110.37 200.57,110.18C200.24,109.85 200.07,109.42 200.07,108.96C200.07,108.5 200.25,108.07 200.57,107.74L202.01,106.3C202.02,106.32 202.04,106.33 202.06,106.35L203.45,107.74C204.12,108.41 204.12,109.5 203.45,110.17C203.26,110.36 203.04,110.5 202.8,110.61C202.4,110.77 202.16,111.17 202.19,111.6L202.25,112.46C202.28,112.87 202.55,113.21 202.93,113.34C202.57,113.52 202.35,113.9 202.37,114.31L202.42,115.1C202.45,115.56 202.79,115.93 203.24,116.01C204.42,116.23 204.93,116.68 204.96,116.78C204.92,116.9 204.5,117.31 203.44,117.54C202.96,117.65 202.62,118.09 202.66,118.59L202.68,118.94C202.71,119.34 202.98,119.69 203.36,119.82C204.7,120.27 205.71,121.38 206.08,122.71C203.38,122.65 200.66,122.64 197.95,122.69C198.33,121.37 199.33,120.27 200.66,119.82C201.04,119.69 201.31,119.34 201.34,118.94L201.36,118.59C201.39,118.11 201.06,117.66 200.57,117.55ZM201.66,102.06C201.78,102.05 201.9,102.02 202,101.96C202.11,102.01 202.22,102.04 202.34,102.06C202.56,102.08 202.74,102.12 202.88,102.16C202.76,102.19 202.62,102.22 202.45,102.24C202.28,102.26 202.12,102.33 201.99,102.42C201.86,102.32 201.7,102.26 201.53,102.24C201.36,102.22 201.22,102.19 201.1,102.16C201.26,102.12 201.44,102.08 201.66,102.06ZM201.47,99.36C201.49,99.32 201.62,99.2 201.89,99.17C201.93,99.17 201.97,99.16 202.01,99.15C202.05,99.16 202.09,99.17 202.13,99.17C202.39,99.2 202.53,99.33 202.55,99.31C202.53,99.34 202.42,99.45 202.21,99.49C202.14,99.5 202.08,99.52 202.02,99.55C201.96,99.52 201.89,99.5 201.83,99.49C201.61,99.45 201.51,99.36 201.47,99.36ZM196.32,124.72C196.46,124.79 196.6,124.84 196.77,124.84L207.25,124.84C207.39,124.84 207.53,124.81 207.65,124.75C220.91,125.17 233.83,126.88 246.06,129.84C307.02,144.63 322.82,182.41 326.21,193.63C327.32,197.31 328.06,201.07 328.45,204.82L72.85,204.82C73.26,200.81 80.52,181.46 81.57,179.64C86.38,171.32 93.11,163.56 101.55,156.57C125.21,136.99 158.85,125.69 196.32,124.72ZM69.9,206.83L331.61,206.83L331.61,209.9L69.9,209.9L69.9,206.83ZM72.4,211.9L331.6,211.9L333.7,214.52C331.7,216.05 330.49,218.44 330.49,220.99L330.49,233.83L321.94,233.83L321.94,221C321.94,216.51 318.28,212.85 313.79,212.85C309.3,212.85 305.64,216.51 305.64,221L305.64,233.84L297.09,233.84L297.09,221C297.09,216.51 293.43,212.85 288.94,212.85C284.45,212.85 280.79,216.51 280.79,221L280.79,233.84L272.24,233.84L272.24,221C272.24,216.51 268.58,212.85 264.09,212.85C259.6,212.85 255.94,216.51 255.94,221L255.94,233.84L247.39,233.84L247.39,221C247.39,216.51 243.73,212.85 239.24,212.85C234.75,212.85 231.09,216.51 231.09,221L231.09,233.84L222.54,233.84L222.54,221C222.54,216.51 218.88,212.85 214.39,212.85C209.9,212.85 206.24,216.51 206.24,221L206.24,233.84L197.69,233.84L197.69,221C197.69,216.51 194.03,212.85 189.54,212.85C185.05,212.85 181.39,216.51 181.39,221L181.39,233.84L172.84,233.84L172.84,221C172.84,216.51 169.18,212.85 164.69,212.85C160.2,212.85 156.54,216.51 156.54,221L156.54,233.84L147.99,233.84L147.99,221C147.99,216.51 144.33,212.85 139.84,212.85C135.35,212.85 131.69,216.51 131.69,221L131.69,233.84L123.14,233.84L123.14,221C123.14,216.51 119.48,212.85 114.99,212.85C110.5,212.85 106.84,216.51 106.84,221L106.84,233.84L98.29,233.84L98.29,221C98.29,216.51 94.63,212.85 90.14,212.85C85.65,212.85 81.99,216.51 81.99,221L81.99,233.84L73.5,233.84L73.5,221C73.5,218.82 72.65,216.78 71.11,215.24C70.85,214.98 70.58,214.75 70.29,214.53L72.4,211.9ZM346.8,230.86L349.19,233.84L346.8,233.84L346.8,230.86ZM344.8,233.84L332.5,233.84L332.5,221C332.5,219.05 333.42,217.24 334.96,216.08L344.8,228.36L344.8,233.84ZM319.95,233.84L307.65,233.84L307.65,221C307.65,217.61 310.41,214.85 313.8,214.85C317.19,214.85 319.95,217.61 319.95,221L319.95,233.84ZM295.11,233.84L282.81,233.84L282.81,221C282.81,217.61 285.57,214.85 288.96,214.85C292.35,214.85 295.11,217.61 295.11,221L295.11,233.84ZM270.26,233.84L257.96,233.84L257.96,221C257.96,217.61 260.72,214.85 264.11,214.85C267.5,214.85 270.26,217.61 270.26,221L270.26,233.84ZM245.42,233.84L233.12,233.84L233.12,221C233.12,217.61 235.88,214.85 239.27,214.85C242.66,214.85 245.42,217.61 245.42,221L245.42,233.84ZM220.57,233.84L208.27,233.84L208.27,221C208.27,217.61 211.03,214.85 214.42,214.85C217.81,214.85 220.57,217.61 220.57,221L220.57,233.84ZM195.73,233.84L183.43,233.84L183.43,221C183.43,217.61 186.19,214.85 189.58,214.85C192.97,214.85 195.73,217.61 195.73,221L195.73,233.84ZM170.88,233.84L158.58,233.84L158.58,221C158.58,217.61 161.34,214.85 164.73,214.85C168.12,214.85 170.88,217.61 170.88,221L170.88,233.84ZM146.04,233.84L133.74,233.84L133.74,221C133.74,217.61 136.5,214.85 139.89,214.85C143.28,214.85 146.04,217.61 146.04,221L146.04,233.84ZM121.19,233.84L108.89,233.84L108.89,221C108.89,217.61 111.65,214.85 115.04,214.85C118.43,214.85 121.19,217.61 121.19,221L121.19,233.84ZM96.35,233.84L84.05,233.84L84.05,221C84.05,217.61 86.81,214.85 90.2,214.85C93.59,214.85 96.35,217.61 96.35,221L96.35,233.84ZM69.05,216.09C69.28,216.26 69.5,216.45 69.7,216.66C70.86,217.82 71.5,219.37 71.5,221.01L71.5,233.85L59.2,233.85L59.2,228.37L69.05,216.09ZM57.21,233.84L54.82,233.84L57.21,230.86L57.21,233.84ZM366.67,36.04L366.67,234.71C361.7,234.16 356.69,233.87 351.76,233.85L346.58,227.39L335.96,214.13L333.57,211.15C333.59,211.07 333.62,210.99 333.62,210.9L333.62,205.83C333.62,205.28 333.17,204.83 332.62,204.83L330.46,204.83C330.07,200.88 329.29,196.92 328.12,193.06C318.86,162.41 288.36,138.05 246.53,127.9C234.3,124.93 221.39,123.21 208.14,122.77C207.86,121.17 206.97,119.75 205.68,118.8C206.5,118.29 206.95,117.6 206.95,116.8C206.95,115.79 206.19,114.93 204.9,114.42C205.17,114.11 205.32,113.74 205.32,113.34C205.32,112.78 205.02,112.28 204.5,111.9C204.62,111.8 204.74,111.7 204.85,111.59C206.3,110.14 206.3,107.78 204.85,106.33L203.73,105.21L203.65,104.02C204.69,103.67 205.32,102.99 205.32,102.16C205.32,101.47 204.88,100.89 204.14,100.51C204.39,100.17 204.53,99.77 204.53,99.34C204.53,98.5 204,97.78 203.19,97.42L203.17,97.2C204.86,96.7 206.08,95.14 206.08,93.29C206.08,92 205.49,90.81 204.46,90.03C204.06,89.72 203.49,89.77 203.14,90.13C202.79,90.49 202.76,91.06 203.08,91.45C203.28,91.69 203.38,91.99 203.38,92.31C203.38,93.07 202.76,93.69 202,93.69C201.24,93.69 200.62,93.07 200.62,92.31C200.62,91.91 200.78,91.62 200.92,91.45C201.23,91.06 201.21,90.49 200.85,90.13C200.5,89.77 199.93,89.73 199.53,90.03C198.51,90.81 197.92,91.99 197.92,93.28C197.92,95.13 199.14,96.69 200.83,97.19L200.81,97.41C200,97.77 199.47,98.5 199.47,99.33C199.47,99.76 199.61,100.16 199.86,100.5C199.12,100.88 198.68,101.47 198.68,102.15C198.68,102.98 199.31,103.66 200.36,104.01L200.28,105.2L199.16,106.32C198.46,107.02 198.07,107.96 198.07,108.95C198.07,109.94 198.46,110.88 199.16,111.58C199.27,111.69 199.39,111.8 199.51,111.89C198.98,112.26 198.69,112.77 198.69,113.33C198.69,113.73 198.84,114.1 199.11,114.41C197.82,114.93 197.06,115.78 197.06,116.79C197.06,117.58 197.51,118.27 198.32,118.78C197.04,119.71 196.17,121.1 195.88,122.71C158.12,123.76 124.2,135.21 100.28,155.01C91.65,162.15 84.77,170.1 79.84,178.62C79.73,178.81 71.41,198.88 70.92,204.81L68.9,204.81C68.35,204.81 67.9,205.26 67.9,205.81L67.9,210.88C67.9,211.43 68.35,211.88 68.9,211.88L69.83,211.88L68.05,214.1L57.42,227.36L52.24,233.82C47.3,233.84 42.3,234.13 37.33,234.68L37.33,36.04L366.67,36.04ZM37.33,304.5L42.54,304.5C43.09,304.5 43.54,304.05 43.54,303.5L43.54,283.27C43.54,276.12 47.17,269.56 53.26,265.73C56.57,263.65 60.38,262.54 64.26,262.54C75.69,262.54 84.98,271.84 84.98,283.26L84.98,303.49C84.98,304.04 85.43,304.49 85.98,304.49L100.5,304.49L100.5,467.55L37.33,467.55L37.33,304.5ZM173.07,433.14C174.64,435.62 175.86,438.27 176.77,441.02L154.43,441.02L154.43,418.39C162.02,420.98 168.62,426.1 173.07,433.14ZM178.58,467.56L154.43,467.56L154.43,443.02L176.82,443.02C177.01,443.02 177.18,442.95 177.33,442.86C178.15,445.88 178.58,449.01 178.58,452.18L178.58,467.56ZM152.42,467.56L133.74,467.56L133.74,443.02L152.42,443.02L152.42,467.56ZM152.42,441.02L133.74,441.02L133.74,417.75C133.74,417.72 133.73,417.7 133.72,417.67C136.67,416.89 139.74,416.48 142.88,416.48C146.16,416.48 149.36,416.93 152.42,417.78L152.42,441.02ZM131.75,441.02L109,441.02C109.91,438.27 111.13,435.62 112.7,433.14C117.23,425.97 123.98,420.79 131.75,418.25L131.75,441.02ZM107.19,452.18C107.19,449.07 107.61,445.99 108.4,443.02L131.74,443.02L131.74,467.56L107.19,467.56L107.19,452.18ZM295.97,467.56L271.97,467.56L271.97,443.02L294.36,443.02C294.5,443.02 294.62,442.99 294.74,442.94C295.54,445.93 295.97,449.03 295.97,452.17L295.97,467.56ZM269.97,467.56L251.29,467.56L251.29,443.02L269.97,443.02L269.97,467.56ZM271.97,441.02L271.97,418.45C279.51,421.05 286.04,426.14 290.46,433.14C292.03,435.62 293.25,438.27 294.16,441.02L271.97,441.02ZM269.97,441.02L251.29,441.02L251.29,417.75C251.29,417.71 251.27,417.67 251.27,417.63C254.17,416.88 257.2,416.48 260.28,416.48C263.61,416.48 266.86,416.95 269.97,417.82L269.97,441.02ZM249.29,441.02L226.39,441.02C227.3,438.27 228.52,435.62 230.09,433.14C234.65,425.93 241.45,420.73 249.29,418.21L249.29,441.02ZM224.58,452.18C224.58,449.07 225,445.99 225.79,443.02L249.28,443.02L249.28,467.56L224.57,467.56L224.57,452.18L224.58,452.18ZM292.16,432.07C285.2,421.06 273.28,414.48 260.28,414.48C247.28,414.48 235.36,421.06 228.4,432.07C224.6,438.09 222.58,445.04 222.58,452.18L222.58,467.56L180.57,467.56L180.57,452.18C180.57,445.05 178.56,438.09 174.75,432.07C169.87,424.34 162.54,418.81 154.11,416.19C153.93,416.01 153.68,415.9 153.41,415.9C153.35,415.9 153.3,415.92 153.24,415.93C149.91,414.98 146.43,414.47 142.86,414.47C129.86,414.47 117.94,421.05 110.98,432.06C107.17,438.08 105.16,445.03 105.16,452.17L105.16,467.55L102.5,467.55L102.5,433.6L102.6,433.6C103.06,433.6 103.46,433.29 103.57,432.84C107.52,417.16 121.59,406.2 137.79,406.2L148.51,406.2C164.71,406.2 178.78,417.15 182.73,432.84C182.84,433.28 183.24,433.6 183.7,433.6L220.33,433.6C220.79,433.6 221.19,433.29 221.3,432.84C225.25,417.16 239.32,406.2 255.52,406.2L266.24,406.2C282.44,406.2 296.51,417.15 300.46,432.84C300.57,433.28 300.97,433.6 301.43,433.6L301.53,433.6L301.53,467.55L298,467.55L298,452.17C297.97,445.04 295.96,438.09 292.16,432.07ZM303.51,467.57L303.51,304.5L318.02,304.5C318.57,304.5 319.02,304.05 319.02,303.5L319.02,283.27C319.02,271.84 328.32,262.55 339.74,262.55C343.62,262.55 347.43,263.65 350.74,265.74C356.83,269.57 360.46,276.12 360.46,283.28L360.46,303.51C360.46,304.06 360.91,304.51 361.46,304.51L366.67,304.51L366.67,467.57L303.51,467.57ZM64.27,272.14C59.54,272.14 55.06,274.21 51.98,277.82C49.47,280.75 48.09,284.48 48.09,288.32C48.09,292.16 49.47,295.89 51.98,298.82C55.07,302.43 59.55,304.5 64.27,304.5C73.19,304.5 80.45,297.24 80.45,288.32C80.45,279.4 73.19,272.14 64.27,272.14ZM64.27,302.5C60.13,302.5 56.2,300.69 53.5,297.52C51.3,294.95 50.09,291.68 50.09,288.32C50.09,284.96 51.3,281.69 53.5,279.12C56.2,275.96 60.13,274.14 64.27,274.14C72.09,274.14 78.45,280.5 78.45,288.32C78.45,296.14 72.09,302.5 64.27,302.5ZM339.74,272.14C330.82,272.14 323.56,279.4 323.56,288.32C323.56,297.24 330.82,304.5 339.74,304.5C344.47,304.5 348.95,302.43 352.03,298.82C354.54,295.89 355.92,292.16 355.92,288.32C355.92,284.48 354.54,280.75 352.03,277.82C348.95,274.21 344.46,272.14 339.74,272.14ZM350.51,297.52C347.8,300.68 343.88,302.5 339.73,302.5C331.91,302.5 325.55,296.14 325.55,288.32C325.55,280.5 331.91,274.14 339.73,274.14C343.87,274.14 347.8,275.95 350.51,279.12C352.71,281.69 353.92,284.95 353.92,288.32C353.92,291.68 352.71,294.95 350.51,297.52ZM209.86,395.16L291.3,395.16C291.85,395.16 292.3,394.71 292.3,394.16C292.3,391.43 291.45,388.76 289.78,386.21C283.84,377.17 268.09,371.09 250.58,371.09C227.58,371.09 208.86,381.44 208.86,394.16C208.86,394.71 209.31,395.16 209.86,395.16ZM250.58,373.09C267.44,373.09 282.53,378.8 288.11,387.31C289.35,389.21 290.07,391.17 290.25,393.16L210.9,393.16C211.89,382 229.31,373.09 250.58,373.09ZM112.71,395.16L194.15,395.16C194.7,395.16 195.15,394.71 195.15,394.16C195.15,381.44 176.44,371.09 153.43,371.09C135.92,371.09 120.17,377.17 114.23,386.21C112.56,388.75 111.71,391.43 111.71,394.16C111.71,394.71 112.15,395.16 112.71,395.16ZM115.89,387.31C121.47,378.81 136.56,373.09 153.42,373.09C174.69,373.09 192.11,382 193.09,393.16L113.74,393.16C113.93,391.17 114.65,389.2 115.89,387.31ZM69.76,431.6L60.47,431.6C59.92,431.6 59.47,432.05 59.47,432.6L59.47,450.99C59.47,451.54 59.92,451.99 60.47,451.99L69.76,451.99C70.31,451.99 70.76,451.54 70.76,450.99L70.76,432.6C70.76,432.05 70.31,431.6 69.76,431.6ZM68.76,450L61.47,450L61.47,433.6L68.76,433.6L68.76,450ZM347.41,326.14L338.12,326.14C337.57,326.14 337.12,326.59 337.12,327.14L337.12,345.54C337.12,346.09 337.57,346.54 338.12,346.54L347.41,346.54C347.96,346.54 348.41,346.09 348.41,345.54L348.41,327.14C348.41,326.58 347.96,326.14 347.41,326.14ZM346.41,344.53L339.12,344.53L339.12,328.13L346.41,328.13L346.41,344.53ZM69.76,326.14L60.47,326.14C59.92,326.14 59.47,326.59 59.47,327.14L59.47,345.54C59.47,346.09 59.92,346.54 60.47,346.54L69.76,346.54C70.31,346.54 70.76,346.09 70.76,345.54L70.76,327.14C70.76,326.58 70.31,326.14 69.76,326.14ZM68.76,344.53L61.47,344.53L61.47,328.13L68.76,328.13L68.76,344.53ZM347.41,431.6L338.12,431.6C337.57,431.6 337.12,432.05 337.12,432.6L337.12,450.99C337.12,451.54 337.57,451.99 338.12,451.99L347.41,451.99C347.96,451.99 348.41,451.54 348.41,450.99L348.41,432.6C348.41,432.05 347.96,431.6 347.41,431.6ZM346.41,450L339.12,450L339.12,433.6L346.41,433.6L346.41,450Z" style="fill:rgb(42,26,31);fill-rule:nonzero;"/>
        </g>
    </g>
</svg>
